<svg width="112" height="32" viewBox="0 0 112 32" fill="none" xmlns="http://www.w3.org/2000/svg">
<g filter="url(#filter0_d_1744_7457)">
<rect x="2" y="1" width="108" height="28" rx="5" fill="#FFCD7C"/>
<path d="M14.4815 19H12.794L15.8665 10.2727H17.8182L20.8949 19H19.2074L16.8764 12.0625H16.8082L14.4815 19ZM14.5369 15.5781H19.1392V16.848H14.5369V15.5781ZM24.206 19.1151C23.6918 19.1151 23.2315 18.983 22.8253 18.7188C22.419 18.4545 22.098 18.071 21.8622 17.5682C21.6264 17.0653 21.5085 16.4545 21.5085 15.7358C21.5085 15.0085 21.6278 14.3949 21.8665 13.8949C22.108 13.392 22.4332 13.0128 22.8423 12.7571C23.2514 12.4986 23.7074 12.3693 24.2102 12.3693C24.5938 12.3693 24.9091 12.4347 25.1562 12.5653C25.4034 12.6932 25.5994 12.848 25.7443 13.0298C25.8892 13.2088 26.0014 13.3778 26.081 13.5369H26.1449V10.2727H27.6918V19H26.1747V17.9688H26.081C26.0014 18.1278 25.8864 18.2969 25.7358 18.4759C25.5852 18.652 25.3864 18.8026 25.1392 18.9276C24.892 19.0526 24.581 19.1151 24.206 19.1151ZM24.6364 17.8494C24.9631 17.8494 25.2415 17.7614 25.4716 17.5852C25.7017 17.4062 25.8764 17.1577 25.9957 16.8395C26.1151 16.5213 26.1747 16.1506 26.1747 15.7273C26.1747 15.304 26.1151 14.9361 25.9957 14.6236C25.8793 14.3111 25.706 14.0682 25.4759 13.8949C25.2486 13.7216 24.9688 13.6349 24.6364 13.6349C24.2926 13.6349 24.0057 13.7244 23.7756 13.9034C23.5455 14.0824 23.3722 14.3295 23.2557 14.6449C23.1392 14.9602 23.081 15.321 23.081 15.7273C23.081 16.1364 23.1392 16.5014 23.2557 16.8224C23.375 17.1406 23.5497 17.392 23.7798 17.5767C24.0128 17.7585 24.2983 17.8494 24.6364 17.8494ZM31.7646 19.1151C31.2504 19.1151 30.7901 18.983 30.3839 18.7188C29.9776 18.4545 29.6566 18.071 29.4208 17.5682C29.185 17.0653 29.0671 16.4545 29.0671 15.7358C29.0671 15.0085 29.1864 14.3949 29.4251 13.8949C29.6665 13.392 29.9918 13.0128 30.4009 12.7571C30.81 12.4986 31.266 12.3693 31.7688 12.3693C32.1523 12.3693 32.4677 12.4347 32.7148 12.5653C32.962 12.6932 33.158 12.848 33.3029 13.0298C33.4478 13.2088 33.56 13.3778 33.6396 13.5369H33.7035V10.2727H35.2504V19H33.7333V17.9688H33.6396C33.56 18.1278 33.445 18.2969 33.2944 18.4759C33.1438 18.652 32.945 18.8026 32.6978 18.9276C32.4506 19.0526 32.1396 19.1151 31.7646 19.1151ZM32.195 17.8494C32.5217 17.8494 32.8001 17.7614 33.0302 17.5852C33.2603 17.4062 33.435 17.1577 33.5543 16.8395C33.6737 16.5213 33.7333 16.1506 33.7333 15.7273C33.7333 15.304 33.6737 14.9361 33.5543 14.6236C33.4379 14.3111 33.2646 14.0682 33.0344 13.8949C32.8072 13.7216 32.5273 13.6349 32.195 13.6349C31.8512 13.6349 31.5643 13.7244 31.3342 13.9034C31.104 14.0824 30.9308 14.3295 30.8143 14.6449C30.6978 14.9602 30.6396 15.321 30.6396 15.7273C30.6396 16.1364 30.6978 16.5014 30.8143 16.8224C30.9336 17.1406 31.1083 17.392 31.3384 17.5767C31.5714 17.7585 31.8569 17.8494 32.195 17.8494ZM39.9389 19V10.2727H41.4815V13.5369H41.5455C41.625 13.3778 41.7372 13.2088 41.8821 13.0298C42.027 12.848 42.223 12.6932 42.4702 12.5653C42.7173 12.4347 43.0327 12.3693 43.4162 12.3693C43.9219 12.3693 44.3778 12.4986 44.7841 12.7571C45.1932 13.0128 45.517 13.392 45.7557 13.8949C45.9972 14.3949 46.1179 15.0085 46.1179 15.7358C46.1179 16.4545 46 17.0653 45.7642 17.5682C45.5284 18.071 45.2074 18.4545 44.8011 18.7188C44.3949 18.983 43.9347 19.1151 43.4205 19.1151C43.0455 19.1151 42.7344 19.0526 42.4872 18.9276C42.2401 18.8026 42.0412 18.652 41.8906 18.4759C41.7429 18.2969 41.6278 18.1278 41.5455 17.9688H41.456V19H39.9389ZM41.4517 15.7273C41.4517 16.1506 41.5114 16.5213 41.6307 16.8395C41.7528 17.1577 41.9276 17.4062 42.1548 17.5852C42.3849 17.7614 42.6634 17.8494 42.9901 17.8494C43.331 17.8494 43.6165 17.7585 43.8466 17.5767C44.0767 17.392 44.25 17.1406 44.3665 16.8224C44.4858 16.5014 44.5455 16.1364 44.5455 15.7273C44.5455 15.321 44.4872 14.9602 44.3707 14.6449C44.2543 14.3295 44.081 14.0824 43.8509 13.9034C43.6207 13.7244 43.3338 13.6349 42.9901 13.6349C42.6605 13.6349 42.3807 13.7216 42.1506 13.8949C41.9205 14.0682 41.7457 14.3111 41.6264 14.6236C41.5099 14.9361 41.4517 15.304 41.4517 15.7273ZM47.4293 19V12.4545H48.9719V19H47.4293ZM48.2049 11.5256C47.9606 11.5256 47.7504 11.4446 47.5742 11.2827C47.3981 11.1179 47.31 10.9205 47.31 10.6903C47.31 10.4574 47.3981 10.2599 47.5742 10.098C47.7504 9.93324 47.9606 9.85085 48.2049 9.85085C48.4521 9.85085 48.6623 9.93324 48.8356 10.098C49.0117 10.2599 49.0998 10.4574 49.0998 10.6903C49.0998 10.9205 49.0117 11.1179 48.8356 11.2827C48.6623 11.4446 48.4521 11.5256 48.2049 11.5256ZM52.1009 10.2727V19H50.5582V10.2727H52.1009ZM55.2298 10.2727V19H53.6871V10.2727H55.2298ZM56.8161 19V12.4545H58.3587V19H56.8161ZM57.5916 11.5256C57.3473 11.5256 57.1371 11.4446 56.9609 11.2827C56.7848 11.1179 56.6967 10.9205 56.6967 10.6903C56.6967 10.4574 56.7848 10.2599 56.9609 10.098C57.1371 9.93324 57.3473 9.85085 57.5916 9.85085C57.8388 9.85085 58.049 9.93324 58.2223 10.098C58.3984 10.2599 58.4865 10.4574 58.4865 10.6903C58.4865 10.9205 58.3984 11.1179 58.2223 11.2827C58.049 11.4446 57.8388 11.5256 57.5916 11.5256ZM61.4876 15.1648V19H59.945V12.4545H61.4194V13.5668H61.4961C61.6467 13.2003 61.8867 12.9091 62.2163 12.6932C62.5487 12.4773 62.9592 12.3693 63.4478 12.3693C63.8995 12.3693 64.293 12.4659 64.6282 12.6591C64.9663 12.8523 65.2276 13.1321 65.4123 13.4986C65.5998 13.8651 65.6921 14.3097 65.6893 14.8324V19H64.1467V15.071C64.1467 14.6335 64.033 14.2912 63.8058 14.044C63.5813 13.7969 63.2702 13.6733 62.8725 13.6733C62.6026 13.6733 62.3626 13.733 62.1523 13.8523C61.945 13.9687 61.7816 14.1378 61.6623 14.3594C61.5458 14.581 61.4876 14.8494 61.4876 15.1648ZM70.104 21.5909C69.5501 21.5909 69.0742 21.5156 68.6765 21.3651C68.2788 21.2173 67.9592 21.0185 67.7177 20.7685C67.4762 20.5185 67.3086 20.2415 67.2148 19.9375L68.604 19.6009C68.6665 19.7287 68.7575 19.8551 68.8768 19.9801C68.9961 20.108 69.1566 20.2131 69.3583 20.2955C69.5629 20.3807 69.82 20.4233 70.1296 20.4233C70.5671 20.4233 70.9293 20.3168 71.2163 20.1037C71.5032 19.8935 71.6467 19.5469 71.6467 19.0639V17.8239H71.57C71.4904 17.983 71.3739 18.1463 71.2205 18.3139C71.07 18.4815 70.8697 18.6222 70.6197 18.7358C70.3725 18.8494 70.0614 18.9062 69.6864 18.9062C69.1836 18.9062 68.7276 18.7884 68.3185 18.5526C67.9123 18.3139 67.5884 17.9588 67.3469 17.4872C67.1083 17.0128 66.989 16.419 66.989 15.706C66.989 14.9872 67.1083 14.3807 67.3469 13.8864C67.5884 13.3892 67.9137 13.0128 68.3228 12.7571C68.7319 12.4986 69.1879 12.3693 69.6907 12.3693C70.0742 12.3693 70.3896 12.4347 70.6367 12.5653C70.8867 12.6932 71.0856 12.848 71.2333 13.0298C71.381 13.2088 71.4933 13.3778 71.57 13.5369H71.6552V12.4545H73.1765V19.1065C73.1765 19.6662 73.043 20.1293 72.7759 20.4957C72.5089 20.8622 72.1438 21.1364 71.6808 21.3182C71.2177 21.5 70.6921 21.5909 70.104 21.5909ZM70.1168 17.696C70.4435 17.696 70.7219 17.6165 70.9521 17.4574C71.1822 17.2983 71.3569 17.0696 71.4762 16.7713C71.5955 16.473 71.6552 16.1151 71.6552 15.6974C71.6552 15.2855 71.5955 14.9247 71.4762 14.6151C71.3597 14.3054 71.1864 14.0653 70.9563 13.8949C70.729 13.7216 70.4492 13.6349 70.1168 13.6349C69.7731 13.6349 69.4862 13.7244 69.256 13.9034C69.0259 14.0824 68.8526 14.3281 68.7362 14.6406C68.6197 14.9503 68.5614 15.3026 68.5614 15.6974C68.5614 16.098 68.6197 16.4489 68.7362 16.75C68.8555 17.0483 69.0302 17.2812 69.2603 17.4489C69.4933 17.6136 69.7788 17.696 70.1168 17.696ZM77.734 19V12.4545H79.2766V19H77.734ZM78.5096 11.5256C78.2653 11.5256 78.055 11.4446 77.8789 11.2827C77.7028 11.1179 77.6147 10.9205 77.6147 10.6903C77.6147 10.4574 77.7028 10.2599 77.8789 10.098C78.055 9.93324 78.2653 9.85085 78.5096 9.85085C78.7567 9.85085 78.967 9.93324 79.1403 10.098C79.3164 10.2599 79.4045 10.4574 79.4045 10.6903C79.4045 10.9205 79.3164 11.1179 79.1403 11.2827C78.967 11.4446 78.7567 11.5256 78.5096 11.5256ZM82.4055 15.1648V19H80.8629V12.4545H82.3374V13.5668H82.4141C82.5646 13.2003 82.8047 12.9091 83.1342 12.6932C83.4666 12.4773 83.8771 12.3693 84.3658 12.3693C84.8175 12.3693 85.2109 12.4659 85.5462 12.6591C85.8842 12.8523 86.1456 13.1321 86.3303 13.4986C86.5178 13.8651 86.6101 14.3097 86.6072 14.8324V19H85.0646V15.071C85.0646 14.6335 84.951 14.2912 84.7237 14.044C84.4993 13.7969 84.1882 13.6733 83.7905 13.6733C83.5206 13.6733 83.2805 13.733 83.0703 13.8523C82.8629 13.9687 82.6996 14.1378 82.5803 14.3594C82.4638 14.581 82.4055 14.8494 82.4055 15.1648ZM91.4908 12.4545V13.6477H87.6214V12.4545H91.4908ZM88.5888 19V11.8366C88.5888 11.3963 88.6797 11.0298 88.8615 10.7372C89.0462 10.4446 89.2933 10.2259 89.603 10.081C89.9126 9.93608 90.2564 9.86364 90.6342 9.86364C90.9013 9.86364 91.1385 9.88494 91.3459 9.92756C91.5533 9.97017 91.7067 10.0085 91.8061 10.0426L91.4993 11.2358C91.4339 11.2159 91.3516 11.196 91.2521 11.1761C91.1527 11.1534 91.0419 11.142 90.9197 11.142C90.6328 11.142 90.4297 11.2116 90.3104 11.3509C90.1939 11.4872 90.1357 11.6832 90.1357 11.9389V19H88.5888ZM95.3079 19.1278C94.6687 19.1278 94.1147 18.9872 93.646 18.706C93.1772 18.4247 92.8136 18.0312 92.555 17.5256C92.2994 17.0199 92.1715 16.429 92.1715 15.7528C92.1715 15.0767 92.2994 14.4844 92.555 13.9759C92.8136 13.4673 93.1772 13.0724 93.646 12.7912C94.1147 12.5099 94.6687 12.3693 95.3079 12.3693C95.9471 12.3693 96.5011 12.5099 96.9698 12.7912C97.4386 13.0724 97.8008 13.4673 98.0565 13.9759C98.315 14.4844 98.4442 15.0767 98.4442 15.7528C98.4442 16.429 98.315 17.0199 98.0565 17.5256C97.8008 18.0312 97.4386 18.4247 96.9698 18.706C96.5011 18.9872 95.9471 19.1278 95.3079 19.1278ZM95.3164 17.892C95.663 17.892 95.9528 17.7969 96.1857 17.6065C96.4187 17.4134 96.592 17.1548 96.7056 16.831C96.8221 16.5071 96.8803 16.1463 96.8803 15.7486C96.8803 15.348 96.8221 14.9858 96.7056 14.6619C96.592 14.3352 96.4187 14.0753 96.1857 13.8821C95.9528 13.6889 95.663 13.5923 95.3164 13.5923C94.9613 13.5923 94.6658 13.6889 94.43 13.8821C94.1971 14.0753 94.0224 14.3352 93.9059 14.6619C93.7923 14.9858 93.7354 15.348 93.7354 15.7486C93.7354 16.1463 93.7923 16.5071 93.9059 16.831C94.0224 17.1548 94.1971 17.4134 94.43 17.6065C94.6658 17.7969 94.9613 17.892 95.3164 17.892Z" fill="#2E2E2E"/>
</g>
<defs>
<filter id="filter0_d_1744_7457" x="0" y="0" width="112" height="32" filterUnits="userSpaceOnUse" color-interpolation-filters="sRGB">
<feFlood flood-opacity="0" result="BackgroundImageFix"/>
<feColorMatrix in="SourceAlpha" type="matrix" values="0 0 0 0 0 0 0 0 0 0 0 0 0 0 0 0 0 0 127 0" result="hardAlpha"/>
<feOffset dy="1"/>
<feGaussianBlur stdDeviation="1"/>
<feComposite in2="hardAlpha" operator="out"/>
<feColorMatrix type="matrix" values="0 0 0 0 0.0627451 0 0 0 0 0.0941176 0 0 0 0 0.156863 0 0 0 0.04 0"/>
<feBlend mode="normal" in2="BackgroundImageFix" result="effect1_dropShadow_1744_7457"/>
<feBlend mode="normal" in="SourceGraphic" in2="effect1_dropShadow_1744_7457" result="shape"/>
</filter>
</defs>
</svg>
