<svg width="116" height="40" viewBox="0 0 116 40" fill="none" xmlns="http://www.w3.org/2000/svg">
<g clip-path="url(#clip0_1610_8377)">
<rect width="116" height="40" rx="5" fill="#ECECF1"/>
<path d="M38.4425 18.0398C38.3326 17.6951 38.1849 17.3864 37.9993 17.1136C37.8175 16.8371 37.5997 16.6023 37.3459 16.4091C37.0921 16.2121 36.8023 16.0625 36.4766 15.9602C36.1546 15.858 35.8004 15.8068 35.4141 15.8068C34.7588 15.8068 34.1679 15.9754 33.6413 16.3125C33.1148 16.6496 32.6982 17.1439 32.3913 17.7955C32.0883 18.4432 31.9368 19.2367 31.9368 20.1761C31.9368 21.1193 32.0902 21.9167 32.397 22.5682C32.7038 23.2197 33.1243 23.714 33.6584 24.0511C34.1925 24.3883 34.8004 24.5568 35.4822 24.5568C36.1148 24.5568 36.666 24.428 37.1357 24.1705C37.6091 23.9129 37.9747 23.5492 38.2322 23.0795C38.4936 22.6061 38.6243 22.0492 38.6243 21.4091L39.0788 21.4943H35.7493V20.0455H40.3232V21.3693C40.3232 22.3466 40.1148 23.1951 39.6982 23.9148C39.2853 24.6307 38.7133 25.1837 37.9822 25.5739C37.255 25.964 36.4216 26.1591 35.4822 26.1591C34.4292 26.1591 33.505 25.9167 32.7095 25.4318C31.9179 24.947 31.3004 24.2595 30.8572 23.3693C30.4141 22.4754 30.1925 21.4148 30.1925 20.1875C30.1925 19.2595 30.3213 18.4261 30.5788 17.6875C30.8364 16.9489 31.1982 16.322 31.6641 15.8068C32.1338 15.2879 32.6849 14.892 33.3175 14.6193C33.9538 14.3428 34.6489 14.2045 35.4027 14.2045C36.0315 14.2045 36.6167 14.2973 37.1584 14.483C37.7038 14.6686 38.1887 14.9318 38.6129 15.2727C39.041 15.6136 39.3951 16.0189 39.6754 16.4886C39.9557 16.9545 40.1451 17.4716 40.2436 18.0398H38.4425ZM46.0916 26.1761C45.2734 26.1761 44.5594 25.9886 43.9496 25.6136C43.3397 25.2386 42.8662 24.714 42.5291 24.0398C42.192 23.3655 42.0234 22.5777 42.0234 21.6761C42.0234 20.7708 42.192 19.9792 42.5291 19.3011C42.8662 18.6231 43.3397 18.0966 43.9496 17.7216C44.5594 17.3466 45.2734 17.1591 46.0916 17.1591C46.9098 17.1591 47.6238 17.3466 48.2337 17.7216C48.8435 18.0966 49.317 18.6231 49.6541 19.3011C49.9912 19.9792 50.1598 20.7708 50.1598 21.6761C50.1598 22.5777 49.9912 23.3655 49.6541 24.0398C49.317 24.714 48.8435 25.2386 48.2337 25.6136C47.6238 25.9886 46.9098 26.1761 46.0916 26.1761ZM46.0973 24.75C46.6276 24.75 47.067 24.6098 47.4155 24.3295C47.764 24.0492 48.0215 23.6761 48.1882 23.2102C48.3587 22.7443 48.4439 22.2311 48.4439 21.6705C48.4439 21.1136 48.3587 20.6023 48.1882 20.1364C48.0215 19.6667 47.764 19.2898 47.4155 19.0057C47.067 18.7216 46.6276 18.5795 46.0973 18.5795C45.5632 18.5795 45.12 18.7216 44.7678 19.0057C44.4193 19.2898 44.1598 19.6667 43.9893 20.1364C43.8227 20.6023 43.7393 21.1136 43.7393 21.6705C43.7393 22.2311 43.8227 22.7443 43.9893 23.2102C44.1598 23.6761 44.4193 24.0492 44.7678 24.3295C45.12 24.6098 45.5632 24.75 46.0973 24.75ZM56.4268 26V14.3636H60.6882C61.514 14.3636 62.1977 14.5 62.7393 14.7727C63.281 15.0417 63.6863 15.4072 63.9553 15.8693C64.2242 16.3277 64.3587 16.8447 64.3587 17.4205C64.3587 17.9053 64.2697 18.3144 64.0916 18.6477C63.9136 18.9773 63.675 19.2424 63.3757 19.4432C63.0803 19.6402 62.7545 19.7841 62.3984 19.875V19.9886C62.7848 20.0076 63.1617 20.1326 63.5291 20.3636C63.9003 20.5909 64.2071 20.9148 64.4496 21.3352C64.692 21.7557 64.8132 22.267 64.8132 22.8693C64.8132 23.464 64.6731 23.9981 64.3928 24.4716C64.1162 24.9413 63.6882 25.3144 63.1087 25.5909C62.5291 25.8636 61.7886 26 60.8871 26H56.4268ZM58.1825 24.4943H60.7166C61.5575 24.4943 62.1598 24.3314 62.5234 24.0057C62.8871 23.6799 63.0689 23.2727 63.0689 22.7841C63.0689 22.4167 62.9761 22.0795 62.7905 21.7727C62.6049 21.4659 62.3397 21.2216 61.995 21.0398C61.6541 20.858 61.2488 20.767 60.7791 20.767H58.1825V24.4943ZM58.1825 19.3977H60.5348C60.9287 19.3977 61.2829 19.322 61.5973 19.1705C61.9155 19.0189 62.1674 18.8068 62.353 18.5341C62.5424 18.2576 62.6371 17.9318 62.6371 17.5568C62.6371 17.0758 62.4685 16.6723 62.1314 16.3466C61.7943 16.0208 61.2772 15.858 60.5803 15.858H58.1825V19.3977ZM69.299 26.1932C68.746 26.1932 68.246 26.0909 67.799 25.8864C67.352 25.678 66.9979 25.3769 66.7365 24.983C66.4789 24.589 66.3501 24.1061 66.3501 23.5341C66.3501 23.0417 66.4448 22.6364 66.6342 22.3182C66.8236 22 67.0793 21.7481 67.4013 21.5625C67.7232 21.3769 68.0831 21.2367 68.4808 21.142C68.8786 21.0473 69.2839 20.9754 69.6967 20.9261C70.2195 20.8655 70.6437 20.8163 70.9695 20.7784C71.2952 20.7367 71.532 20.6705 71.6797 20.5795C71.8274 20.4886 71.9013 20.3409 71.9013 20.1364V20.0966C71.9013 19.6004 71.7611 19.2159 71.4808 18.9432C71.2043 18.6705 70.7914 18.5341 70.2422 18.5341C69.6702 18.5341 69.2195 18.661 68.8899 18.9148C68.5642 19.1648 68.3388 19.4432 68.2138 19.75L66.6172 19.3864C66.8066 18.8561 67.0831 18.428 67.4467 18.1023C67.8142 17.7727 68.2365 17.5341 68.7138 17.3864C69.1911 17.2348 69.6929 17.1591 70.2195 17.1591C70.5679 17.1591 70.9373 17.2008 71.3274 17.2841C71.7214 17.3636 72.0888 17.5114 72.4297 17.7273C72.7744 17.9432 73.0566 18.2519 73.2763 18.6534C73.496 19.0511 73.6058 19.5682 73.6058 20.2045V26H71.9467V24.8068H71.8786C71.7687 25.0265 71.6039 25.2424 71.3842 25.4545C71.1645 25.6667 70.8823 25.8428 70.5376 25.983C70.1929 26.1231 69.7801 26.1932 69.299 26.1932ZM69.6683 24.8295C70.138 24.8295 70.5395 24.7367 70.8729 24.5511C71.21 24.3655 71.4657 24.1231 71.6399 23.8239C71.8179 23.5208 71.907 23.197 71.907 22.8523V21.7273C71.8464 21.7879 71.7289 21.8447 71.5547 21.8977C71.3842 21.947 71.1892 21.9905 70.9695 22.0284C70.7498 22.0625 70.5357 22.0947 70.3274 22.125C70.1191 22.1515 69.9448 22.1742 69.8047 22.1932C69.4751 22.2348 69.174 22.3049 68.9013 22.4034C68.6323 22.5019 68.4164 22.6439 68.2536 22.8295C68.0945 23.0114 68.0149 23.2538 68.0149 23.5568C68.0149 23.9773 68.1702 24.2955 68.4808 24.5114C68.7914 24.7235 69.1873 24.8295 69.6683 24.8295ZM79.5447 26.1761C78.7 26.1761 77.9728 25.9848 77.3629 25.6023C76.7569 25.2159 76.291 24.6837 75.9652 24.0057C75.6394 23.3277 75.4766 22.5511 75.4766 21.6761C75.4766 20.7898 75.6432 20.0076 75.9766 19.3295C76.3099 18.6477 76.7796 18.1155 77.3857 17.733C77.9917 17.3504 78.7057 17.1591 79.5277 17.1591C80.1906 17.1591 80.7815 17.2822 81.3004 17.5284C81.8194 17.7708 82.2379 18.1117 82.5561 18.5511C82.8781 18.9905 83.0694 19.5038 83.13 20.0909H81.4766C81.3857 19.6818 81.1773 19.3295 80.8516 19.0341C80.5296 18.7386 80.0978 18.5909 79.5561 18.5909C79.0826 18.5909 78.6679 18.7159 78.3118 18.9659C77.9595 19.2121 77.6849 19.5644 77.4879 20.0227C77.291 20.4773 77.1925 21.0152 77.1925 21.6364C77.1925 22.2727 77.2891 22.822 77.4822 23.2841C77.6754 23.7462 77.9482 24.1042 78.3004 24.358C78.6565 24.6117 79.075 24.7386 79.5561 24.7386C79.8781 24.7386 80.1697 24.6799 80.4311 24.5625C80.6963 24.4413 80.9179 24.2689 81.0959 24.0455C81.2777 23.822 81.4046 23.553 81.4766 23.2386H83.13C83.0694 23.803 82.8857 24.3068 82.5788 24.75C82.272 25.1932 81.861 25.5417 81.3459 25.7955C80.8345 26.0492 80.2341 26.1761 79.5447 26.1761ZM86.5092 23.0398L86.4979 20.9659H86.7933L90.2706 17.2727H92.3047L88.3388 21.4773H88.0717L86.5092 23.0398ZM84.9467 26V14.3636H86.6456V26H84.9467ZM90.4581 26L87.3331 21.8523L88.5036 20.6648L92.5433 26H90.4581Z" fill="#2E2E2E"/>
<path d="M20.25 24.5L15.75 20L20.25 15.5" stroke="#2E2E2E" stroke-width="2" stroke-linecap="round" stroke-linejoin="round"/>
</g>
<defs>
<clipPath id="clip0_1610_8377">
<rect width="116" height="40" rx="5" fill="white"/>
</clipPath>
</defs>
</svg>
