<svg width="92" height="40" viewBox="0 0 92 40" fill="none" xmlns="http://www.w3.org/2000/svg">
<g clip-path="url(#clip0_1610_8537)">
<rect width="92" height="40" rx="5" fill="#00B840"/>
<path d="M38.7173 14.3636V26H37.1037L31.1889 17.4659H31.081V26H29.3253V14.3636H30.9503L36.8707 22.9091H36.9787V14.3636H38.7173ZM44.9034 26.1761C44.0436 26.1761 43.303 25.9924 42.6818 25.625C42.0644 25.2538 41.5871 24.733 41.25 24.0625C40.9167 23.3883 40.75 22.5985 40.75 21.6932C40.75 20.7992 40.9167 20.0114 41.25 19.3295C41.5871 18.6477 42.0568 18.1155 42.6591 17.733C43.2652 17.3504 43.9735 17.1591 44.7841 17.1591C45.2765 17.1591 45.7538 17.2405 46.2159 17.4034C46.678 17.5663 47.0928 17.822 47.4602 18.1705C47.8277 18.5189 48.1174 18.9716 48.3295 19.5284C48.5417 20.0814 48.6477 20.7538 48.6477 21.5455V22.1477H41.7102V20.875H46.983C46.983 20.428 46.892 20.0322 46.7102 19.6875C46.5284 19.339 46.2727 19.0644 45.9432 18.8636C45.6174 18.6629 45.2348 18.5625 44.7955 18.5625C44.3182 18.5625 43.9015 18.6799 43.5455 18.9148C43.1932 19.1458 42.9205 19.4489 42.7273 19.8239C42.5379 20.1951 42.4432 20.5985 42.4432 21.0341V22.0284C42.4432 22.6117 42.5455 23.108 42.75 23.517C42.9583 23.9261 43.2481 24.2386 43.6193 24.4545C43.9905 24.6667 44.4242 24.7727 44.9205 24.7727C45.2424 24.7727 45.536 24.7273 45.8011 24.6364C46.0663 24.5417 46.2955 24.4015 46.4886 24.2159C46.6818 24.0303 46.8295 23.8011 46.9318 23.5284L48.5398 23.8182C48.411 24.2917 48.1799 24.7064 47.8466 25.0625C47.517 25.4148 47.1023 25.6894 46.6023 25.8864C46.1061 26.0795 45.5398 26.1761 44.9034 26.1761ZM51.6705 17.2727L53.5966 20.6705L55.5398 17.2727H57.3977L54.6761 21.6364L57.4205 26H55.5625L53.5966 22.7386L51.6364 26H49.7727L52.4886 21.6364L49.8068 17.2727H51.6705ZM63.2159 17.2727V18.6364H58.4489V17.2727H63.2159ZM59.7273 15.1818H61.4261V23.4375C61.4261 23.767 61.4754 24.0152 61.5739 24.1818C61.6723 24.3447 61.7992 24.4564 61.9545 24.517C62.1136 24.5739 62.286 24.6023 62.4716 24.6023C62.608 24.6023 62.7273 24.5928 62.8295 24.5739C62.9318 24.5549 63.0114 24.5398 63.0682 24.5284L63.375 25.9318C63.2765 25.9697 63.1364 26.0076 62.9545 26.0455C62.7727 26.0871 62.5455 26.1098 62.2727 26.1136C61.8258 26.1212 61.4091 26.0417 61.0227 25.875C60.6364 25.7083 60.3239 25.4508 60.0852 25.1023C59.8466 24.7538 59.7273 24.3163 59.7273 23.7898V15.1818Z" fill="white"/>
</g>
<defs>
<clipPath id="clip0_1610_8537">
<rect width="92" height="40" rx="5" fill="white"/>
</clipPath>
</defs>
</svg>
