<svg width="140" height="40" viewBox="0 0 140 40" fill="none" xmlns="http://www.w3.org/2000/svg">
<g clip-path="url(#clip0_1610_8471)">
<rect width="140" height="40" rx="5" fill="#ECECF1"/>
<path d="M35.1612 26V14.3636H39.3089C40.2105 14.3636 40.9586 14.5189 41.5533 14.8295C42.1518 15.1402 42.5987 15.5701 42.8942 16.1193C43.1896 16.6648 43.3374 17.2955 43.3374 18.0114C43.3374 18.7235 43.1877 19.3504 42.8885 19.892C42.593 20.4299 42.1461 20.8485 41.5476 21.1477C40.9529 21.447 40.2048 21.5966 39.3033 21.5966H36.1612V20.0852H39.1442C39.7124 20.0852 40.1745 20.0038 40.5305 19.8409C40.8904 19.678 41.1536 19.4413 41.3203 19.1307C41.487 18.8201 41.5703 18.447 41.5703 18.0114C41.5703 17.572 41.4851 17.1913 41.3146 16.8693C41.148 16.5473 40.8847 16.3011 40.5249 16.1307C40.1688 15.9564 39.701 15.8693 39.1214 15.8693H36.9169V26H35.1612ZM40.9055 20.75L43.7805 26H41.7805L38.9624 20.75H40.9055ZM48.9893 26.1761C48.1295 26.1761 47.389 25.9924 46.7678 25.625C46.1503 25.2538 45.6731 24.733 45.3359 24.0625C45.0026 23.3883 44.8359 22.5985 44.8359 21.6932C44.8359 20.7992 45.0026 20.0114 45.3359 19.3295C45.6731 18.6477 46.1428 18.1155 46.745 17.733C47.3511 17.3504 48.0594 17.1591 48.87 17.1591C49.3625 17.1591 49.8397 17.2405 50.3018 17.4034C50.764 17.5663 51.1787 17.822 51.5462 18.1705C51.9136 18.5189 52.2034 18.9716 52.4155 19.5284C52.6276 20.0814 52.7337 20.7538 52.7337 21.5455V22.1477H45.7962V20.875H51.0689C51.0689 20.428 50.978 20.0322 50.7962 19.6875C50.6143 19.339 50.3587 19.0644 50.0291 18.8636C49.7034 18.6629 49.3208 18.5625 48.8814 18.5625C48.4041 18.5625 47.9875 18.6799 47.6314 18.9148C47.2791 19.1458 47.0064 19.4489 46.8132 19.8239C46.6238 20.1951 46.5291 20.5985 46.5291 21.0341V22.0284C46.5291 22.6117 46.6314 23.108 46.8359 23.517C47.0443 23.9261 47.334 24.2386 47.7053 24.4545C48.0765 24.6667 48.5102 24.7727 49.0064 24.7727C49.3284 24.7727 49.6219 24.7273 49.8871 24.6364C50.1522 24.5417 50.3814 24.4015 50.5746 24.2159C50.7678 24.0303 50.9155 23.8011 51.0178 23.5284L52.6257 23.8182C52.4969 24.2917 52.2659 24.7064 51.9325 25.0625C51.603 25.4148 51.1882 25.6894 50.6882 25.8864C50.192 26.0795 49.6257 26.1761 48.9893 26.1761ZM58.2777 29.4545C57.5845 29.4545 56.9879 29.3636 56.4879 29.1818C55.9917 29 55.5864 28.7595 55.272 28.4602C54.9576 28.161 54.7228 27.8333 54.5675 27.4773L56.0277 26.875C56.13 27.0417 56.2663 27.2178 56.4368 27.4034C56.611 27.5928 56.8459 27.7538 57.1413 27.8864C57.4406 28.0189 57.825 28.0852 58.2947 28.0852C58.9387 28.0852 59.4709 27.928 59.8913 27.6136C60.3118 27.303 60.522 26.8068 60.522 26.125V24.4091H60.4141C60.3118 24.5947 60.1641 24.8011 59.9709 25.0284C59.7815 25.2557 59.5201 25.4527 59.1868 25.6193C58.8535 25.786 58.4197 25.8693 57.8857 25.8693C57.1963 25.8693 56.575 25.7083 56.022 25.3864C55.4728 25.0606 55.0372 24.5814 54.7152 23.9489C54.397 23.3125 54.2379 22.5303 54.2379 21.6023C54.2379 20.6742 54.3951 19.8788 54.7095 19.2159C55.0277 18.553 55.4633 18.0455 56.0163 17.6932C56.5694 17.3371 57.1963 17.1591 57.897 17.1591C58.4387 17.1591 58.8762 17.25 59.2095 17.4318C59.5429 17.6098 59.8023 17.8182 59.9879 18.0568C60.1773 18.2955 60.3232 18.5057 60.4254 18.6875H60.5504V17.2727H62.2152V26.1932C62.2152 26.9432 62.041 27.5587 61.6925 28.0398C61.344 28.5208 60.8724 28.8769 60.2777 29.108C59.6868 29.339 59.0201 29.4545 58.2777 29.4545ZM58.2607 24.4602C58.7493 24.4602 59.1622 24.3466 59.4993 24.1193C59.8402 23.8883 60.0978 23.5587 60.272 23.1307C60.45 22.6989 60.5391 22.1818 60.5391 21.5795C60.5391 20.9924 60.4519 20.4754 60.2777 20.0284C60.1035 19.5814 59.8478 19.233 59.5107 18.983C59.1735 18.7292 58.7569 18.6023 58.2607 18.6023C57.7493 18.6023 57.3232 18.7348 56.9822 19C56.6413 19.2614 56.3838 19.6174 56.2095 20.0682C56.0391 20.5189 55.9538 21.0227 55.9538 21.5795C55.9538 22.1515 56.041 22.6534 56.2152 23.0852C56.3894 23.517 56.647 23.8542 56.9879 24.0966C57.3326 24.339 57.7569 24.4602 58.2607 24.4602ZM68.255 26.1761C67.3951 26.1761 66.6546 25.9924 66.0334 25.625C65.416 25.2538 64.9387 24.733 64.6016 24.0625C64.2682 23.3883 64.1016 22.5985 64.1016 21.6932C64.1016 20.7992 64.2682 20.0114 64.6016 19.3295C64.9387 18.6477 65.4084 18.1155 66.0107 17.733C66.6167 17.3504 67.325 17.1591 68.1357 17.1591C68.6281 17.1591 69.1054 17.2405 69.5675 17.4034C70.0296 17.5663 70.4444 17.822 70.8118 18.1705C71.1792 18.5189 71.469 18.9716 71.6811 19.5284C71.8932 20.0814 71.9993 20.7538 71.9993 21.5455V22.1477H65.0618V20.875H70.3345C70.3345 20.428 70.2436 20.0322 70.0618 19.6875C69.88 19.339 69.6243 19.0644 69.2947 18.8636C68.969 18.6629 68.5864 18.5625 68.147 18.5625C67.6697 18.5625 67.2531 18.6799 66.897 18.9148C66.5447 19.1458 66.272 19.4489 66.0788 19.8239C65.8894 20.1951 65.7947 20.5985 65.7947 21.0341V22.0284C65.7947 22.6117 65.897 23.108 66.1016 23.517C66.3099 23.9261 66.5997 24.2386 66.9709 24.4545C67.3421 24.6667 67.7758 24.7727 68.272 24.7727C68.594 24.7727 68.8875 24.7273 69.1527 24.6364C69.4179 24.5417 69.647 24.4015 69.8402 24.2159C70.0334 24.0303 70.1811 23.8011 70.2834 23.5284L71.8913 23.8182C71.7625 24.2917 71.5315 24.7064 71.1982 25.0625C70.8686 25.4148 70.4538 25.6894 69.9538 25.8864C69.4576 26.0795 68.8913 26.1761 68.255 26.1761ZM75.5831 20.8182V26H73.8842V17.2727H75.5149V18.6932H75.6229C75.8236 18.2311 76.138 17.8598 76.5661 17.5795C76.9979 17.2992 77.5414 17.1591 78.1967 17.1591C78.7914 17.1591 79.3123 17.2841 79.7592 17.5341C80.2062 17.7803 80.5528 18.1477 80.799 18.6364C81.0452 19.125 81.1683 19.7292 81.1683 20.4489V26H79.4695V20.6534C79.4695 20.0208 79.3047 19.5265 78.9751 19.1705C78.6456 18.8106 78.1929 18.6307 77.6172 18.6307C77.2232 18.6307 76.8729 18.7159 76.5661 18.8864C76.263 19.0568 76.0225 19.3068 75.8445 19.6364C75.6702 19.9621 75.5831 20.3561 75.5831 20.8182ZM87.2081 26.1761C86.3482 26.1761 85.6077 25.9924 84.9865 25.625C84.3691 25.2538 83.8918 24.733 83.5547 24.0625C83.2214 23.3883 83.0547 22.5985 83.0547 21.6932C83.0547 20.7992 83.2214 20.0114 83.5547 19.3295C83.8918 18.6477 84.3615 18.1155 84.9638 17.733C85.5698 17.3504 86.2782 17.1591 87.0888 17.1591C87.5812 17.1591 88.0585 17.2405 88.5206 17.4034C88.9827 17.5663 89.3975 17.822 89.7649 18.1705C90.1323 18.5189 90.4221 18.9716 90.6342 19.5284C90.8464 20.0814 90.9524 20.7538 90.9524 21.5455V22.1477H84.0149V20.875H89.2876C89.2876 20.428 89.1967 20.0322 89.0149 19.6875C88.8331 19.339 88.5774 19.0644 88.2479 18.8636C87.9221 18.6629 87.5395 18.5625 87.1001 18.5625C86.6229 18.5625 86.2062 18.6799 85.8501 18.9148C85.4979 19.1458 85.2251 19.4489 85.032 19.8239C84.8426 20.1951 84.7479 20.5985 84.7479 21.0341V22.0284C84.7479 22.6117 84.8501 23.108 85.0547 23.517C85.263 23.9261 85.5528 24.2386 85.924 24.4545C86.2952 24.6667 86.7289 24.7727 87.2251 24.7727C87.5471 24.7727 87.8407 24.7273 88.1058 24.6364C88.371 24.5417 88.6001 24.4015 88.7933 24.2159C88.9865 24.0303 89.1342 23.8011 89.2365 23.5284L90.8445 23.8182C90.7157 24.2917 90.4846 24.7064 90.1513 25.0625C89.8217 25.4148 89.407 25.6894 88.907 25.8864C88.4107 26.0795 87.8445 26.1761 87.2081 26.1761ZM92.8374 26V17.2727H94.4794V18.6591H94.5703C94.7294 18.1894 95.0097 17.8201 95.4112 17.5511C95.8165 17.2784 96.2749 17.142 96.7862 17.142C96.8923 17.142 97.0173 17.1458 97.1612 17.1534C97.3089 17.161 97.4245 17.1705 97.5078 17.1818V18.8068C97.4396 18.7879 97.3184 18.767 97.1442 18.7443C96.9699 18.7178 96.7957 18.7045 96.6214 18.7045C96.2199 18.7045 95.862 18.7898 95.5476 18.9602C95.237 19.1269 94.9908 19.3598 94.8089 19.6591C94.6271 19.9545 94.5362 20.2917 94.5362 20.6705V26H92.8374ZM101.44 26.1932C100.887 26.1932 100.387 26.0909 99.9396 25.8864C99.4927 25.678 99.1385 25.3769 98.8771 24.983C98.6196 24.589 98.4908 24.1061 98.4908 23.5341C98.4908 23.0417 98.5855 22.6364 98.7749 22.3182C98.9643 22 99.2199 21.7481 99.5419 21.5625C99.8639 21.3769 100.224 21.2367 100.621 21.142C101.019 21.0473 101.424 20.9754 101.837 20.9261C102.36 20.8655 102.784 20.8163 103.11 20.7784C103.436 20.7367 103.673 20.6705 103.82 20.5795C103.968 20.4886 104.042 20.3409 104.042 20.1364V20.0966C104.042 19.6004 103.902 19.2159 103.621 18.9432C103.345 18.6705 102.932 18.5341 102.383 18.5341C101.811 18.5341 101.36 18.661 101.031 18.9148C100.705 19.1648 100.479 19.4432 100.354 19.75L98.7578 19.3864C98.9472 18.8561 99.2237 18.428 99.5874 18.1023C99.9548 17.7727 100.377 17.5341 100.854 17.3864C101.332 17.2348 101.834 17.1591 102.36 17.1591C102.709 17.1591 103.078 17.2008 103.468 17.2841C103.862 17.3636 104.229 17.5114 104.57 17.7273C104.915 17.9432 105.197 18.2519 105.417 18.6534C105.637 19.0511 105.746 19.5682 105.746 20.2045V26H104.087V24.8068H104.019C103.909 25.0265 103.745 25.2424 103.525 25.4545C103.305 25.6667 103.023 25.8428 102.678 25.983C102.334 26.1231 101.921 26.1932 101.44 26.1932ZM101.809 24.8295C102.279 24.8295 102.68 24.7367 103.013 24.5511C103.351 24.3655 103.606 24.1231 103.781 23.8239C103.959 23.5208 104.048 23.197 104.048 22.8523V21.7273C103.987 21.7879 103.87 21.8447 103.695 21.8977C103.525 21.947 103.33 21.9905 103.11 22.0284C102.89 22.0625 102.676 22.0947 102.468 22.125C102.26 22.1515 102.085 22.1742 101.945 22.1932C101.616 22.2348 101.315 22.3049 101.042 22.4034C100.773 22.5019 100.557 22.6439 100.394 22.8295C100.235 23.0114 100.156 23.2538 100.156 23.5568C100.156 23.9773 100.311 24.2955 100.621 24.5114C100.932 24.7235 101.328 24.8295 101.809 24.8295ZM112.083 17.2727V18.6364H107.316V17.2727H112.083ZM108.594 15.1818H110.293V23.4375C110.293 23.767 110.343 24.0152 110.441 24.1818C110.54 24.3447 110.666 24.4564 110.822 24.517C110.981 24.5739 111.153 24.6023 111.339 24.6023C111.475 24.6023 111.594 24.5928 111.697 24.5739C111.799 24.5549 111.879 24.5398 111.935 24.5284L112.242 25.9318C112.144 25.9697 112.004 26.0076 111.822 26.0455C111.64 26.0871 111.413 26.1098 111.14 26.1136C110.693 26.1212 110.276 26.0417 109.89 25.875C109.504 25.7083 109.191 25.4508 108.952 25.1023C108.714 24.7538 108.594 24.3163 108.594 23.7898V15.1818ZM117.63 26.1761C116.77 26.1761 116.03 25.9924 115.408 25.625C114.791 25.2538 114.314 24.733 113.977 24.0625C113.643 23.3883 113.477 22.5985 113.477 21.6932C113.477 20.7992 113.643 20.0114 113.977 19.3295C114.314 18.6477 114.783 18.1155 115.386 17.733C115.992 17.3504 116.7 17.1591 117.511 17.1591C118.003 17.1591 118.48 17.2405 118.942 17.4034C119.405 17.5663 119.819 17.822 120.187 18.1705C120.554 18.5189 120.844 18.9716 121.056 19.5284C121.268 20.0814 121.374 20.7538 121.374 21.5455V22.1477H114.437V20.875H119.71C119.71 20.428 119.619 20.0322 119.437 19.6875C119.255 19.339 118.999 19.0644 118.67 18.8636C118.344 18.6629 117.961 18.5625 117.522 18.5625C117.045 18.5625 116.628 18.6799 116.272 18.9148C115.92 19.1458 115.647 19.4489 115.454 19.8239C115.264 20.1951 115.17 20.5985 115.17 21.0341V22.0284C115.17 22.6117 115.272 23.108 115.477 23.517C115.685 23.9261 115.975 24.2386 116.346 24.4545C116.717 24.6667 117.151 24.7727 117.647 24.7727C117.969 24.7727 118.263 24.7273 118.528 24.6364C118.793 24.5417 119.022 24.4015 119.215 24.2159C119.408 24.0303 119.556 23.8011 119.658 23.5284L121.266 23.8182C121.138 24.2917 120.906 24.7064 120.573 25.0625C120.244 25.4148 119.829 25.6894 119.329 25.8864C118.833 26.0795 118.266 26.1761 117.63 26.1761Z" fill="#2E2E2E"/>
<path d="M14.1459 23.5267C14.9951 24.6956 16.2377 25.5188 17.6452 25.8451C19.0527 26.1713 20.5307 25.9787 21.8076 25.3026C23.0845 24.6265 24.0745 23.5124 24.5958 22.1649C25.1171 20.8174 25.1347 19.327 24.6453 17.9676C24.1559 16.6082 23.1923 15.471 21.9317 14.765C20.6711 14.0591 19.1981 13.8317 17.7833 14.1247C16.3685 14.4177 15.1069 15.2114 14.2303 16.3599C13.3538 17.5085 12.9211 18.9348 13.0118 20.3768M13.0118 20.3768L11.8868 19.2518M13.0118 20.3768L14.1368 19.2518" stroke="#2E2E2E" stroke-width="2" stroke-linecap="round" stroke-linejoin="round"/>
</g>
<defs>
<clipPath id="clip0_1610_8471">
<rect width="140" height="40" rx="5" fill="white"/>
</clipPath>
</defs>
</svg>
