<svg width="116" height="40" viewBox="0 0 116 40" fill="none" xmlns="http://www.w3.org/2000/svg">
<g clip-path="url(#clip0_1610_8383)">
<rect width="116" height="40" rx="5" fill="#ECECF1"/>
<path d="M21.6797 17.4205C21.6191 16.8826 21.3691 16.4659 20.9297 16.1705C20.4903 15.8712 19.9373 15.7216 19.2706 15.7216C18.7933 15.7216 18.3804 15.7973 18.032 15.9489C17.6835 16.0966 17.4126 16.3011 17.2195 16.5625C17.0301 16.8201 16.9354 17.1136 16.9354 17.4432C16.9354 17.7197 16.9998 17.9583 17.1286 18.1591C17.2611 18.3598 17.4335 18.5284 17.6456 18.6648C17.8615 18.7973 18.0926 18.9091 18.3388 19C18.585 19.0871 18.8217 19.1591 19.049 19.2159L20.1854 19.5114C20.5566 19.6023 20.9373 19.7254 21.3274 19.8807C21.7176 20.036 22.0793 20.2405 22.4126 20.4943C22.746 20.7481 23.0149 21.0625 23.2195 21.4375C23.4278 21.8125 23.532 22.2614 23.532 22.7841C23.532 23.4432 23.3615 24.0284 23.0206 24.5398C22.6835 25.0511 22.1929 25.4545 21.549 25.75C20.9089 26.0455 20.1342 26.1932 19.2251 26.1932C18.3539 26.1932 17.6001 26.0549 16.9638 25.7784C16.3274 25.5019 15.8293 25.1098 15.4695 24.6023C15.1096 24.0909 14.9107 23.4848 14.8729 22.7841H16.6342C16.6683 23.2045 16.8047 23.5549 17.0433 23.8352C17.2857 24.1117 17.5945 24.3182 17.9695 24.4545C18.3482 24.5871 18.763 24.6534 19.2138 24.6534C19.71 24.6534 20.1513 24.5758 20.5376 24.4205C20.9278 24.2614 21.2346 24.0417 21.4581 23.7614C21.6816 23.4773 21.7933 23.1458 21.7933 22.767C21.7933 22.4223 21.6948 22.1402 21.4979 21.9205C21.3047 21.7008 21.0414 21.5189 20.7081 21.375C20.3786 21.2311 20.0054 21.1042 19.5888 20.9943L18.2138 20.6193C17.282 20.3655 16.5433 19.9924 15.9979 19.5C15.4562 19.0076 15.1854 18.3561 15.1854 17.5455C15.1854 16.875 15.3672 16.2898 15.7308 15.7898C16.0945 15.2898 16.5869 14.9015 17.2081 14.625C17.8293 14.3447 18.5301 14.2045 19.3104 14.2045C20.0982 14.2045 20.7933 14.3428 21.3956 14.6193C22.0017 14.8958 22.4789 15.2765 22.8274 15.7614C23.1759 16.2424 23.3577 16.7955 23.3729 17.4205H21.6797ZM28.0334 26.1932C27.4804 26.1932 26.9804 26.0909 26.5334 25.8864C26.0864 25.678 25.7322 25.3769 25.4709 24.983C25.2133 24.589 25.0845 24.1061 25.0845 23.5341C25.0845 23.0417 25.1792 22.6364 25.3686 22.3182C25.558 22 25.8137 21.7481 26.1357 21.5625C26.4576 21.3769 26.8175 21.2367 27.2152 21.142C27.6129 21.0473 28.0182 20.9754 28.4311 20.9261C28.9538 20.8655 29.3781 20.8163 29.7038 20.7784C30.0296 20.7367 30.2663 20.6705 30.4141 20.5795C30.5618 20.4886 30.6357 20.3409 30.6357 20.1364V20.0966C30.6357 19.6004 30.4955 19.2159 30.2152 18.9432C29.9387 18.6705 29.5258 18.5341 28.9766 18.5341C28.4046 18.5341 27.9538 18.661 27.6243 18.9148C27.2985 19.1648 27.0732 19.4432 26.9482 19.75L25.3516 19.3864C25.541 18.8561 25.8175 18.428 26.1811 18.1023C26.5485 17.7727 26.9709 17.5341 27.4482 17.3864C27.9254 17.2348 28.4273 17.1591 28.9538 17.1591C29.3023 17.1591 29.6716 17.2008 30.0618 17.2841C30.4557 17.3636 30.8232 17.5114 31.1641 17.7273C31.5088 17.9432 31.791 18.2519 32.0107 18.6534C32.2304 19.0511 32.3402 19.5682 32.3402 20.2045V26H30.6811V24.8068H30.6129C30.5031 25.0265 30.3383 25.2424 30.1186 25.4545C29.8989 25.6667 29.6167 25.8428 29.272 25.983C28.9273 26.1231 28.5144 26.1932 28.0334 26.1932ZM28.4027 24.8295C28.8724 24.8295 29.2739 24.7367 29.6072 24.5511C29.9444 24.3655 30.2 24.1231 30.3743 23.8239C30.5523 23.5208 30.6413 23.197 30.6413 22.8523V21.7273C30.5807 21.7879 30.4633 21.8447 30.2891 21.8977C30.1186 21.947 29.9235 21.9905 29.7038 22.0284C29.4841 22.0625 29.2701 22.0947 29.0618 22.125C28.8535 22.1515 28.6792 22.1742 28.5391 22.1932C28.2095 22.2348 27.9084 22.3049 27.6357 22.4034C27.3667 22.5019 27.1508 22.6439 26.9879 22.8295C26.8288 23.0114 26.7493 23.2538 26.7493 23.5568C26.7493 23.9773 26.9046 24.2955 27.2152 24.5114C27.5258 24.7235 27.9216 24.8295 28.4027 24.8295ZM41.7564 17.2727L38.5916 26H36.7734L33.603 17.2727H35.4268L37.6371 23.9886H37.728L39.9325 17.2727H41.7564ZM46.8175 26.1761C45.9576 26.1761 45.2171 25.9924 44.5959 25.625C43.9785 25.2538 43.5012 24.733 43.1641 24.0625C42.8307 23.3883 42.6641 22.5985 42.6641 21.6932C42.6641 20.7992 42.8307 20.0114 43.1641 19.3295C43.5012 18.6477 43.9709 18.1155 44.5732 17.733C45.1792 17.3504 45.8875 17.1591 46.6982 17.1591C47.1906 17.1591 47.6679 17.2405 48.13 17.4034C48.5921 17.5663 49.0069 17.822 49.3743 18.1705C49.7417 18.5189 50.0315 18.9716 50.2436 19.5284C50.4557 20.0814 50.5618 20.7538 50.5618 21.5455V22.1477H43.6243V20.875H48.897C48.897 20.428 48.8061 20.0322 48.6243 19.6875C48.4425 19.339 48.1868 19.0644 47.8572 18.8636C47.5315 18.6629 47.1489 18.5625 46.7095 18.5625C46.2322 18.5625 45.8156 18.6799 45.4595 18.9148C45.1072 19.1458 44.8345 19.4489 44.6413 19.8239C44.4519 20.1951 44.3572 20.5985 44.3572 21.0341V22.0284C44.3572 22.6117 44.4595 23.108 44.6641 23.517C44.8724 23.9261 45.1622 24.2386 45.5334 24.4545C45.9046 24.6667 46.3383 24.7727 46.8345 24.7727C47.1565 24.7727 47.45 24.7273 47.7152 24.6364C47.9804 24.5417 48.2095 24.4015 48.4027 24.2159C48.5959 24.0303 48.7436 23.8011 48.8459 23.5284L50.4538 23.8182C50.325 24.2917 50.094 24.7064 49.7607 25.0625C49.4311 25.4148 49.0163 25.6894 48.5163 25.8864C48.0201 26.0795 47.4538 26.1761 46.8175 26.1761ZM60.0675 26.1648C59.2872 26.1648 58.6148 26.0227 58.0504 25.7386C57.4898 25.4545 57.058 25.0682 56.755 24.5795C56.4519 24.0871 56.3004 23.5303 56.3004 22.9091C56.3004 22.4356 56.3989 22.0152 56.5959 21.6477C56.7929 21.2765 57.0675 20.9337 57.4197 20.6193C57.772 20.3049 58.1792 19.9886 58.6413 19.6705L60.5163 18.3466C60.8345 18.1383 61.0826 17.9186 61.2607 17.6875C61.4387 17.4527 61.5277 17.1629 61.5277 16.8182C61.5277 16.5455 61.4103 16.2841 61.1754 16.0341C60.9406 15.7841 60.6262 15.6591 60.2322 15.6591C59.9595 15.6591 59.719 15.7254 59.5107 15.858C59.3061 15.9905 59.1451 16.161 59.0277 16.3693C58.9141 16.5739 58.8572 16.7898 58.8572 17.017C58.8572 17.2822 58.9292 17.5492 59.0732 17.8182C59.2209 18.0871 59.4103 18.3655 59.6413 18.6534C59.8724 18.9375 60.1148 19.233 60.3686 19.5398L65.772 26H63.8516L59.38 20.7443C59.005 20.3011 58.6565 19.8845 58.3345 19.4943C58.0125 19.1004 57.7512 18.7027 57.5504 18.3011C57.3535 17.8958 57.255 17.4583 57.255 16.9886C57.255 16.4545 57.3762 15.9811 57.6186 15.5682C57.8648 15.1515 58.2076 14.8258 58.647 14.5909C59.0864 14.3561 59.6016 14.2386 60.1925 14.2386C60.791 14.2386 61.3042 14.3561 61.7322 14.5909C62.1641 14.822 62.4955 15.1307 62.7266 15.517C62.9614 15.8996 63.0788 16.3182 63.0788 16.7727C63.0788 17.3258 62.9406 17.8144 62.6641 18.2386C62.3913 18.6591 62.0144 19.0455 61.5334 19.3977L59.1982 21.1193C58.7436 21.4527 58.4273 21.7822 58.2493 22.108C58.075 22.4299 57.9879 22.6818 57.9879 22.8636C57.9879 23.197 58.0732 23.5057 58.2436 23.7898C58.4179 24.0739 58.6603 24.3011 58.9709 24.4716C59.2853 24.642 59.6527 24.7273 60.0732 24.7273C60.505 24.7273 60.9254 24.6345 61.3345 24.4489C61.7474 24.2595 62.1205 23.9886 62.4538 23.6364C62.791 23.2841 63.058 22.8617 63.255 22.3693C63.4519 21.8769 63.5504 21.3258 63.5504 20.7159H65.0845C65.0845 21.4659 64.9993 22.1004 64.8288 22.6193C64.6584 23.1345 64.4519 23.5549 64.2095 23.8807C63.9709 24.2027 63.7455 24.4545 63.5334 24.6364C63.4652 24.697 63.4008 24.7576 63.3402 24.8182C63.2796 24.8788 63.2152 24.9394 63.147 25C62.7531 25.3977 62.2758 25.6913 61.7152 25.8807C61.1584 26.0701 60.6091 26.1648 60.0675 26.1648ZM75.7521 22.2273H77.4794L78.6953 23.8125L79.2692 24.517L81.2067 27.0455H79.4112L78.1158 25.358L77.6726 24.7443L75.7521 22.2273ZM81.5817 20.1818C81.5817 21.4242 81.3544 22.4924 80.8999 23.3864C80.4453 24.2765 79.8222 24.9621 79.0305 25.4432C78.2427 25.9205 77.3468 26.1591 76.343 26.1591C75.3355 26.1591 74.4358 25.9205 73.6442 25.4432C72.8563 24.9621 72.2351 24.2746 71.7805 23.3807C71.326 22.4867 71.0987 21.4205 71.0987 20.1818C71.0987 18.9394 71.326 17.8731 71.7805 16.983C72.2351 16.089 72.8563 15.4034 73.6442 14.9261C74.4358 14.4451 75.3355 14.2045 76.343 14.2045C77.3468 14.2045 78.2427 14.4451 79.0305 14.9261C79.8222 15.4034 80.4453 16.089 80.8999 16.983C81.3544 17.8731 81.5817 18.9394 81.5817 20.1818ZM79.843 20.1818C79.843 19.2348 79.6896 18.4375 79.3828 17.7898C79.0798 17.1383 78.6631 16.6458 78.1328 16.3125C77.6063 15.9754 77.0097 15.8068 76.343 15.8068C75.6726 15.8068 75.0741 15.9754 74.5476 16.3125C74.0211 16.6458 73.6044 17.1383 73.2976 17.7898C72.9946 18.4375 72.843 19.2348 72.843 20.1818C72.843 21.1288 72.9946 21.928 73.2976 22.5795C73.6044 23.2273 74.0211 23.7197 74.5476 24.0568C75.0741 24.3902 75.6726 24.5568 76.343 24.5568C77.0097 24.5568 77.6063 24.3902 78.1328 24.0568C78.6631 23.7197 79.0798 23.2273 79.3828 22.5795C79.6896 21.928 79.843 21.1288 79.843 20.1818ZM89.1626 22.3807V17.2727H90.8672V26H89.1967V24.4886H89.1058C88.9051 24.9545 88.5831 25.3428 88.1399 25.6534C87.7005 25.9602 87.1532 26.1136 86.4979 26.1136C85.9373 26.1136 85.4411 25.9905 85.0092 25.7443C84.5812 25.4943 84.2441 25.125 83.9979 24.6364C83.7554 24.1477 83.6342 23.5436 83.6342 22.8239V17.2727H85.3331V22.6193C85.3331 23.214 85.4979 23.6875 85.8274 24.0398C86.157 24.392 86.585 24.5682 87.1115 24.5682C87.4297 24.5682 87.746 24.4886 88.0604 24.3295C88.3786 24.1705 88.6418 23.9299 88.8501 23.608C89.0623 23.286 89.1664 22.8769 89.1626 22.3807ZM93.1499 26V17.2727H94.8487V26H93.1499ZM94.0078 15.9261C93.7124 15.9261 93.4586 15.8277 93.2464 15.6307C93.0381 15.4299 92.9339 15.1913 92.9339 14.9148C92.9339 14.6345 93.0381 14.3958 93.2464 14.1989C93.4586 13.9981 93.7124 13.8977 94.0078 13.8977C94.3033 13.8977 94.5552 13.9981 94.7635 14.1989C94.9756 14.3958 95.0817 14.6345 95.0817 14.9148C95.0817 15.1913 94.9756 15.4299 94.7635 15.6307C94.5552 15.8277 94.3033 15.9261 94.0078 15.9261ZM101.208 17.2727V18.6364H96.4411V17.2727H101.208ZM97.7195 15.1818H99.4183V23.4375C99.4183 23.767 99.4676 24.0152 99.5661 24.1818C99.6645 24.3447 99.7914 24.4564 99.9467 24.517C100.106 24.5739 100.278 24.6023 100.464 24.6023C100.6 24.6023 100.719 24.5928 100.822 24.5739C100.924 24.5549 101.004 24.5398 101.06 24.5284L101.367 25.9318C101.269 25.9697 101.129 26.0076 100.947 26.0455C100.765 26.0871 100.538 26.1098 100.265 26.1136C99.8179 26.1212 99.4013 26.0417 99.0149 25.875C98.6286 25.7083 98.3161 25.4508 98.0774 25.1023C97.8388 24.7538 97.7195 24.3163 97.7195 23.7898V15.1818Z" fill="#2E2E2E"/>
</g>
<defs>
<clipPath id="clip0_1610_8383">
<rect width="116" height="40" rx="5" fill="white"/>
</clipPath>
</defs>
</svg>
