<svg width="92" height="40" viewBox="0 0 92 40" fill="none" xmlns="http://www.w3.org/2000/svg">
<g clip-path="url(#clip0_1610_8449)">
<rect width="92" height="40" rx="5" fill="#00B840"/>
<path d="M26.6719 17.4205C26.6113 16.8826 26.3613 16.4659 25.9219 16.1705C25.4825 15.8712 24.9295 15.7216 24.2628 15.7216C23.7855 15.7216 23.3726 15.7973 23.0241 15.9489C22.6757 16.0966 22.4048 16.3011 22.2116 16.5625C22.0223 16.8201 21.9276 17.1136 21.9276 17.4432C21.9276 17.7197 21.992 17.9583 22.1207 18.1591C22.2533 18.3598 22.4257 18.5284 22.6378 18.6648C22.8537 18.7973 23.0848 18.9091 23.331 19C23.5772 19.0871 23.8139 19.1591 24.0412 19.2159L25.1776 19.5114C25.5488 19.6023 25.9295 19.7254 26.3196 19.8807C26.7098 20.036 27.0715 20.2405 27.4048 20.4943C27.7382 20.7481 28.0071 21.0625 28.2116 21.4375C28.42 21.8125 28.5241 22.2614 28.5241 22.7841C28.5241 23.4432 28.3537 24.0284 28.0128 24.5398C27.6757 25.0511 27.1851 25.4545 26.5412 25.75C25.901 26.0455 25.1264 26.1932 24.2173 26.1932C23.3461 26.1932 22.5923 26.0549 21.956 25.7784C21.3196 25.5019 20.8215 25.1098 20.4616 24.6023C20.1018 24.0909 19.9029 23.4848 19.8651 22.7841H21.6264C21.6605 23.2045 21.7969 23.5549 22.0355 23.8352C22.2779 24.1117 22.5866 24.3182 22.9616 24.4545C23.3404 24.5871 23.7552 24.6534 24.206 24.6534C24.7022 24.6534 25.1435 24.5758 25.5298 24.4205C25.92 24.2614 26.2268 24.0417 26.4503 23.7614C26.6738 23.4773 26.7855 23.1458 26.7855 22.767C26.7855 22.4223 26.687 22.1402 26.4901 21.9205C26.2969 21.7008 26.0336 21.5189 25.7003 21.375C25.3707 21.2311 24.9976 21.1042 24.581 20.9943L23.206 20.6193C22.2741 20.3655 21.5355 19.9924 20.9901 19.5C20.4484 19.0076 20.1776 18.3561 20.1776 17.5455C20.1776 16.875 20.3594 16.2898 20.723 15.7898C21.0866 15.2898 21.5791 14.9015 22.2003 14.625C22.8215 14.3447 23.5223 14.2045 24.3026 14.2045C25.0904 14.2045 25.7855 14.3428 26.3878 14.6193C26.9938 14.8958 27.4711 15.2765 27.8196 15.7614C28.1681 16.2424 28.3499 16.7955 28.3651 17.4205H26.6719ZM36.0142 22.3807V17.2727H37.7188V26H36.0483V24.4886H35.9574C35.7566 24.9545 35.4347 25.3428 34.9915 25.6534C34.5521 25.9602 34.0047 26.1136 33.3494 26.1136C32.7888 26.1136 32.2926 25.9905 31.8608 25.7443C31.4328 25.4943 31.0956 25.125 30.8494 24.6364C30.607 24.1477 30.4858 23.5436 30.4858 22.8239V17.2727H32.1847V22.6193C32.1847 23.214 32.3494 23.6875 32.679 24.0398C33.0085 24.392 33.4366 24.5682 33.9631 24.5682C34.2813 24.5682 34.5975 24.4886 34.9119 24.3295C35.2301 24.1705 35.4934 23.9299 35.7017 23.608C35.9138 23.286 36.018 22.8769 36.0142 22.3807ZM40.1378 26V14.3636H41.8366V18.6875H41.9389C42.0374 18.5057 42.1795 18.2955 42.3651 18.0568C42.5507 17.8182 42.8082 17.6098 43.1378 17.4318C43.4673 17.25 43.9029 17.1591 44.4446 17.1591C45.1491 17.1591 45.7779 17.3371 46.331 17.6932C46.884 18.0492 47.3177 18.5625 47.6321 19.233C47.9503 19.9034 48.1094 20.7102 48.1094 21.6534C48.1094 22.5966 47.9522 23.4053 47.6378 24.0795C47.3234 24.75 46.8916 25.267 46.3423 25.6307C45.7931 25.9905 45.1662 26.1705 44.4616 26.1705C43.9313 26.1705 43.4976 26.0814 43.1605 25.9034C42.8272 25.7254 42.5658 25.517 42.3764 25.2784C42.187 25.0398 42.0412 24.8277 41.9389 24.642H41.7969V26H40.1378ZM41.8026 21.6364C41.8026 22.25 41.8916 22.7879 42.0696 23.25C42.2476 23.7121 42.5052 24.0739 42.8423 24.3352C43.1795 24.5928 43.5923 24.7216 44.081 24.7216C44.5885 24.7216 45.0128 24.5871 45.3537 24.3182C45.6946 24.0455 45.9522 23.6761 46.1264 23.2102C46.3045 22.7443 46.3935 22.2197 46.3935 21.6364C46.3935 21.0606 46.3063 20.5436 46.1321 20.0852C45.9616 19.6269 45.7041 19.2652 45.3594 19C45.0185 18.7348 44.5923 18.6023 44.081 18.6023C43.5885 18.6023 43.1719 18.7292 42.831 18.983C42.4938 19.2367 42.2382 19.5909 42.0639 20.0455C41.8897 20.5 41.8026 21.0303 41.8026 21.6364ZM50.017 26V17.2727H51.6477V18.6932H51.7557C51.9375 18.2121 52.2348 17.8371 52.6477 17.5682C53.0606 17.2955 53.5549 17.1591 54.1307 17.1591C54.714 17.1591 55.2027 17.2955 55.5966 17.5682C55.9943 17.8409 56.2879 18.2159 56.4773 18.6932H56.5682C56.7765 18.2273 57.108 17.8561 57.5625 17.5795C58.017 17.2992 58.5587 17.1591 59.1875 17.1591C59.9792 17.1591 60.625 17.4072 61.125 17.9034C61.6288 18.3996 61.8807 19.1477 61.8807 20.1477V26H60.1818V20.3068C60.1818 19.7159 60.0208 19.2879 59.6989 19.0227C59.3769 18.7576 58.9924 18.625 58.5455 18.625C57.9924 18.625 57.5625 18.7955 57.2557 19.1364C56.9489 19.4735 56.7955 19.9072 56.7955 20.4375V26H55.1023V20.1989C55.1023 19.7254 54.9545 19.3447 54.6591 19.0568C54.3636 18.7689 53.9792 18.625 53.5057 18.625C53.1837 18.625 52.8864 18.7102 52.6136 18.8807C52.3447 19.0473 52.1269 19.2803 51.9602 19.5795C51.7973 19.8788 51.7159 20.2254 51.7159 20.6193V26H50.017ZM64.1577 26V17.2727H65.8565V26H64.1577ZM65.0156 15.9261C64.7202 15.9261 64.4664 15.8277 64.2543 15.6307C64.0459 15.4299 63.9418 15.1913 63.9418 14.9148C63.9418 14.6345 64.0459 14.3958 64.2543 14.1989C64.4664 13.9981 64.7202 13.8977 65.0156 13.8977C65.3111 13.8977 65.563 13.9981 65.7713 14.1989C65.9834 14.3958 66.0895 14.6345 66.0895 14.9148C66.0895 15.1913 65.9834 15.4299 65.7713 15.6307C65.563 15.8277 65.3111 15.9261 65.0156 15.9261ZM72.2159 17.2727V18.6364H67.4489V17.2727H72.2159ZM68.7273 15.1818H70.4261V23.4375C70.4261 23.767 70.4754 24.0152 70.5739 24.1818C70.6723 24.3447 70.7992 24.4564 70.9545 24.517C71.1136 24.5739 71.286 24.6023 71.4716 24.6023C71.608 24.6023 71.7273 24.5928 71.8295 24.5739C71.9318 24.5549 72.0114 24.5398 72.0682 24.5284L72.375 25.9318C72.2765 25.9697 72.1364 26.0076 71.9545 26.0455C71.7727 26.0871 71.5455 26.1098 71.2727 26.1136C70.8258 26.1212 70.4091 26.0417 70.0227 25.875C69.6364 25.7083 69.3239 25.4508 69.0852 25.1023C68.8466 24.7538 68.7273 24.3163 68.7273 23.7898V15.1818Z" fill="white"/>
</g>
<defs>
<clipPath id="clip0_1610_8449">
<rect width="92" height="40" rx="5" fill="white"/>
</clipPath>
</defs>
</svg>
