<svg xmlns="http://www.w3.org/2000/svg" viewBox="0 0 490.12 145.61"><defs><style>.cls-1{fill:#fdfdfd;}.cls-2{fill:#030303;}.cls-3{fill:#0b0b0b;}.cls-4{fill:#080808;}.cls-5{fill:#090909;}.cls-6{fill:#0e0e0e;}.cls-7{fill:#171717;}.cls-8{fill:#141414;}.cls-9{fill:#1b1b1b;}.cls-10{fill:#161616;}.cls-11{fill:#111;}.cls-12{fill:#f8f8f8;}.cls-13{fill:#f5f5f5;}</style></defs><title>Asset 3</title><g id="Layer_2" data-name="Layer 2"><g id="Layer_1-2" data-name="Layer 1"><path class="cls-1" d="M245.06,145.58q-121.62,0-243.23,0c-1.49,0-1.83-.33-1.83-1.83Q.08,72.8,0,1.83C0,.34.34,0,1.83,0Q245.05.06,488.29,0c1.49,0,1.83.34,1.83,1.83q-.06,71,0,142c0,1.5-.34,1.83-1.83,1.83Q366.67,145.55,245.06,145.58ZM46.69,72.79a32.89,32.89,0,0,0,0,5.16c1.84,11.84,6.09,22.59,14.21,31.65,5,5.63,9.59,6.78,16.45,3.77A20.41,20.41,0,0,1,87,111.3a24.25,24.25,0,0,1,7.6,2.16c6.81,2.84,11.4,1.69,16.35-3.83a52.55,52.55,0,0,0,9.51-15.76c1.28-3.16,1.31-3.15-1.62-4.92A20.08,20.08,0,0,1,110,66.17a21.29,21.29,0,0,1,7.56-10.72c1-.74,1.84-1.54.7-2.76a21.81,21.81,0,0,0-25.86-5.84,19.61,19.61,0,0,1-14.18.6c-1.38-.49-2.72-1.06-4.1-1.51a17,17,0,0,0-11.52.24C52.51,50,45.8,61.08,46.69,72.79Zm202.56,37.93a14.23,14.23,0,0,0,22.57-3,22.34,22.34,0,0,0,1.74-18.26C271,81.6,265.58,78.07,257.7,79c-3.83.46-6.71,2.54-9.08,5.44a2.14,2.14,0,0,1-.48-1.64c-.11-3.48-.19-3.56-3.68-3.41a5.51,5.51,0,0,1-1,0c-2.06-.37-2.44.63-2.38,2.47.44,13.68.38,27.37.14,41.05-.11,6.28.26,5.65,5.3,5.49,2.67-.08,2.72-.05,2.72-2.84Zm-40.15.35c.63-.13.76.24,1,.45a14,14,0,0,0,20.3-2,20.74,20.74,0,0,0,2.86-20.73c-4.52-11.72-16.34-13.68-24.69-4.27,0,0-.21,0-.36,0,0-.46,0-.92-.09-1.38-.34-3.34-.88-3.81-4.25-3.76a6.59,6.59,0,0,1-1,0c-1.53-.24-2,.44-1.92,1.91.18,3.84.39,7.69.36,11.54-.07,10.95.38,21.9-.29,32.84-.13,2.13.68,2.92,2.8,2.91a21.8,21.8,0,0,1,2.78-.16c2.11.28,2.72-.69,2.51-2.6a20,20,0,0,1,0-2.19ZM174,65.82v.09c-.4,0-.8,0-1.19,0-3.44.23-3.45.23-4.5,3.46q-3.88,12.07-7.77,24.17c-2,6.17-4,12.33-6,18.5-.65,2-.37,2.32,1.74,2.19a12.39,12.39,0,0,1,3,0c2,.38,2.9-.49,3.39-2.35.85-3.19,1.93-6.33,2.79-9.52a2.59,2.59,0,0,1,2.94-2.25c3.78.1,7.57.11,11.35,0,1.74-.06,2.47.69,2.91,2.26.95,3.37,2.09,6.69,3,10.07a2.22,2.22,0,0,0,2.57,1.88,31.82,31.82,0,0,1,4.58,0c1.68.15,1.67-.62,1.29-1.85-4.53-14.66-9.84-29.07-13.87-43.89a3.45,3.45,0,0,0-3.66-2.75C175.73,65.83,174.87,65.82,174,65.82Zm128.27,49.37a23.38,23.38,0,0,0,9.68-2.32,13.14,13.14,0,0,0,2-22.52,39.12,39.12,0,0,0-6.91-3.89,51.34,51.34,0,0,1-6-3.09,5.9,5.9,0,0,1-3-6.05c.35-2.8,2.11-4.35,4.68-5a16.32,16.32,0,0,1,8.66.06c4.28,1.17,4.22,1.17,5.65-3.07.47-1.39.08-2-1.22-2.28-.84-.19-1.65-.51-2.48-.74-5.42-1.5-10.76-1.55-15.85,1.16-9.44,5-10,16.09-1.12,22.07,3.22,2.18,6.94,3.24,10.35,5,3.66,1.88,5.36,5,4.64,8.57-.62,3.07-3.73,5.3-7.67,5.49a22.41,22.41,0,0,1-11.19-2.18c-.41-.2-1.13-.84-1.31-.24-.57,1.81-1.46,3.56-1.49,5.51,0,.57.46.93,1,1.13A35.4,35.4,0,0,0,302.28,115.19ZM383.4,96.73a24.3,24.3,0,0,0-.61-4.91c-1.55-6.2-5.16-10.67-11.39-12.4s-12.16-.75-16.93,4.07c-4.25,4.3-5.6,9.7-5.1,15.55.61,7,3.83,12.47,10.67,15,6.66,2.43,12.86,1.24,18-3.74C381.82,106.69,383.15,102,383.4,96.73Zm47.51,2.13c3,0,6.1.06,9.15,0,2.65-.07,3.12-.6,3-3.25a36.7,36.7,0,0,0-.45-4.55c-1-6-4.05-10.25-10.25-11.75-6-1.44-11.28,0-15.29,4.61-5.22,6-6,13.14-3.6,20.54,2,6.32,7.17,10,13.81,10.49a34.54,34.54,0,0,0,10.44-.89c3.22-.74,3.5-1.29,2.79-4.56-.33-1.51-.91-1.92-2.46-1.45a24.29,24.29,0,0,1-9.82.87,9.44,9.44,0,0,1-8.39-8c-.19-1.57.31-2.32,1.9-2.15C424.81,99.05,427.86,98.61,430.91,98.86Zm-94.4-24.1a23.8,23.8,0,0,1,0-2.39c.14-1.34-.3-1.65-1.54-1.13-1,.43-2.14.7-3.2,1.06-2.69.92-3,1.31-3,4.14,0,3.1-.09,3.21-3.1,3-1.37-.12-2,.31-1.94,1.71a16.36,16.36,0,0,1,0,2c-.1,1.84.56,2.62,2.57,2.32,2.19-.33,2.6.27,2.57,2.56-.06,5.37-.28,10.73.07,16.1.56,8.62,3.5,11.35,12,10.81,3.61-.22,3.53-.23,3.62-3.77,0-1.86-.3-2.76-2.51-2.6-3.88.26-5.37-1.18-5.48-5.06-.12-4.11-.08-8.23-.08-12.35,0-6-.52-5.74,5.73-5.73,2.46,0,2.89-.45,2.91-2.89,0-2.87-.1-3-3-3l-1.19,0C336.46,79.3,336.46,79.3,336.51,74.76ZM396.9,85.15c-.07-.82-.1-1.19-.12-1.56-.25-3.93-.6-4.16-4.54-4.24-1.92,0-2.35.73-2.34,2.48.09,9.17.08,18.34.1,27.51,0,4.71,0,4.72,4.69,5,2.78.14,3.28-.32,3.29-3.09,0-5.38-.06-10.76,0-16.14.07-4.66,2.62-8.09,6.23-8.91,1.37-.31,3.08.84,4.07-.7.83-1.3.11-2.85.13-4.3a.63.63,0,0,1,0-.19c.37-1.82-.69-2.25-2.16-2.18a9.53,9.53,0,0,0-6.3,2.59A29.75,29.75,0,0,0,396.9,85.15Zm-238.38-48c0,2.86,0,5.71,0,8.57,0,3.09,0,3.09,3,3.18,1.12,0,2.26.17,3.38.11,5.25-.26,9.84-1.74,12.07-7.11,3.2-7.72-.29-15.13-7.86-16.63a31.3,31.3,0,0,0-8.32-.17c-1.75.12-2.32.87-2.31,2.48C158.54,30.77,158.52,34,158.52,37.15Zm-56-11.94c.07-2.67-.18-2.87-2.79-2.29-8.1,1.81-15,9.63-15.79,18-.29,2.86.4,3.45,3.28,2.84A19.79,19.79,0,0,0,102.53,25.21ZM210.1,44.28h-.45c-.63-2.82-1.25-5.63-1.88-8.44a22.38,22.38,0,0,0-.78-3.28c-.59-1.57-1.92-1.06-3.06-.84-.5.09-1.11.24-.79,1,1.88,4.75,2.91,9.76,4.43,14.62a2.25,2.25,0,0,0,2.8,1.6c1.26-.16,1.69-1.06,2-2.16.87-3.25,1.81-6.49,2.73-9.73a89.09,89.09,0,0,1,3.2,10.31A1.81,1.81,0,0,0,220.37,49c1-.05,2,.06,2.36-1.23,1.48-4.94,3-9.87,4.53-14.8.37-1.23-.29-1.57-1.34-1.52-1.65.08-2.22,1.23-2.57,2.59q-1.28,5-2.56,10a4.53,4.53,0,0,1-1-2c-.8-2.94-1.63-5.87-2.37-8.82a2,2,0,0,0-2.82-1.65c-.87.22-1.09,1-1.32,1.83C212.23,37.1,211.16,40.69,210.1,44.28Zm106.6,2.36c-.23,2.44,1.15,2.32,2.47,2.24,1.54-.08,1-1.28,1-2.09,0-2.26,0-4.51,0-6.76,0-4.58,0-9.16-.05-13.73,0-1.2,0-2.59-2-2.58s-1.81,1.39-1.85,2.61c-.06,2.1,0,4.21,0,6.24-.61.24-.92-.09-1.28-.23-5.93-2.17-9.59-.14-10.94,6.08-.91,4.16.88,8.69,4.07,10.11S313.94,49.26,316.7,46.64Zm91.25-13c0-2.9,0-5.42,0-7.93,0-1.49-.45-2.08-2.1-2.07s-1.93.59-1.92,2c0,7.1.05,14.21,0,21.31,0,1.5.53,2,2,2s2.12-.54,2.05-2.14c-.11-2.78-.07-5.57,0-8.36.07-2.43,1.33-3.78,3.39-3.88,2.31-.12,3.6,1.13,3.71,3.9.11,3,.07,6,0,9,0,1.94,1.45,1.26,2.41,1.49,1.12.26,1.53-.48,1.47-1.34-.26-3.7.34-7.42-.28-11.11-.53-3.12-2.63-5.14-5.6-5.22C411.17,31.17,409.59,32.11,408,33.65Zm-46.13-.1c.28-2.08-.88-2.14-2.21-2-.83.1-1.6.22-1.5,1.37.38,4.57.09,9.15.16,13.72,0,1.48.47,2.44,2.17,2.36s1.84-1,1.8-2.43a51.32,51.32,0,0,1,.12-8.94,3.4,3.4,0,0,1,3.81-3c1.79.06,2.89,1.16,3.12,3.19a25.75,25.75,0,0,1,.15,2.78c0,2.25,0,4.51,0,6.77,0,1,.35,1.7,1.52,1.58.89-.08,2.28.5,2.28-1.09,0-4.11.52-8.25-.42-12.3A5.65,5.65,0,0,0,364.46,32C363.65,32.37,362.9,32.89,361.82,33.55Zm-125.71,0a6,6,0,0,0-.42-1.3c-.6-1-1.6-.76-2.51-.66-.74.08-.91.61-.85,1.31.37,4.57.12,9.15.13,13.72,0,1.59.47,2.35,2.15,2.29s1.92-1.09,1.8-2.42a55.42,55.42,0,0,1,.05-8.35,3.58,3.58,0,0,1,4.85-3.44c2.05.69,2.19,2.52,2.25,4.24.09,2.78.06,5.57,0,8.36,0,1.22.48,1.64,1.68,1.56s2.25.3,2.21-1.39c-.08-2.91.06-5.82,0-8.73C247.33,32.36,242.33,28.4,236.11,33.56Zm197.56,7.76h4.18c.85,0,1.53-.19,1.77-1.19.79-3.26-2.11-7.91-5.45-8.65-3.91-.86-7.37,1.07-9,5-2.07,5-.07,10.47,4.35,12,2.62.9,5.25.42,7.87.06.9-.13,1.28-.8,1.11-1.77s-.82-1.17-1.74-1a14.78,14.78,0,0,1-4.74.16,4.12,4.12,0,0,1-3.48-2.85c-.44-1.2-.4-1.88,1.17-1.77C431,41.4,432.35,41.32,433.67,41.32ZM199.08,40.08c0-5.2-3.41-8.79-8.25-8.75s-8.37,3.78-8.38,9,3.51,9,8.3,9C195.7,49.22,199.1,45.46,199.08,40.08Zm64.45.24c0,5.12,3.36,8.87,8.11,8.94s8.52-3.74,8.64-9c.12-5-3.36-8.77-8.21-8.81C266.94,31.42,263.59,34.9,263.53,40.32Zm81-8.85c-5,0-8.37,3.49-8.39,8.77s3.36,9,8.2,9,8.37-3.75,8.43-8.9C352.79,35,349.5,31.48,344.49,31.47ZM284.56,43.64c.1,2.37.85,4,2.59,4.85a6,6,0,0,0,6.24-.27c.85-.53,1.39-1.06,2.1.2.48.84,1.48.68,2.36.45.61-.16.9-.48.81-1.13-.55-3.69-.08-7.42-.42-11.11a5.42,5.42,0,0,0-4.1-5.05,12.25,12.25,0,0,0-6.84.43c-.89.26-1.52.82-1.18,1.93s1.1.92,2,.59a6.41,6.41,0,0,1,4.85-.11A2.21,2.21,0,0,1,294.34,37c-.2,1.25-1.2.72-1.91.83-.52.08-1.06.06-1.58.16C287,38.77,284.57,41.12,284.56,43.64Zm106.23-3.7h.08c0,1.46-.1,2.93,0,4.37.3,3.64,2.22,5.14,5.87,4.77,1.06-.1,1.8-.4,1.77-1.62s-.47-1.72-1.7-1.66c-1.54.09-2.08-.83-2.11-2.25,0-2.18-.1-4.37-.21-6.55s.27-2.6,2.42-2.49c1.07.05,1.84-.08,1.86-1.41s-.54-1.59-1.72-1.57c-2.47,0-2.48,0-2.38-2.68.05-1.11-.51-1.54-1.46-1.18-1.12.42-2.26,1.07-2.38,2.41-.1,1.07-.38,1.59-1.53,1.54-.91-.05-1.05.68-1,1.36s0,1.51.9,1.5c1.73,0,1.65,1.09,1.61,2.28S390.79,38.88,390.79,39.94ZM258,36.41c0-3.52-.06-7,0-10.56,0-1.52-.44-2.17-2-2.13s-2,.57-2,2c0,7.1.06,14.2,0,21.31,0,1.58.69,1.87,2.06,1.88s2-.46,2-2C258,43.45,258,39.93,258,36.41Z"/><path class="cls-2" d="M46.69,72.79C45.8,61.08,52.51,50,62.63,46.18a17,17,0,0,1,11.52-.24c1.38.45,2.72,1,4.1,1.51a19.61,19.61,0,0,0,14.18-.6,21.81,21.81,0,0,1,25.86,5.84c1.14,1.22.26,2-.7,2.76A21.29,21.29,0,0,0,110,66.17,20.08,20.08,0,0,0,118.86,89c2.93,1.77,2.9,1.76,1.62,4.92A52.55,52.55,0,0,1,111,109.63c-5,5.52-9.54,6.67-16.35,3.83A24.25,24.25,0,0,0,87,111.3a20.41,20.41,0,0,0-9.63,2.07c-6.86,3-11.4,1.86-16.45-3.77C52.82,100.54,48.57,89.79,46.73,78A32.89,32.89,0,0,1,46.69,72.79Z"/><path class="cls-3" d="M249.25,110.72V125.6c0,2.79-.05,2.76-2.72,2.84-5,.16-5.41.79-5.3-5.49.24-13.68.3-27.37-.14-41-.06-1.84.32-2.84,2.38-2.47a5.51,5.51,0,0,0,1,0c3.49-.15,3.57-.07,3.68,3.41a2.14,2.14,0,0,0,.48,1.64c2.37-2.9,5.25-5,9.08-5.44,7.88-.93,13.29,2.6,15.86,10.41a22.34,22.34,0,0,1-1.74,18.26A14.23,14.23,0,0,1,249.25,110.72Zm0-13.55c0,1.32-.05,2.65,0,4a8,8,0,0,0,5.59,7.63,8.46,8.46,0,0,0,9.32-3.18c3.31-4.6,3.42-12.21.3-16.93a8,8,0,0,0-8.61-3.61,7.79,7.79,0,0,0-6.24,6A21.78,21.78,0,0,0,249.27,97.17Z"/><path class="cls-4" d="M209.1,111.07v12.6a20,20,0,0,0,0,2.19c.21,1.91-.4,2.88-2.51,2.6a21.8,21.8,0,0,0-2.78.16c-2.12,0-2.93-.78-2.8-2.91.67-10.94.22-21.89.29-32.84,0-3.85-.18-7.7-.36-11.54-.06-1.47.39-2.15,1.92-1.91a6.59,6.59,0,0,0,1,0c3.37,0,3.91.42,4.25,3.76,0,.46.06.92.09,1.38.15,0,.32.08.36,0,8.35-9.41,20.17-7.45,24.69,4.27a20.74,20.74,0,0,1-2.86,20.73,14,14,0,0,1-20.3,2C209.86,111.31,209.73,110.94,209.1,111.07Zm-.1-14.4a31.36,31.36,0,0,0,.34,5.37c.61,3.34,2.21,5.78,5.57,6.75A8.15,8.15,0,0,0,224,106c3.72-4.45,3.87-13.07.4-17.67A8.07,8.07,0,0,0,216.24,85,7.47,7.47,0,0,0,210,90.12,14.84,14.84,0,0,0,209,96.67Z"/><path class="cls-5" d="M174,65.82c.86,0,1.72,0,2.58,0a3.45,3.45,0,0,1,3.66,2.75c4,14.82,9.34,29.23,13.87,43.89.38,1.23.39,2-1.29,1.85a31.82,31.82,0,0,0-4.58,0,2.22,2.22,0,0,1-2.57-1.88c-.94-3.38-2.08-6.7-3-10.07-.44-1.57-1.17-2.32-2.91-2.26-3.78.11-7.57.1-11.35,0a2.59,2.59,0,0,0-2.94,2.25c-.86,3.19-1.94,6.33-2.79,9.52-.49,1.86-1.38,2.73-3.39,2.35a12.39,12.39,0,0,0-3,0c-2.11.13-2.39-.17-1.74-2.19,2-6.17,4-12.33,6-18.5q3.9-12.08,7.77-24.17c1.05-3.23,1.06-3.23,4.5-3.46.39,0,.79,0,1.19,0Zm0,6.94c-2.13,7.08-4.1,13.6-6.05,20.13-.38,1.3.48,1.41,1.44,1.41,3,0,6.11,0,9.16,0,1.71,0,1.94-.52,1.42-2.12C177.93,85.93,176.07,79.62,174,72.76Z"/><path class="cls-5" d="M302.28,115.19a35.4,35.4,0,0,1-11.54-2.44c-.53-.2-1-.56-1-1.13,0-2,.92-3.7,1.49-5.51.18-.6.9,0,1.31.24a22.41,22.41,0,0,0,11.19,2.18c3.94-.19,7.05-2.42,7.67-5.49.72-3.57-1-6.69-4.64-8.57-3.41-1.76-7.13-2.82-10.35-5-8.83-6-8.32-17,1.12-22.07,5.09-2.71,10.43-2.66,15.85-1.16.83.23,1.64.55,2.48.74,1.3.31,1.69.89,1.22,2.28-1.43,4.24-1.37,4.24-5.65,3.07a16.32,16.32,0,0,0-8.66-.06c-2.57.7-4.33,2.25-4.68,5a5.9,5.9,0,0,0,3,6.05,51.34,51.34,0,0,0,6,3.09A39.12,39.12,0,0,1,314,90.35a13.14,13.14,0,0,1-2,22.52A23.38,23.38,0,0,1,302.28,115.19Z"/><path class="cls-5" d="M383.4,96.73c-.25,5.27-1.58,10-5.32,13.55-5.18,5-11.38,6.17-18,3.74-6.84-2.51-10.06-8-10.67-15-.5-5.85.85-11.25,5.1-15.55,4.77-4.82,10.66-5.81,16.93-4.07s9.84,6.2,11.39,12.4A24.3,24.3,0,0,1,383.4,96.73Zm-7.84.2a16.64,16.64,0,0,0-1.89-7.73c-1.58-2.74-3.78-4.57-7.12-4.63A7.91,7.91,0,0,0,359.13,89a16.65,16.65,0,0,0-.82,14.73c1.35,3.44,4,5.74,7.8,5.82,3.54.06,6-2,7.66-5.08A17.63,17.63,0,0,0,375.56,96.93Z"/><path class="cls-3" d="M430.91,98.86c-3.05-.25-6.1.19-9.15-.12-1.59-.17-2.09.58-1.9,2.15a9.44,9.44,0,0,0,8.39,8,24.29,24.29,0,0,0,9.82-.87c1.55-.47,2.13-.06,2.46,1.45.71,3.27.43,3.82-2.79,4.56a34.54,34.54,0,0,1-10.44.89c-6.64-.48-11.8-4.17-13.81-10.49-2.36-7.4-1.62-14.51,3.6-20.54,4-4.64,9.29-6.05,15.29-4.61,6.2,1.5,9.27,5.73,10.25,11.75a36.7,36.7,0,0,1,.45,4.55c.1,2.65-.37,3.18-3,3.25C437,98.92,434,98.86,430.91,98.86Zm-3.26-5.53h6c2.06,0,2.45-.48,2.05-2.46-.84-4.15-4.11-7.11-7.72-7-3.92.14-7.64,3.85-8.11,8-.12,1.05.14,1.48,1.23,1.46C423.27,93.3,425.46,93.33,427.65,93.33Z"/><path class="cls-3" d="M336.51,74.76c-.05,4.54-.05,4.54,4.42,4.64l1.19,0c2.93,0,3.05.15,3,3,0,2.44-.45,2.9-2.91,2.89-6.25,0-5.72-.23-5.73,5.73,0,4.12,0,8.24.08,12.35.11,3.88,1.6,5.32,5.48,5.06,2.21-.16,2.55.74,2.51,2.6-.09,3.54,0,3.55-3.62,3.77-8.54.54-11.48-2.19-12-10.81-.35-5.37-.13-10.73-.07-16.1,0-2.29-.38-2.89-2.57-2.56-2,.3-2.67-.48-2.57-2.32a16.36,16.36,0,0,0,0-2c-.07-1.4.57-1.83,1.94-1.71,3,.26,3.08.15,3.1-3,0-2.83.3-3.22,3-4.14,1.06-.36,2.16-.63,3.2-1.06,1.24-.52,1.68-.21,1.54,1.13A23.8,23.8,0,0,0,336.51,74.76Z"/><path class="cls-6" d="M396.9,85.15a29.75,29.75,0,0,1,3.1-3.76,9.53,9.53,0,0,1,6.3-2.59c1.47-.07,2.53.36,2.16,2.18a.63.63,0,0,0,0,.19c0,1.45.7,3-.13,4.3-1,1.54-2.7.39-4.07.7-3.61.82-6.16,4.25-6.23,8.91-.08,5.38,0,10.76,0,16.14,0,2.77-.51,3.23-3.29,3.09-4.69-.25-4.68-.26-4.69-5,0-9.17,0-18.34-.1-27.51,0-1.75.42-2.52,2.34-2.48,3.94.08,4.29.31,4.54,4.24C396.8,84,396.83,84.33,396.9,85.15Z"/><path class="cls-7" d="M158.52,37.15c0-3.19,0-6.38,0-9.57,0-1.61.56-2.36,2.31-2.48a31.3,31.3,0,0,1,8.32.17c7.57,1.5,11.06,8.91,7.86,16.63-2.23,5.37-6.82,6.85-12.07,7.11-1.12.06-2.26-.07-3.38-.11-3-.09-3-.09-3-3.18C158.51,42.86,158.52,40,158.52,37.15Zm3.66-.2h-.08c0,2.33,0,4.65,0,7,0,1.4.52,2.13,2,2,.52,0,1.06,0,1.59,0,3.55-.05,6.68-1.9,7.59-5,1.07-3.7,1.3-7.47-1.48-10.7a4.68,4.68,0,0,0-2.17-1.35,18.85,18.85,0,0,0-5.06-.88c-1.9-.1-2.46.73-2.41,2.45C162.23,32.57,162.18,34.76,162.18,37Z"/><path class="cls-5" d="M102.53,25.21a19.79,19.79,0,0,1-15.3,18.52c-2.88.61-3.57,0-3.28-2.84.82-8.34,7.69-16.16,15.79-18C102.35,22.34,102.6,22.54,102.53,25.21Z"/><path class="cls-7" d="M210.1,44.28c1.06-3.59,2.13-7.18,3.16-10.79.23-.79.45-1.61,1.32-1.83a2,2,0,0,1,2.82,1.65c.74,2.95,1.57,5.88,2.37,8.82a4.53,4.53,0,0,0,1,2q1.28-5,2.56-10c.35-1.36.92-2.51,2.57-2.59,1.05,0,1.71.29,1.34,1.52-1.51,4.93-3,9.86-4.53,14.8-.39,1.29-1.32,1.18-2.36,1.23a1.81,1.81,0,0,1-2.08-1.62,89.09,89.09,0,0,0-3.2-10.31c-.92,3.24-1.86,6.48-2.73,9.73-.3,1.1-.73,2-2,2.16a2.25,2.25,0,0,1-2.8-1.6c-1.52-4.86-2.55-9.87-4.43-14.62-.32-.79.29-.94.79-1,1.14-.22,2.47-.73,3.06.84a22.38,22.38,0,0,1,.78,3.28c.63,2.81,1.25,5.62,1.88,8.44Z"/><path class="cls-8" d="M316.7,46.64c-2.76,2.62-5.51,3.24-8.56,1.89s-5-6-4.07-10.11c1.35-6.22,5-8.25,10.94-6.08.36.14.67.47,1.28.23,0-2,0-4.14,0-6.24,0-1.22-.1-2.59,1.85-2.61s1.93,1.38,2,2.58c.07,4.57,0,9.15.05,13.73,0,2.25.07,4.5,0,6.76,0,.81.5,2-1,2.09C317.85,49,316.47,49.08,316.7,46.64Zm-.29-6.9c-.06-.56-.09-1.22-.19-1.88a3.74,3.74,0,0,0-2.88-3.39,4.11,4.11,0,0,0-4.27,1.43c-1.84,2.08-1.82,6.54,0,8.69,2.15,2.59,5.56,2,6.79-1.05A13.08,13.08,0,0,0,316.41,39.74Z"/><path class="cls-8" d="M408,33.65c1.64-1.54,3.22-2.48,5.16-2.43,3,.08,5.07,2.1,5.6,5.22.62,3.69,0,7.41.28,11.11.06.86-.35,1.6-1.47,1.34-1-.23-2.44.45-2.41-1.49,0-3,.07-6,0-9-.11-2.77-1.4-4-3.71-3.9-2.06.1-3.32,1.45-3.39,3.88-.09,2.79-.13,5.58,0,8.36.07,1.6-.53,2.13-2.05,2.14s-2-.48-2-2c.06-7.1,0-14.21,0-21.31,0-1.39.33-2,1.92-2s2.12.58,2.1,2.07C407.91,28.23,408,30.75,408,33.65Z"/><path class="cls-9" d="M361.82,33.55c1.08-.66,1.83-1.18,2.64-1.59a5.65,5.65,0,0,1,8.33,3.64c.94,4,.42,8.19.42,12.3,0,1.59-1.39,1-2.28,1.09-1.17.12-1.52-.57-1.52-1.58,0-2.26,0-4.52,0-6.77a25.75,25.75,0,0,0-.15-2.78c-.23-2-1.33-3.13-3.12-3.19a3.4,3.4,0,0,0-3.81,3,51.32,51.32,0,0,0-.12,8.94c0,1.4-.16,2.36-1.8,2.43s-2.14-.88-2.17-2.36c-.07-4.57.22-9.15-.16-13.72-.1-1.15.67-1.27,1.5-1.37C360.94,31.41,362.1,31.47,361.82,33.55Z"/><path class="cls-10" d="M236.11,33.56c6.22-5.16,11.22-1.2,11.35,5.19.06,2.91-.08,5.82,0,8.73,0,1.69-1.16,1.33-2.21,1.39s-1.7-.34-1.68-1.56c.05-2.79.08-5.58,0-8.36-.06-1.72-.2-3.55-2.25-4.24a3.58,3.58,0,0,0-4.85,3.44,55.42,55.42,0,0,0-.05,8.35c.12,1.33-.1,2.36-1.8,2.42s-2.15-.7-2.15-2.29c0-4.57.24-9.15-.13-13.72-.06-.7.11-1.23.85-1.31.91-.1,1.91-.33,2.51.66A6,6,0,0,1,236.11,33.56Z"/><path class="cls-10" d="M433.67,41.32c-1.32,0-2.66.08-4,0-1.57-.11-1.61.57-1.17,1.77A4.12,4.12,0,0,0,432,45.92a14.78,14.78,0,0,0,4.74-.16c.92-.14,1.55,0,1.74,1s-.21,1.64-1.11,1.77c-2.62.36-5.25.84-7.87-.06-4.42-1.52-6.42-7-4.35-12,1.64-4,5.1-5.89,9-5,3.34.74,6.24,5.39,5.45,8.65-.24,1-.92,1.19-1.77,1.19Zm-1.79-2.68c.85,0,1.71,0,2.57,0,1.4,0,1.73-.66,1.4-1.89a3.66,3.66,0,0,0-3-2.77A3.35,3.35,0,0,0,429,35.81c-.45.8-1.12,1.73-.73,2.53s1.44.21,2.2.3A12.89,12.89,0,0,0,431.88,38.64Z"/><path class="cls-11" d="M199.08,40.08c0,5.38-3.38,9.14-8.33,9.2-4.79,0-8.31-3.76-8.3-9s3.51-8.91,8.38-9S199.06,34.88,199.08,40.08Zm-12.79.38a5.31,5.31,0,0,0,.51,3,4,4,0,0,0,3.76,3,4,4,0,0,0,3.86-2.6,9.29,9.29,0,0,0,.57-5.41c-.3-2.37-2.18-4.33-4.14-4.41s-3.51,1.39-4.23,3.79A6.59,6.59,0,0,0,186.29,40.46Z"/><path class="cls-11" d="M263.53,40.32c.06-5.42,3.41-8.9,8.54-8.85,4.85,0,8.33,3.77,8.21,8.81-.12,5.24-3.79,9-8.64,9S263.48,45.44,263.53,40.32Zm12.8,0a10.31,10.31,0,0,0-.74-3.55A4,4,0,0,0,272,34.05a3.92,3.92,0,0,0-3.79,2.43,8.14,8.14,0,0,0,.14,8,3.8,3.8,0,0,0,6.57.29A8.41,8.41,0,0,0,276.33,40.35Z"/><path class="cls-11" d="M344.49,31.47c5,0,8.3,3.57,8.24,8.9-.06,5.15-3.62,8.91-8.43,8.9s-8.22-3.74-8.2-9S339.48,31.45,344.49,31.47Zm4.38,8.83c-.24-1.55-.34-3.21-1.41-4.6a3.75,3.75,0,0,0-6.22,0,8.44,8.44,0,0,0-.22,9,3.85,3.85,0,0,0,6.14.44C348.39,43.79,348.63,42.08,348.87,40.3Z"/><path class="cls-8" d="M284.56,43.64c0-2.52,2.44-4.87,6.29-5.64.52-.1,1.06-.08,1.58-.16.71-.11,1.71.42,1.91-.83A2.21,2.21,0,0,0,293,34.42a6.41,6.41,0,0,0-4.85.11c-.91.33-1.63.66-2-.59s.29-1.67,1.18-1.93a12.25,12.25,0,0,1,6.84-.43,5.42,5.42,0,0,1,4.1,5.05c.34,3.69-.13,7.42.42,11.11.09.65-.2,1-.81,1.13-.88.23-1.88.39-2.36-.45-.71-1.26-1.25-.73-2.1-.2a6,6,0,0,1-6.24.27C285.41,47.59,284.66,46,284.56,43.64Zm10.14-1.33c-.3-.57.64-1.76-.76-2A5.32,5.32,0,0,0,289,41.84a2.54,2.54,0,0,0-.39,3.1,2.43,2.43,0,0,0,2.75,1.45C293.54,46.13,294.67,44.78,294.7,42.31Z"/><path class="cls-8" d="M390.79,39.94c0-1.06,0-2.12,0-3.18s.12-2.3-1.61-2.28c-.93,0-.89-.86-.9-1.5s.12-1.41,1-1.36c1.15.05,1.43-.47,1.53-1.54.12-1.34,1.26-2,2.38-2.41.95-.36,1.51.07,1.46,1.18-.1,2.68-.09,2.73,2.38,2.68,1.18,0,1.74.35,1.72,1.57s-.79,1.46-1.86,1.41c-2.15-.11-2.54.34-2.42,2.49s.17,4.37.21,6.55c0,1.42.57,2.34,2.11,2.25,1.23-.06,1.67.57,1.7,1.66s-.71,1.52-1.77,1.62c-3.65.37-5.57-1.13-5.87-4.77-.12-1.44,0-2.91,0-4.37Z"/><path class="cls-10" d="M258,36.41c0,3.52-.06,7,0,10.56,0,1.5-.53,2-2,2s-2.07-.3-2.06-1.88c.06-7.11,0-14.21,0-21.31,0-1.45.53-2,2-2s2.07.61,2,2.13C258,29.37,258,32.89,258,36.41Z"/><path class="cls-12" d="M249.27,97.17a21.78,21.78,0,0,1,.37-6.13,7.79,7.79,0,0,1,6.24-6,8,8,0,0,1,8.61,3.61c3.12,4.72,3,12.33-.3,16.93a8.46,8.46,0,0,1-9.32,3.18,8,8,0,0,1-5.59-7.63C249.22,99.82,249.27,98.49,249.27,97.17Z"/><path class="cls-12" d="M209,96.67a14.84,14.84,0,0,1,1-6.55A7.47,7.47,0,0,1,216.24,85a8.07,8.07,0,0,1,8.15,3.36c3.47,4.6,3.32,13.22-.4,17.67a8.15,8.15,0,0,1-9.08,2.78c-3.36-1-5-3.41-5.57-6.75A31.36,31.36,0,0,1,209,96.67Z"/><path class="cls-12" d="M174,72.76c2.1,6.86,4,13.17,6,19.43.52,1.6.29,2.16-1.42,2.12-3.05-.06-6.11,0-9.16,0-1,0-1.82-.11-1.44-1.41C169.87,86.36,171.84,79.84,174,72.76Z"/><path class="cls-12" d="M375.56,96.93a17.63,17.63,0,0,1-1.79,7.53c-1.65,3.13-4.12,5.14-7.66,5.08-3.82-.08-6.45-2.38-7.8-5.82A16.65,16.65,0,0,1,359.13,89a7.91,7.91,0,0,1,7.42-4.42c3.34.06,5.54,1.89,7.12,4.63A16.64,16.64,0,0,1,375.56,96.93Z"/><path class="cls-12" d="M427.65,93.33c-2.19,0-4.38,0-6.57,0-1.09,0-1.35-.41-1.23-1.46.47-4.14,4.19-7.85,8.11-8,3.61-.13,6.88,2.83,7.72,7,.4,2,0,2.45-2.05,2.46Z"/><path class="cls-12" d="M162.18,37c0-2.19,0-4.38,0-6.57,0-1.72.51-2.55,2.41-2.45a18.85,18.85,0,0,1,5.06.88,4.68,4.68,0,0,1,2.17,1.35c2.78,3.23,2.55,7,1.48,10.7-.91,3.12-4,5-7.59,5-.53,0-1.07,0-1.59,0-1.5.16-2-.57-2-2,0-2.32,0-4.64,0-7Z"/><path class="cls-12" d="M316.41,39.74a13.08,13.08,0,0,1-.58,3.8c-1.23,3.1-4.64,3.64-6.79,1.05-1.79-2.15-1.81-6.61,0-8.69a4.11,4.11,0,0,1,4.27-1.43,3.74,3.74,0,0,1,2.88,3.39C316.32,38.52,316.35,39.18,316.41,39.74Z"/><path class="cls-13" d="M431.88,38.64a12.89,12.89,0,0,1-1.39,0c-.76-.09-1.85.41-2.2-.3s.28-1.73.73-2.53A3.35,3.35,0,0,1,432.83,34a3.66,3.66,0,0,1,3,2.77c.33,1.23,0,1.93-1.4,1.89C433.59,38.62,432.73,38.64,431.88,38.64Z"/><path class="cls-13" d="M186.29,40.46a6.59,6.59,0,0,1,.33-2.67c.72-2.4,2.33-3.86,4.23-3.79s3.84,2,4.14,4.41a9.29,9.29,0,0,1-.57,5.41,4,4,0,0,1-3.86,2.6,4,4,0,0,1-3.76-3A5.31,5.31,0,0,1,186.29,40.46Z"/><path class="cls-13" d="M276.33,40.35A8.41,8.41,0,0,1,275,44.74a3.8,3.8,0,0,1-6.57-.29,8.14,8.14,0,0,1-.14-8A3.92,3.92,0,0,1,272,34.05a4,4,0,0,1,3.56,2.75A10.31,10.31,0,0,1,276.33,40.35Z"/><path class="cls-13" d="M348.87,40.3c-.24,1.78-.48,3.49-1.71,4.84A3.85,3.85,0,0,1,341,44.7a8.44,8.44,0,0,1,.22-9,3.75,3.75,0,0,1,6.22,0C348.53,37.09,348.63,38.75,348.87,40.3Z"/><path class="cls-13" d="M294.7,42.31c0,2.47-1.16,3.82-3.31,4.08a2.43,2.43,0,0,1-2.75-1.45,2.54,2.54,0,0,1,.39-3.1,5.32,5.32,0,0,1,4.91-1.51C295.34,40.55,294.4,41.74,294.7,42.31Z"/></g></g></svg>