<svg xmlns="http://www.w3.org/2000/svg" viewBox="0 0 518.37 99.71"><defs><style>.cls-1{fill:#010101;}.cls-2{fill:#090909;}.cls-3{fill:#070707;}.cls-4{fill:#080808;}.cls-5{fill:#060606;}</style></defs><title>Asset 1</title><g id="Layer_2" data-name="Layer 2"><g id="Layer_1-2" data-name="Layer 1"><path class="cls-1" d="M.05,49.1c0-15.5,0-31,0-46.5C0,.62.35,0,2.51,0c12,.13,24-.09,36,.11C52.35.35,65.11,4,75.48,13.72c11.84,11.07,15.67,25.29,14,40.8C86.93,79.54,70,95.84,44.9,98.1c-14.44,1.3-28.95.23-43.42.55C-.47,98.69.07,97.4.07,96.43Q0,72.77.05,49.1Zm22.25.07c0,12.91,0,25.83,0,38.74,0,1.64.31,2.28,2.09,2.16,3.49-.22,7-.07,10.5-.35,14.61-1.16,24.88-9,29.6-22.94C68.1,56,67.94,45,65.38,34.05,62.62,22.25,55.63,14.26,44,10.57c-6.23-2-12.68-2.09-19.14-2.17-2.09,0-2.59.51-2.58,2.58C22.35,23.71,22.3,36.44,22.3,49.17Z"/><path class="cls-1" d="M184.1,98.62c-8.17,0-16,0-23.79,0-1.44,0-1.84-1-2.45-1.85q-15-21.82-30.07-43.66c-.5-.71-1-1.41-2-2.71v3.38c0,14.12-.06,28.24.06,42.35,0,2.16-.62,2.55-2.6,2.5-5.9-.13-11.81-.09-17.71,0-1.5,0-2-.31-2-1.94q.07-47.34,0-94.67c0-1.51.31-2,1.93-2C119,.1,132.45,0,145.92.13A41.07,41.07,0,0,1,162.53,3.8c11,5,16.71,14.09,15.86,25.36s-8.52,20.45-19.83,23.49a41.75,41.75,0,0,1-7.76,1.2C162.27,68.69,173,83.54,184.1,98.62ZM125.84,28.7c0,6.07,0,12.15,0,18.23,0,1.33.19,2,1.76,1.9,2.48-.16,5,0,7.45-.1,8.73-.51,18.85-4.64,20.57-18,1.41-10.91-4.21-19.4-14.9-21.59-4.45-.91-9-.59-13.49-.67-1.72,0-1.36,1.08-1.36,2C125.83,16.54,125.84,22.62,125.84,28.7Z"/><path class="cls-2" d="M334.42,52.8c0,8.51-.13,16.86.05,25.2.13,6.45-.27,12.92.76,19.33.17,1-.14,1.32-1.1,1.25a10.2,10.2,0,0,0-2.21,0c-2,.3-2.44-.49-2.43-2.42.07-18.82,0-37.64.07-56.47,0-.81-.6-2,.61-2.4a2.85,2.85,0,0,1,3.19,1c3.91,4.54,7.9,9,11.86,13.53q12.51,14.24,25,28.48c1,1.14,1.86,2.4,2.76,3.57.9-.29.63-1,.63-1.42q-.36-19.23-.77-38.45c0-.92-.12-1.84-.21-2.76-.36-3.86-.36-3.76,3.59-3.75,1.67,0,2,.62,1.94,2.1-.07,5.72,0,11.44,0,17.16,0,13,0,26,0,39,0,1,.77,2.4-.65,2.93s-2.53-.23-3.56-1.39q-19.18-21.78-38.48-43.47C335.12,53.53,334.8,53.2,334.42,52.8Z"/><path class="cls-3" d="M464,98.57c.21-1.91,1.16-3.31,1.8-4.81q11.67-27.45,23.4-54.86c.41-1,.75-1.76,2.11-1.73s1.63.95,2,1.87q9,20.79,18,41.57c2.25,5.24,4.4,10.52,6.63,15.76.63,1.5.71,2.24-1.4,2.25-6.68,0-6.73.12-9.4-6.11q-3.15-7.35-6.06-14.8a2.94,2.94,0,0,0-3.26-2.18c-5.63.11-11.26.09-16.88,0a2.56,2.56,0,0,0-2.91,1.85C475.73,84,472.27,90.13,470.8,97a1.67,1.67,0,0,1-2.07,1.58C467.19,98.48,465.63,98.57,464,98.57Zm25.38-48.16c-3,7-5.74,13.43-8.49,19.83-.45,1-.57,1.69,1,1.68,5.48-.06,11,0,16.81,0Z"/><path class="cls-2" d="M257.29,51.33c-4.3-5.79-9.51-9.57-16.55-10.54-9.65-1.32-18.14,3.14-22,12.12a35.71,35.71,0,0,0,.93,31.25c6.78,13.4,25.86,15,35.54,3.47.7-.83,1.33-1.72,2.37-3.08,0,3.13,0,5.75,0,8.37,0,1-.56,1.46-1.3,1.89-15.08,8.89-35.64,5.39-44.35-8.18-10.78-16.78-5.78-39.86,12.48-47.39,10.6-4.36,21.08-3.57,31.24,1.69a3,3,0,0,1,2,3.22c-.17,2.1,0,4.23-.05,6.36A4.09,4.09,0,0,1,257.29,51.33Z"/><path class="cls-4" d="M460.75,51.55c-1.34-1.56-2.22-2.6-3.13-3.61-9.65-10.83-31-11.09-37,8-3,9.6-2.51,19.28,2.14,28.23,7.09,13.66,26.71,15,36.1,2.79.49-.63,1-1.29,1.86-2.53,0,3.27,0,5.89,0,8.5,0,1.17-.8,1.53-1.59,2-11.17,7-27.64,6.13-38.13-1.91-10-7.64-14.11-23.26-9.65-36.4,4.07-12,15.3-19.87,28.35-20.09a39.08,39.08,0,0,1,18.45,4c1.82.91,2.88,2,2.6,4.24A61.44,61.44,0,0,0,460.75,51.55Z"/><path class="cls-4" d="M266.77,68c0-9.42,0-18.83,0-28.24,0-1.59.25-2.21,2.08-2.22,6.9,0,6.9-.09,6.9,6.8,0,13.84,0,27.68,0,41.52,0,2.92-1.27,6.79.53,8.49s5.62.45,8.55.46c4.52,0,9.05.26,13.53-.56,1-.17,2.24-.61,1.95,1.18-.2,1.25,1.1,3.33-1.83,3.25-4.52-.13-9.05,0-13.57,0-5.26,0-10.52-.1-15.77,0-2,0-2.43-.59-2.41-2.47C266.82,86.79,266.77,77.38,266.77,68Z"/><path class="cls-5" d="M317,67.89c0,9.32-.05,18.63,0,28,0,2-.3,2.86-2.63,2.79-6.25-.17-6.25,0-6.25-6.33,0-17.34,0-34.69-.05-52,0-2.07.37-2.83,2.65-2.77,6.24.17,6.24,0,6.24,6.31Z"/><path class="cls-5" d="M399.34,67.92c0,9.41,0,18.82.05,28.22,0,1.9-.43,2.5-2.42,2.48-6.49-.08-6.49,0-6.49-6.36,0-17.34,0-34.68-.05-52,0-2.13.47-2.78,2.68-2.73,6.23.14,6.23,0,6.23,6.34Z"/></g></g></svg>