<svg xmlns="http://www.w3.org/2000/svg" viewBox="0 0 445.81 132.11"><defs><style>.cls-1{fill:#010101;}.cls-2{fill:#fdfdfd;}.cls-3{fill:#f7f7f7;}.cls-4{fill:#f9f9f9;}.cls-5{fill:#f3f3f3;}.cls-6{fill:#efefef;}.cls-7{fill:#040404;}</style></defs><title>Asset 1</title><g id="Layer_2" data-name="Layer 2"><g id="Layer_1-2" data-name="Layer 1"><path class="cls-1" d="M222.92,132.11H24.21c-10.83,0-19.29-5.62-22.8-15.12A23.88,23.88,0,0,1,0,108.7Q0,66.09,0,23.48C.05,10.1,10,.19,23.34,0h1q198.51,0,397,0c8.27,0,15,2.87,20,9.54a23.14,23.14,0,0,1,4.42,14.31q0,25.89,0,51.79v32.19c0,14.53-9.79,24.28-24.37,24.28ZM42.19,65.52a42.62,42.62,0,0,0,1.18,10.39c2.32,9.34,6.2,17.87,13,24.89,4,4.16,8.52,5.15,13.81,2.55a17.79,17.79,0,0,1,15.72-.12c6,2.64,10.12,1.76,14.7-3s7.47-10.46,9.78-16.55c.42-1.09,0-1.39-.8-1.84C97,74.93,95.84,58.7,107.3,50.21c1.26-.94,1.15-1.4.22-2.44-5.79-6.46-14.51-8.85-22.71-5.38-5.29,2.24-10,2.44-15.34.12-7.07-3-13.8-1.3-19.45,3.87C44.2,51.71,42.38,58.71,42.19,65.52Zm184.72,35.21c6,6.42,16.62,4.71,20.62-2.84a20.15,20.15,0,0,0,.3-19.39c-2.47-4.9-6.64-7.13-12.17-6.75a12.61,12.61,0,0,0-9.44,5.35c-.67-1.62.27-3.6-.79-4.49s-2.91-.14-4.4-.31c-1.34-.15-1.58.41-1.53,1.64.49,12.58.13,25.17.26,37.76,0,1.69-.78,3.94.38,4.92,1,.83,3.17.14,4.8.32s2-.51,2-2.07C226.85,110.23,226.91,105.58,226.91,100.73ZM189.57,77.39c-.36-5.19-.36-5.19-5.09-5.07a1.47,1.47,0,0,1-.21,0c-1.12-.17-1.39.33-1.33,1.41.69,12.56.17,25.14.35,37.71,0,1.77-.79,4.14.32,5.14s3.53.18,5.36.35c1.28.11,1.44-.49,1.42-1.57-.06-2.67,0-5.35,0-8v-6.78c5.14,6.13,15.85,5.32,20.17-1.87a20.05,20.05,0,0,0,.94-19.89c-2.45-5.19-6.88-7.5-12.6-7C195,72.12,192.06,74,189.57,77.39Zm-12.46,26.66c-.19-.7-.31-1.15-.45-1.6q-5.76-17.82-11.54-35.64c-.72-2.21-.72-5.29-2.43-6.36s-4.53-.21-6.86-.35c-1.27-.07-1.77.39-2.15,1.57q-6.52,20.39-13.16,40.74c-.37,1.17-.41,1.79,1.12,1.66a24.64,24.64,0,0,1,4.12,0,1.66,1.66,0,0,0,2-1.46c.94-3.36,2-6.69,3-10a1.61,1.61,0,0,1,1.83-1.41c3.85.08,7.7.07,11.55,0A1.57,1.57,0,0,1,166,92.52c1,3.44,2.13,6.81,3.12,10.24.28,1,.68,1.34,1.7,1.31C172.84,104,174.83,104.05,177.11,104.05Zm88.07-7.83c-.46,1.53-.85,3-1.35,4.4a1.44,1.44,0,0,0,1,2.07c6.55,2.61,13.16,3.07,19.57-.17a12,12,0,0,0,2.2-19.79,23.64,23.64,0,0,0-5.81-3.48A38.3,38.3,0,0,1,274.13,76c-2.07-1.48-3.22-3.4-2.72-6s2.32-3.8,4.67-4.39A15.8,15.8,0,0,1,286,66.68c1.15.45,1.57.27,1.83-.89a23.42,23.42,0,0,1,1-3.14c.27-.69.24-1.19-.53-1.46-6.57-2.34-13.1-2.89-19.16,1.23a11.1,11.1,0,0,0-.47,18.16,23.69,23.69,0,0,0,5.71,3.25,37.27,37.27,0,0,1,5.46,2.38c3.06,1.84,4.37,4.5,3.71,7.58-.57,2.66-2.78,4.45-6.17,4.94A19.57,19.57,0,0,1,265.18,96.22Zm83.9-8.43c0-.45-.11-1.41-.22-2.36-1.1-9.32-8.88-15.17-18.09-13.61-7.67,1.3-12.72,7.86-12.79,16.59-.08,10.83,8.19,18,18.55,16.07C344,103.09,348.88,96.75,349.08,87.79Zm43.58,2.07h5.77c5.26,0,5.36,0,4.79-5.35s-2.55-9.89-8-12a14.1,14.1,0,0,0-18.09,7.53,20,20,0,0,0-1.79,9.42c.41,8.1,4.84,13.61,12,14.87a26.62,26.62,0,0,0,10.44-.46c4-.9,4-1,3.08-4.93-.23-1-.55-1.14-1.5-.81a22,22,0,0,1-9.16.93,8.51,8.51,0,0,1-8-7.38c-.22-1.37,0-2,1.58-1.9C386.74,90,389.7,89.87,392.66,89.86ZM306.29,64.42c-1.23.38-2.27.69-3.3,1-3.65,1.15-3.77,1.16-3.61,4.86.08,1.87-.62,2.2-2.22,2-.77-.07-2.08-.45-2.27.32a9.56,9.56,0,0,0,0,4.48c.28,1.06,1.71.49,2.57.43,1.53-.1,1.94.36,1.94,1.93,0,5.63-.39,11.28.19,16.9.65,6.19,3.83,8.72,10,8.18,5.43-.47,3.94-.35,4.06-4.66,0-1-.22-1.27-1.3-1.19-4.55.36-5.94-.93-6-5.52-.06-3.85,0-7.7,0-11.55,0-4,0-4,4.08-4,3.91,0,3.86,0,3.75-4,0-1.15-.44-1.4-1.46-1.35-1.3.07-2.63-.11-3.91,0-1.92.23-2.75-.3-2.5-2.39A50.75,50.75,0,0,0,306.29,64.42Zm55.1,13.15c0-.32-.08-.65-.1-1-.29-4.34-.29-4.26-4.6-4.33-1.57,0-1.72.57-1.71,1.9.1,8.45.11,16.9.14,25.35,0,4.53,0,4.43,4.64,4.58,2,.07,2.69-.38,2.6-2.54-.19-4.94-.11-9.89,0-14.84.07-4.61,2.54-7.79,6.15-8.33,1.12-.17,2.69.61,3.25-.38s.14-2.4.16-3.64a3.21,3.21,0,0,1,0-.62c.36-1.86-.65-2.13-2.19-2C365.72,71.93,363.39,74.32,361.39,77.57Zm-217.06-44c0,3.09,0,6.18,0,9.26,0,1.09.21,1.68,1.4,1.67,2,0,4,.21,6,0,5.53-.53,8.92-3.41,10-8.24,1.62-7.27-1.82-12.54-8.85-13.43a29.84,29.84,0,0,0-7.19.13c-1,.12-1.35.5-1.33,1.54C144.38,27.48,144.33,30.5,144.33,33.52Zm-51-10.68c.08-2.31,0-2.41-1.69-2.14-8,1.27-15,9.19-15.29,17.18-.07,1.7.32,2.29,2.15,2C86.5,38.8,93.05,31.34,93.34,22.84Zm97.92,17.47-.4,0c-.76-3.4-1.6-6.79-2.24-10.21-.4-2.1-2-1.43-3-1.3-1.6.19-.36,1.33-.22,1.86,1.12,4.1,2.43,8.15,3.53,12.25a1.79,1.79,0,0,0,2.11,1.6c1.21,0,1.84-.3,2.16-1.55.8-3.16,1.75-6.27,2.81-10,1.06,3.84,2,7.11,2.84,10.41a1.25,1.25,0,0,0,1.62,1.08c.79-.11,1.85.48,2.24-.82l4.26-14c.13-.41.28-.73-.31-.95a2.29,2.29,0,0,0-3.16,1.72c-.84,3.31-1.69,6.61-2.68,10.49-1.07-3.91-2-7.26-2.87-10.63-.27-1.06-.56-1.63-1.85-1.64s-1.61.56-1.9,1.61C193.24,33.65,192.24,37,191.26,40.31Zm96.84,2.21a2.46,2.46,0,0,1,.24.66c-.08,1.74,1.2,1.23,2.13,1.3,1.45.11,1-.94,1-1.68,0-5.37,0-10.73-.05-16.09,0-5.11,0-5.11-1.79-5.1s-1.67,0-1.67,5v3.32c-5.23-2.54-8.81-1.46-10.61,3a9.73,9.73,0,0,0-.69,4.85c.34,2.77,1.28,5.31,4.08,6.45A6.21,6.21,0,0,0,288.1,42.52Zm83.27-11.79c0-2.84-.08-5.3,0-7.75.05-1.34-.62-1.5-1.63-1.37-.83.1-2-.52-2,1.21q.09,10.2,0,20.41c0,1.47.84,1.27,1.72,1.26s2,.28,1.89-1.34c-.11-2.53-.06-5.08,0-7.62s1.18-4.06,3.3-4.11,3.21,1.29,3.25,4.09c.05,2.61.07,5.22,0,7.83,0,1.36.83,1.21,1.63,1.13s1.92.57,1.89-1c-.06-3.09.11-6.19-.09-9.27-.27-4.08-2.93-6.24-6.51-5.64A6.62,6.62,0,0,0,371.37,30.73Zm-50.23,5.9c0-4.69-3.05-8.07-7.42-8.13s-7.7,3.28-7.78,8,3.06,8.27,7.51,8.26S321.1,41.36,321.14,36.63Zm-66,0c0-4.68-3-8.06-7.43-8.12s-7.7,3.29-7.77,8,3.07,8.27,7.51,8.26S255.06,41.35,255.1,36.62Zm-73.83,0c0-4.72-3.05-8-7.45-8.08s-7.69,3.36-7.75,8.09,3.14,8.25,7.58,8.22S181.25,41.35,181.27,36.58Zm148-5.85c.65-2.52-1-2-2.25-2-1.73.1-.83,1.45-.84,2.21-.07,3.7,0,7.41,0,11.12,0,1.27-.36,2.5,1.83,2.48s1.72-1.17,1.72-2.37c0-2.41,0-4.81,0-7.22a3.26,3.26,0,0,1,2.59-3.49c2.23-.54,3.86.86,3.94,3.49s.09,5.5,0,8.25c0,1.25.63,1.37,1.53,1.23.73-.11,2,.6,1.94-1,0-3.23.16-6.47-.11-9.68-.37-4.36-4.07-6.58-7.76-4.84A23.13,23.13,0,0,0,329.28,30.73ZM214.63,31c.52-2.49-.8-2.33-2.07-2.28-1.82.06-.91,1.38-.91,2.12,0,4.05.09,8.11,0,12.16,0,1.46.66,1.49,1.74,1.48s1.83,0,1.76-1.47c-.12-2.54-.06-5.08,0-7.63s1.3-4,3.44-4,3.09,1.31,3.12,4,.07,5.22,0,7.83c0,1.25.62,1.4,1.52,1.24.74-.13,2.05.64,2-.92-.06-3.49.41-7-.28-10.48-.91-4.63-5.48-6.16-9.12-3.14Zm53.69,11.89c.69,1.61,1.14,1.82,2.73,1.57.54-.08.92-.17.82-.86-.52-3.34,0-6.72-.34-10.07s-2.16-4.9-5.39-5.1a11.64,11.64,0,0,0-4.46.6c-.9.3-1.57.63-1.19,1.89.44,1.47,1.21.61,1.86.41a6.76,6.76,0,0,1,4-.22,2.34,2.34,0,0,1,1.65,2.57c-.08,1.19-1.19.55-1.82.66A10.84,10.84,0,0,0,261,36.16a5,5,0,0,0-1.75,5.52,4.7,4.7,0,0,0,4.44,3.08A6,6,0,0,0,268.32,42.92Zm121.45-5.37h8.83c.76,0,1.44.11,1.64-1a7.79,7.79,0,0,0-3.28-7.3,6.84,6.84,0,0,0-7.84.92A9.35,9.35,0,0,0,387,40.23c1.21,3.06,3.81,4.52,7.85,4.33,1.09-.05,2.17-.27,3.26-.38s1.23-.73,1.08-1.71c-.17-1.16-.75-1-1.58-.83a12.69,12.69,0,0,1-3.89.22C391.2,41.5,390.11,40.35,389.77,37.55Zm-29.48,7.19c.27,0,.55,0,.82-.05.84-.13,1.82.06,1.79-1.37,0-1.2-.29-1.75-1.63-1.61s-1.84-.79-1.88-1.94c-.09-2.12,0-4.25-.16-6.37-.13-1.63.39-2.22,2-2,.89.11,1.9.34,1.91-1.29s-1-1.43-1.89-1.31c-1.63.21-2.24-.39-2-2,.07-.53.38-1.32-.37-1.65s-3,1.13-3,2.14,0,1.69-1.24,1.52c-1-.13-1.13.43-1.12,1.24s0,1.56,1.17,1.4,1.19.49,1.19,1.36c0,2.54-.09,5.08.07,7.61C356.06,43.3,357.61,44.73,360.29,44.74Zm-129-11.83c0,3.43.06,6.87,0,10.3-.05,1.67,1,1.22,1.93,1.28s1.69.11,1.67-1.31c-.07-6.73-.08-13.47,0-20.2,0-1.57-.85-1.37-1.82-1.39s-1.85-.1-1.8,1.43C231.37,26.31,231.29,29.61,231.29,32.91Z"/><path class="cls-2" d="M42.19,65.52c.19-6.81,2-13.81,7.83-19.14,5.65-5.17,12.38-6.91,19.45-3.87,5.38,2.32,10,2.12,15.34-.12,8.2-3.47,16.92-1.08,22.71,5.38.93,1,1,1.5-.22,2.44C95.84,58.7,97,74.93,109.57,81.82c.84.45,1.22.75.8,1.84-2.31,6.09-5.24,11.81-9.78,16.55s-8.65,5.66-14.7,3a17.79,17.79,0,0,0-15.72.12c-5.29,2.6-9.8,1.61-13.81-2.55-6.79-7-10.67-15.55-13-24.89A42.62,42.62,0,0,1,42.19,65.52Z"/><path class="cls-3" d="M226.91,100.73c0,4.85-.06,9.5,0,14.14,0,1.56-.28,2.27-2,2.07s-3.81.51-4.8-.32c-1.16-1-.36-3.23-.38-4.92-.13-12.59.23-25.18-.26-37.76-.05-1.23.19-1.79,1.53-1.64,1.49.17,3.34-.58,4.4.31s.12,2.87.79,4.49a12.61,12.61,0,0,1,9.44-5.35c5.53-.38,9.7,1.85,12.17,6.75a20.15,20.15,0,0,1-.3,19.39C243.53,105.44,232.86,107.15,226.91,100.73ZM227,88.44a27.06,27.06,0,0,0,0,4.32c.47,3,2,5.34,5,6.15a7.41,7.41,0,0,0,8-2.3c3.59-4.16,3.6-12.56,0-16.72a7.36,7.36,0,0,0-12.39,1.88A13.69,13.69,0,0,0,227,88.44Z"/><path class="cls-4" d="M189.57,77.39c2.49-3.42,5.47-5.27,9.31-5.6,5.72-.5,10.15,1.81,12.6,7a20.05,20.05,0,0,1-.94,19.89c-4.32,7.19-15,8-20.17,1.87v6.78c0,2.68,0,5.36,0,8,0,1.08-.14,1.68-1.42,1.57-1.83-.17-4.19.73-5.36-.35s-.3-3.37-.32-5.14c-.18-12.57.34-25.15-.35-37.71-.06-1.08.21-1.58,1.33-1.41a1.47,1.47,0,0,0,.21,0C189.21,72.2,189.21,72.2,189.57,77.39Zm.8,10.9a18.75,18.75,0,0,0,.37,5.3c.75,2.69,2.26,4.74,5.1,5.38a7.59,7.59,0,0,0,7.88-2.32c3.65-4.11,3.71-12.5.13-16.68a7.41,7.41,0,0,0-12.71,2.21A15.3,15.3,0,0,0,190.37,88.29Z"/><path class="cls-4" d="M177.11,104.05c-2.28,0-4.27-.06-6.25,0-1,0-1.42-.34-1.7-1.31-1-3.43-2.15-6.8-3.12-10.24a1.57,1.57,0,0,0-1.86-1.36c-3.85.06-7.7.07-11.55,0a1.61,1.61,0,0,0-1.83,1.41c-1,3.36-2.09,6.69-3,10a1.66,1.66,0,0,1-2,1.46,24.64,24.64,0,0,0-4.12,0c-1.53.13-1.49-.49-1.12-1.66q6.63-20.35,13.16-40.74c.38-1.18.88-1.64,2.15-1.57,2.33.14,5.16-.71,6.86.35s1.71,4.15,2.43,6.36q5.81,17.81,11.54,35.64C176.8,102.9,176.92,103.35,177.11,104.05ZM158.35,66.41c-1.92,6.42-3.66,12.26-5.44,18.09-.25.84-.26,1.27.81,1.26,3.16,0,6.32,0,9.48,0,.83,0,1.05-.2.77-1.09C162.13,78.79,160.34,72.89,158.35,66.41Z"/><path class="cls-4" d="M265.18,96.22a19.57,19.57,0,0,0,12.16,2.51c3.39-.49,5.6-2.28,6.17-4.94.66-3.08-.65-5.74-3.71-7.58a37.27,37.27,0,0,0-5.46-2.38,23.69,23.69,0,0,1-5.71-3.25,11.1,11.1,0,0,1,.47-18.16c6.06-4.12,12.59-3.57,19.16-1.23.77.27.8.77.53,1.46a23.42,23.42,0,0,0-1,3.14c-.26,1.16-.68,1.34-1.83.89a15.8,15.8,0,0,0-9.87-1.06c-2.35.59-4.18,1.84-4.67,4.39s.65,4.52,2.72,6a38.3,38.3,0,0,0,6.66,3.24,23.64,23.64,0,0,1,5.81,3.48,12,12,0,0,1-2.2,19.79c-6.41,3.24-13,2.78-19.57.17a1.44,1.44,0,0,1-1-2.07C264.33,99.2,264.72,97.75,265.18,96.22Z"/><path class="cls-4" d="M349.08,87.79c-.2,9-5.11,15.3-12.55,16.69-10.36,1.93-18.63-5.24-18.55-16.07.07-8.73,5.12-15.29,12.79-16.59,9.21-1.56,17,4.29,18.09,13.61C349,86.38,349,87.34,349.08,87.79Zm-7.29.67A14.63,14.63,0,0,0,340.06,81c-3.06-5.21-9.46-5.41-12.85-.43-2.74,4-2.78,11.43-.1,15.48,3.11,4.7,9.11,4.83,12.4.25A13.71,13.71,0,0,0,341.79,88.46Z"/><path class="cls-3" d="M392.66,89.87c-3,0-5.92.09-8.86,0-1.62-.08-1.8.53-1.58,1.9a8.51,8.51,0,0,0,8,7.38,22,22,0,0,0,9.16-.93c1-.33,1.27-.21,1.5.81.91,4,.92,4-3.08,4.93a26.62,26.62,0,0,1-10.44.46c-7.16-1.26-11.59-6.77-12-14.87a20,20,0,0,1,1.79-9.42,14.1,14.1,0,0,1,18.09-7.53c5.47,2.06,7.45,6.62,8,12s.47,5.35-4.79,5.35Zm-3.3-5c2,0,4,0,6,0,.56,0,1.2.21,1.31-.8a7.53,7.53,0,0,0-4.88-7.33c-4.94-1.4-8.61,2.22-9.55,7.09-.21,1.12.49,1.05,1.21,1.05C385.39,84.89,387.38,84.9,389.36,84.9Z"/><path class="cls-3" d="M306.29,64.42a50.75,50.75,0,0,1,0,5.54c-.25,2.09.58,2.62,2.5,2.39,1.28-.16,2.61,0,3.91,0,1,0,1.43.2,1.46,1.35.11,4,.16,4-3.75,4-4.08,0-4.08,0-4.08,4,0,3.85,0,7.7,0,11.55.08,4.59,1.47,5.88,6,5.52,1.08-.08,1.33.24,1.3,1.19-.12,4.31,1.37,4.19-4.06,4.66-6.18.54-9.36-2-10-8.18-.58-5.62-.2-11.27-.19-16.9,0-1.57-.41-2-1.94-1.93-.86.06-2.29.63-2.57-.43a9.56,9.56,0,0,1,0-4.48c.19-.77,1.5-.39,2.27-.32,1.6.15,2.3-.18,2.22-2-.16-3.7,0-3.71,3.61-4.86C304,65.11,305.06,64.8,306.29,64.42Z"/><path class="cls-5" d="M361.39,77.57c2-3.25,4.33-5.64,8.3-5.86,1.54-.09,2.55.18,2.19,2a3.21,3.21,0,0,0,0,.62c0,1.24.38,2.7-.16,3.64s-2.13.21-3.25.38c-3.61.54-6.08,3.72-6.15,8.33-.07,5-.15,9.9,0,14.84.09,2.16-.57,2.61-2.6,2.54-4.63-.15-4.62,0-4.64-4.58,0-8.45,0-16.9-.14-25.35,0-1.33.14-1.92,1.71-1.9,4.31.07,4.31,0,4.6,4.33C361.31,76.92,361.36,77.25,361.39,77.57Z"/><path class="cls-5" d="M144.33,33.52c0-3,0-6,0-9.05,0-1,.29-1.42,1.33-1.54a29.84,29.84,0,0,1,7.19-.13c7,.89,10.47,6.16,8.85,13.43-1.09,4.83-4.48,7.71-10,8.24-2,.19-4,0-6,0-1.19,0-1.42-.58-1.4-1.67C144.38,39.7,144.33,36.61,144.33,33.52Zm3.33.13c0,2.2.07,4.41,0,6.6,0,1.22.43,1.47,1.54,1.52,6.33.25,9.63-3.2,9.08-9.54-.22-2.46-.95-4.57-3.3-5.79a12,12,0,0,0-6-.91c-1,0-1.3.33-1.27,1.32C147.71,29.12,147.66,31.39,147.66,33.65Z"/><path class="cls-4" d="M93.34,22.84c-.29,8.5-6.84,16-14.83,17.07-1.83.26-2.22-.33-2.15-2,.33-8,7.32-15.91,15.29-17.18C93.34,20.43,93.42,20.53,93.34,22.84Z"/><path class="cls-6" d="M191.26,40.31c1-3.33,2-6.66,2.91-10,.29-1.05.62-1.62,1.9-1.61s1.58.58,1.85,1.64c.85,3.37,1.8,6.72,2.87,10.63,1-3.88,1.84-7.18,2.68-10.49a2.29,2.29,0,0,1,3.16-1.72c.59.22.44.54.31.95l-4.26,14c-.39,1.3-1.45.71-2.24.82a1.25,1.25,0,0,1-1.62-1.08C198,40.1,197,36.83,196,33c-1.06,3.72-2,6.83-2.81,10-.32,1.25-.95,1.55-2.16,1.55a1.79,1.79,0,0,1-2.11-1.6c-1.1-4.1-2.41-8.15-3.53-12.25-.14-.53-1.38-1.67.22-1.86,1.07-.13,2.63-.8,3,1.3.64,3.42,1.48,6.81,2.24,10.21Z"/><path class="cls-5" d="M288.1,42.52a6.21,6.21,0,0,1-7.34,1.74c-2.8-1.14-3.74-3.68-4.08-6.45a9.73,9.73,0,0,1,.69-4.85c1.8-4.49,5.38-5.57,10.61-3V26.61c0-5,0-5,1.67-5s1.78,0,1.79,5.1c0,5.36,0,10.72.05,16.09,0,.74.43,1.79-1,1.68-.93-.07-2.21.44-2.13-1.3A2.46,2.46,0,0,0,288.1,42.52ZM288,36a10.39,10.39,0,0,0-.12-1.47c-.3-1.58-1-2.86-2.76-3.15a3.82,3.82,0,0,0-4.28,2.09,6.33,6.33,0,0,0-.69,2.76c-.15,3.22,1.53,5.63,4,5.72S288,40.13,288,36Z"/><path class="cls-6" d="M371.37,30.73a6.62,6.62,0,0,1,3.46-2.22c3.58-.6,6.24,1.56,6.51,5.64.2,3.08,0,6.18.09,9.27,0,1.62-1.15,1-1.89,1s-1.66.23-1.63-1.13c.08-2.61.06-5.22,0-7.83,0-2.8-1.13-4.13-3.25-4.09s-3.26,1.44-3.3,4.11-.08,5.09,0,7.62c.07,1.62-1,1.33-1.89,1.34s-1.74.21-1.72-1.26q.1-10.2,0-20.41c0-1.73,1.15-1.11,2-1.21,1-.13,1.68,0,1.63,1.37C371.29,25.43,371.37,27.89,371.37,30.73Z"/><path class="cls-5" d="M321.14,36.63c0,4.73-3.28,8.18-7.69,8.18s-7.59-3.46-7.51-8.26,3.31-8.11,7.78-8S321.18,31.94,321.14,36.63Zm-11.66.17c0,3.21,1.56,5.38,3.85,5.43s4.06-2.2,4.13-5.43c.08-3.39-1.56-5.78-4-5.76S309.45,33.44,309.48,36.8Z"/><path class="cls-5" d="M255.1,36.62c0,4.73-3.28,8.18-7.69,8.19s-7.59-3.45-7.51-8.26,3.3-8.1,7.77-8S255.14,31.94,255.1,36.62Zm-11.67.06c0,3.33,1.58,5.56,3.94,5.56s4-2.29,4.06-5.53-1.53-5.6-3.85-5.67S243.44,33.33,243.43,36.68Z"/><path class="cls-5" d="M181.27,36.58c0,4.77-3.19,8.19-7.62,8.23s-7.64-3.44-7.58-8.22,3.31-8.13,7.75-8.09S181.28,31.86,181.27,36.58Zm-3.66,0c0-3.28-1.61-5.58-4-5.57s-4,2.35-4,5.54,1.54,5.6,3.86,5.65S177.58,40,177.61,36.61Z"/><path class="cls-6" d="M329.28,30.73A23.13,23.13,0,0,1,331.91,29c3.69-1.74,7.39.48,7.76,4.84.27,3.21.08,6.45.11,9.68,0,1.6-1.21.89-1.94,1-.9.14-1.57,0-1.53-1.23q.12-4.12,0-8.25c-.08-2.63-1.71-4-3.94-3.49A3.26,3.26,0,0,0,329.77,35c0,2.41,0,4.81,0,7.22,0,1.2.36,2.35-1.72,2.37s-1.83-1.21-1.83-2.48c0-3.71-.09-7.42,0-11.12,0-.76-.89-2.11.84-2.21C328.26,28.7,329.93,28.21,329.28,30.73Z"/><path class="cls-5" d="M214.63,31l1.21-1.11c3.64-3,8.21-1.49,9.12,3.14.69,3.46.22,7,.28,10.48,0,1.56-1.28.79-2,.92-.9.16-1.56,0-1.52-1.24.08-2.61,0-5.22,0-7.83s-1.08-4-3.12-4-3.4,1.41-3.44,4-.1,5.09,0,7.63c.07,1.48-.7,1.46-1.76,1.47s-1.77,0-1.74-1.48c.07-4.05-.06-8.11,0-12.16,0-.74-.91-2.06.91-2.12C213.83,28.7,215.15,28.54,214.63,31Z"/><path class="cls-5" d="M268.32,42.92a6,6,0,0,1-4.59,1.84,4.7,4.7,0,0,1-4.44-3.08A5,5,0,0,1,261,36.16a10.84,10.84,0,0,1,5.19-1.79c.63-.11,1.74.53,1.82-.66a2.34,2.34,0,0,0-1.65-2.57,6.76,6.76,0,0,0-4,.22c-.65.2-1.42,1.06-1.86-.41-.38-1.26.29-1.59,1.19-1.89a11.64,11.64,0,0,1,4.46-.6c3.23.2,5.09,1.89,5.39,5.1s-.18,6.73.34,10.07c.1.69-.28.78-.82.86C269.46,44.74,269,44.53,268.32,42.92Zm0-4.58c-.32-.39.58-1.53-.66-1.64a5.25,5.25,0,0,0-4.23,1.12,2.55,2.55,0,0,0-.57,3.18,2.24,2.24,0,0,0,2.8,1.1C267.46,41.66,268.36,40.43,268.29,38.34Z"/><path class="cls-5" d="M389.77,37.55c.34,2.8,1.43,4,3.94,4.31a12.69,12.69,0,0,0,3.89-.22c.83-.14,1.41-.33,1.58.83.15,1,0,1.59-1.08,1.71s-2.17.33-3.26.38c-4,.19-6.64-1.27-7.85-4.33a9.35,9.35,0,0,1,2.13-10.06,6.84,6.84,0,0,1,7.84-.92,7.79,7.79,0,0,1,3.28,7.3c-.2,1.11-.88,1-1.64,1Zm0-2.52h6c.65,0,1.21,0,1.14-.94a3.41,3.41,0,0,0-3-3.15C391.73,30.73,390.46,31.89,389.72,35Z"/><path class="cls-5" d="M360.29,44.73c-2.68,0-4.23-1.43-4.4-4.36-.16-2.53-.09-5.07-.07-7.61,0-.87-.09-1.51-1.19-1.36s-1.16-.56-1.17-1.4.14-1.37,1.12-1.24c1.25.17,1.25-.61,1.24-1.52s2.15-2.53,3-2.14.44,1.12.37,1.65c-.2,1.64.41,2.24,2,2,.92-.12,1.89-.29,1.89,1.31s-1,1.4-1.91,1.29c-1.63-.2-2.15.39-2,2,.17,2.12.07,4.25.16,6.37,0,1.15.58,2.09,1.88,1.94s1.6.41,1.63,1.61c0,1.43-.95,1.24-1.79,1.37A7.5,7.5,0,0,1,360.29,44.73Z"/><path class="cls-6" d="M231.29,32.91c0-3.3.08-6.6,0-9.89,0-1.53.78-1.45,1.8-1.43s1.84-.18,1.82,1.39c-.09,6.73-.08,13.47,0,20.2,0,1.42-.74,1.37-1.67,1.31s-2,.39-1.93-1.28C231.35,39.78,231.29,36.34,231.29,32.91Z"/><path class="cls-7" d="M227,88.44a13.69,13.69,0,0,1,.76-6.67,7.36,7.36,0,0,1,12.39-1.88c3.57,4.16,3.56,12.56,0,16.72a7.41,7.41,0,0,1-8,2.3c-3.07-.81-4.57-3.18-5-6.15A27.06,27.06,0,0,1,227,88.44Z"/><path class="cls-7" d="M190.37,88.29a15.3,15.3,0,0,1,.77-6.11A7.41,7.41,0,0,1,203.85,80c3.58,4.18,3.52,12.57-.13,16.68A7.59,7.59,0,0,1,195.84,99c-2.84-.64-4.35-2.69-5.1-5.38A18.75,18.75,0,0,1,190.37,88.29Z"/><path class="cls-7" d="M158.35,66.41c2,6.48,3.78,12.38,5.62,18.25.28.89.06,1.1-.77,1.09-3.16,0-6.32,0-9.48,0-1.07,0-1.06-.42-.81-1.26C154.69,78.67,156.43,72.83,158.35,66.41Z"/><path class="cls-7" d="M341.79,88.46a13.71,13.71,0,0,1-2.28,7.83c-3.29,4.58-9.29,4.45-12.4-.25-2.68-4.05-2.64-11.47.1-15.48,3.39-5,9.79-4.78,12.85.43A14.63,14.63,0,0,1,341.79,88.46Z"/><path class="cls-7" d="M389.36,84.9c-2,0-4,0-5.95,0-.72,0-1.42.07-1.21-1.05.94-4.87,4.61-8.49,9.55-7.09a7.53,7.53,0,0,1,4.88,7.33c-.11,1-.75.8-1.31.8C393.33,84.91,391.35,84.9,389.36,84.9Z"/><path class="cls-7" d="M147.66,33.65c0-2.26.05-4.53,0-6.8,0-1,.3-1.3,1.27-1.32a12,12,0,0,1,6,.91c2.35,1.22,3.08,3.33,3.3,5.79.55,6.34-2.75,9.79-9.08,9.54-1.11-.05-1.59-.3-1.54-1.52C147.73,38.06,147.66,35.85,147.66,33.65Z"/><path class="cls-7" d="M288,36c0,4.16-1.36,6.05-3.87,6s-4.13-2.5-4-5.72a6.33,6.33,0,0,1,.69-2.76,3.82,3.82,0,0,1,4.28-2.09c1.75.29,2.46,1.57,2.76,3.15A10.39,10.39,0,0,1,288,36Z"/><path class="cls-7" d="M309.48,36.8c0-3.36,1.63-5.74,4-5.76s4,2.37,4,5.76c-.07,3.23-1.78,5.48-4.13,5.43S309.5,40,309.48,36.8Z"/><path class="cls-7" d="M243.43,36.68c0-3.35,1.75-5.71,4.15-5.64s3.9,2.39,3.85,5.67-1.73,5.52-4.06,5.53S243.43,40,243.43,36.68Z"/><path class="cls-7" d="M177.61,36.61c0,3.37-1.72,5.68-4.14,5.62s-3.89-2.35-3.86-5.65,1.74-5.53,4-5.54S177.63,33.33,177.61,36.61Z"/><path class="cls-7" d="M268.29,38.34c.07,2.09-.83,3.32-2.66,3.76a2.24,2.24,0,0,1-2.8-1.1,2.55,2.55,0,0,1,.57-3.18,5.25,5.25,0,0,1,4.23-1.12C268.87,36.81,268,38,268.29,38.34Z"/><path class="cls-7" d="M389.72,35c.74-3.14,2-4.3,4.21-4.08a3.41,3.41,0,0,1,3,3.15c.07,1-.49.94-1.14.94Z"/></g></g></svg>