<svg xmlns="http://www.w3.org/2000/svg" viewBox="0 0 490.12 145.61"><defs><style>.cls-1{fill:#fdfdfd;}.cls-2{fill:#0a0a0a;}.cls-3{fill:#080808;}.cls-4{fill:#050505;}.cls-5{fill:#090909;}.cls-6{fill:#101010;}.cls-7{fill:#1e1e1e;}.cls-8{fill:#191919;}.cls-9{fill:#f8f8f8;}.cls-10{fill:#65fbd3;}.cls-11{fill:#bf3c81;}.cls-12{fill:#5eeccf;}.cls-13{fill:#a5e8a9;}.cls-14{fill:#fcc265;}.cls-15{fill:#52cec7;}.cls-16{fill:#3e9da8;}</style></defs><title>Asset 4</title><g id="Layer_2" data-name="Layer 2"><g id="Layer_1-2" data-name="Layer 1"><path class="cls-1" d="M245.06,145.58q-121.62,0-243.23,0c-1.49,0-1.83-.33-1.83-1.83Q.08,72.8,0,1.83C0,.34.34,0,1.83,0Q245.05.06,488.29,0c1.49,0,1.83.34,1.83,1.83q-.06,71,0,142c0,1.5-.34,1.83-1.83,1.83Q366.67,145.55,245.06,145.58ZM44.29,48.28c-2.44.4-3.35,1.37-3.64,3.67a17.32,17.32,0,0,0,.11,5.52c-.15,5.85-.24,11.69,0,17.54a73.36,73.36,0,0,0,0,11.95q-.12,12.93-.21,25.85a34.4,34.4,0,0,0,.21,4.76c.2,1.55.76,3,2.7,3.14a4.63,4.63,0,0,0,4-.5Q66.82,109.64,86.19,99c1.42-.78,3-1.33,4.14-2.61A1.71,1.71,0,0,0,91.62,96c5-2.75,10.11-5.47,15.1-8.32,2.91-1.65,3-4.3.08-6C101.52,78.58,96.15,75.6,90.59,73a4.43,4.43,0,0,0-1.78-1.2c-6.37-3.5-12.74-7-19.13-10.46C64.45,58.51,59.19,55.75,53.94,53l-6.65-3.92A4.23,4.23,0,0,0,44.29,48.28Zm122.48,31.8v.07h-9.56a2.23,2.23,0,0,0-2.49,2.45c0,.59-.07,1.19-.06,1.79.06,2.33.4,2.65,2.69,2.64h11.36c2.32,0,2.32,0,1.72,2.34-1.92,7.48-8.85,11.8-17.39,10.85a18,18,0,0,1-5.32-34.44c5.59-2.26,11.17-2.3,16.3,1.25,3.07,2.13,3.08,2.28,5.56-.46a6.79,6.79,0,0,1,.82-.87c1.3-1,1.13-1.86-.14-2.8-7.21-5.36-15.19-7-23.67-4.11C137,62.08,131.09,69,129.73,79.07c-1.4,10.45,2.69,18.76,11.69,24.3,8.14,5,16.8,5.34,25.24.95,9.49-4.93,11.84-13.94,11.16-22.63-.09-1.23-.93-1.63-2.09-1.62C172.74,80.09,169.76,80.08,166.77,80.08Zm108.78,23.8c0,1.67.1,2.94,0,4.19-.33,3.73-2.37,6.06-5.89,6.82-4.15.89-7.53-.32-9.29-3.51a2.1,2.1,0,0,0-3.1-1.08,17.51,17.51,0,0,1-2.35,1c-1.85.54-1.61,1.53-.84,2.84,3.62,6.11,11.58,9,18.6,6.63,5.77-1.91,9.51-7.08,9.64-13.93.17-9.36.07-18.73.11-28.09,0-1.61-.62-2.44-2.3-2.58-3.58-.3-4.09-.12-4.7,2.09-.87-.5-1.7-1-2.58-1.49a12.46,12.46,0,0,0-9.44-1.11,15.21,15.21,0,0,0-11.28,12.63c-1.26,7,1.26,12.87,7.26,16.62C264.64,108.24,270.24,108.62,275.55,103.88Zm70.19-21.31h.07q0,9.36,0,18.72c0,1,0,2,.07,3a2.14,2.14,0,0,0,2.32,2.2c.66,0,1.32,0,2,0,2.47,0,2.75-.3,2.73-2.69,0-4.45,0-8.9-.09-13.34,0-1.54.48-2.18,2.05-2.13,2.26.08,4.52,0,6.77,0,4,0,7.62-.91,10.71-3.54a14.48,14.48,0,0,0,4.08-15.42A13.6,13.6,0,0,0,364,59.88c-5.24-.2-10.49,0-15.73-.14-1.92,0-2.55.62-2.53,2.52C345.79,69,345.74,75.8,345.74,82.57Zm72.39,19.74c1,4.18,1,4,5.15,4.25,2.11.1,2.44-.81,2.43-2.53,0-5.31,0-10.63,0-15.94a19.53,19.53,0,0,0-1.59-7.92c-3.13-7.08-17.26-10.64-24.67-2.82-2.51,2.65-2.48,2.83.75,4.5,1.93,1,3.22,1.22,5.12-.52,4.12-3.76,11.42-1.65,12.69,3.36.11.43.49.91.13,1.31s-.84,0-1.26-.12a18.07,18.07,0,0,0-7.07-.9c-4.35.38-8.69,1-11.54,4.84a10.16,10.16,0,0,0-.79,11.77c2.12,3.8,7.92,6.51,12.24,6A11.7,11.7,0,0,0,418.13,102.31Zm27.53-6.15c-2.42-5.59-4.62-10.69-6.84-15.77-2.48-5.67-2.49-5.62-8.67-5.63-1.64,0-1.7.41-1.09,1.75,3.66,8.07,7.16,16.22,10.92,24.24a9.35,9.35,0,0,1-.2,9.06c-1.73,3.19-3.14,6.56-4.75,9.82-.55,1.11-.49,1.56.9,1.41a14.25,14.25,0,0,1,3.57-.08c2.29.35,3.3-.74,4.14-2.72,3.32-7.86,6.77-15.66,10.18-23.48,2.65-6.06,5.27-12.13,8-18.17.68-1.51.4-2.07-1.27-1.94a13.25,13.25,0,0,1-3.38.09c-2.3-.4-3.38.63-4.15,2.66C450.69,83.52,448.24,89.59,445.66,96.16ZM298.87,92.61c-.14,5.77,3.93,11.38,10.78,13.76,7.5,2.61,13.52-.6,17.73-4.82.42-.41.7-1,.34-1.42a11.54,11.54,0,0,0-4.36-3c-1.08-.46-1.7.79-2.42,1.42a8.74,8.74,0,0,1-12.2-.27c-1.71-1.72-1.63-2.29.58-3.21,5.31-2.21,10.65-4.38,16-6.57,3.48-1.43,3.48-1.44,1.7-4.85-4.07-7.79-12.49-10.83-19.58-6.89C301.67,79.92,299.17,85.11,298.87,92.61ZM213.1,91.22a15.79,15.79,0,0,0-16-16,16.08,16.08,0,1,0,16,16Zm35.05.16a16,16,0,1,0-16.07,15.91A16.19,16.19,0,0,0,248.15,91.38ZM295,83.32h0c0-6.71,0-13.42,0-20.12,0-3.6-.45-4-4-4.09-2.87-.07-3.14.2-3.14,3.15v39.05q0,1.39.06,2.79c.05,1.21.51,2,1.88,2.09.79,0,1.57.22,2.36.24,2.62,0,2.87-.21,2.88-2.79Q295.06,93.49,295,83.32Zm88.17-.75q0,3.3,0,6.58c0,4.79,0,9.57,0,14.36,0,2.38.61,2.92,2.94,2.93.4,0,.8,0,1.2,0,2.84.17,3,0,3-2.73l0-38.27c0-1,0-2-.07-3,0-1.75-.8-2.75-2.68-2.66-.59,0-1.19,0-1.79,0-2.39,0-2.58.2-2.58,2.66C383.21,69.15,383.22,75.86,383.21,82.57ZM262.84,36.19l-.41.14-8.61-14a7.59,7.59,0,0,0-1-1.45,3,3,0,0,0-3.19-.37c-1,.32-.51,1.3-.48,2.06.06,1.32,0,2.65,0,4q0,6.76-.07,13.53c0,1.08.43,1.8,1.65,1.75s1.18-1,1.18-1.86V25.42a4.5,4.5,0,0,1,2,2.07c1.82,2.92,3.62,5.85,5.43,8.78.94,1.52,1.86,3.06,2.81,4.57a2.34,2.34,0,0,0,2.81.92c1.3-.31.74-1.33.74-2.12,0-5.7,0-11.41,0-17.12,0-1.08.22-2.24-1.45-2.18s-1.34,1.13-1.33,2.15C262.85,27.05,262.84,31.62,262.84,36.19Zm-115-5.86v0c-1.26,0-2.52.05-3.78,0-1-.05-1.51.36-1.45,1.37s.6,1.34,1.59,1.29c1.45-.09,2.91,0,4.36-.11s1.92.66,1.48,1.93A5.93,5.93,0,0,1,149,36.71a8.25,8.25,0,0,1-10.13,1.88,8.7,8.7,0,0,1-4.25-9.81c1.56-5.72,7.39-8,12.58-4.94,1,.62,2,1,2.67-.3s-.55-1.54-1.28-2a10.69,10.69,0,0,0-11.82,0c-3.94,2.4-5.48,6.11-5.16,10.67a10.78,10.78,0,0,0,10.57,9.9c5.89.26,10.18-3.2,11-8.91.38-2.57.13-2.85-2.53-2.88Zm97.9.67a11.08,11.08,0,1,0-22.15.07,11.27,11.27,0,0,0,11.17,11.16A11,11,0,0,0,245.76,31Zm-89.24.14c0,2.92,0,5.84,0,8.76,0,1.4.5,2.06,2,2,3-.07,6,0,9,0,1,0,1.7-.19,1.7-1.38s-.75-1.49-1.83-1.46c-1.86,0-3.72,0-5.58,0a2.27,2.27,0,0,1-2.55-2.58c0-.73,0-1.46,0-2.19.06-1.25.6-1.93,2-1.87,1.93.08,3.85,0,5.78,0,.79,0,1.24-.34,1.26-1.18s-.34-1.37-1.28-1.36c-1.13,0-2.26,0-3.39,0-4,0-4.57-.59-4.37-4.64,0-.13,0-.26,0-.4,0-1.27.59-1.92,2-1.87,2,.08,4.11,0,6.17,0,.91,0,1.77-.08,1.79-1.32s-.81-1.31-1.75-1.3c-2.92,0-5.85.1-8.76,0-1.77-.08-2.18.71-2.15,2.24C156.56,25.43,156.52,28.28,156.52,31.14Zm50.64,1.42c0,2.45,0,4.91,0,7.37,0,1,0,1.94,1.39,1.9s1.33-1,1.33-2c0-4.05,0-8.1,0-12.15,0-4.54,0-4.54,4.49-4.73.88,0,1.55-.24,1.51-1.37,0-1-.5-1.28-1.37-1.28H202.54c-.88,0-1.35.33-1.38,1.28a1.19,1.19,0,0,0,1.3,1.37,18.57,18.57,0,0,0,2.79,0c1.4-.13,1.92.49,1.91,1.82C207.13,27.38,207.15,30,207.16,32.56Zm-29.76-.14h0c0,2.46,0,4.91,0,7.36,0,.94-.21,2,1.18,2s1.65-1,1.65-2.13V28.35c0-4.82,0-4.85,4.65-5.41.9-.11,1.33-.43,1.34-1.33s-.54-1.28-1.38-1.28H172.68c-.94,0-1.27.46-1.28,1.36s.42,1.2,1.19,1.24a19.86,19.86,0,0,0,2.78,0c1.61-.14,2.1.59,2,2.1C177.34,27.51,177.4,30,177.4,32.42Zm18.07-1.3c0,3,0,6,0,9,0,1,.2,1.73,1.36,1.77s1.46-.62,1.46-1.64c0-6,0-12.08,0-18.11,0-.92-.13-1.74-1.36-1.76s-1.46.79-1.46,1.83C195.49,25.15,195.47,28.13,195.47,31.12Z"/><path class="cls-2" d="M166.77,80.08c3,0,6,0,9,0,1.16,0,2,.39,2.09,1.62.68,8.69-1.67,17.7-11.16,22.63-8.44,4.39-17.1,4.06-25.24-.95-9-5.54-13.09-13.85-11.69-24.3,1.36-10.07,7.31-17,16.86-20.29,8.48-2.93,16.46-1.25,23.67,4.11,1.27.94,1.44,1.78.14,2.8a6.79,6.79,0,0,0-.82.87c-2.48,2.74-2.49,2.59-5.56.46-5.13-3.55-10.71-3.51-16.3-1.25A18,18,0,0,0,153,100.21c8.54,1,15.47-3.37,17.39-10.85.6-2.31.6-2.33-1.72-2.34H157.35c-2.29,0-2.63-.31-2.69-2.64,0-.6,0-1.2.06-1.79a2.23,2.23,0,0,1,2.49-2.45h9.56Z"/><path class="cls-3" d="M275.55,103.88c-5.31,4.74-10.91,4.36-16.17,1.07-6-3.75-8.52-9.61-7.26-16.62A15.21,15.21,0,0,1,263.4,75.7a12.46,12.46,0,0,1,9.44,1.11c.88.45,1.71,1,2.58,1.49.61-2.21,1.12-2.39,4.7-2.09,1.68.14,2.31,1,2.3,2.58,0,9.36.06,18.73-.11,28.09-.13,6.85-3.87,12-9.64,13.93-7,2.33-15-.52-18.6-6.63-.77-1.31-1-2.3.84-2.84a17.51,17.51,0,0,0,2.35-1,2.1,2.1,0,0,1,3.1,1.08c1.76,3.19,5.14,4.4,9.29,3.51,3.52-.76,5.56-3.09,5.89-6.82C275.65,106.82,275.55,105.55,275.55,103.88ZM258.81,91.2a9.76,9.76,0,0,0,2.79,7.19,8,8,0,0,0,8.93,2c3.85-1.44,5.47-4.63,5.77-8.51.37-4.84-2.39-9.2-6.24-10.13C264.05,80.35,258.82,84.72,258.81,91.2Z"/><path class="cls-4" d="M345.74,82.57c0-6.77.05-13.54,0-20.31,0-1.9.61-2.56,2.53-2.52,5.24.13,10.49-.06,15.73.14a13.6,13.6,0,0,1,12.47,9.52,14.48,14.48,0,0,1-4.08,15.42c-3.09,2.63-6.76,3.51-10.71,3.54-2.25,0-4.51.06-6.77,0-1.57,0-2.08.59-2.05,2.13.09,4.44.06,8.89.09,13.34,0,2.39-.26,2.69-2.73,2.69-.67,0-1.33,0-2,0a2.14,2.14,0,0,1-2.32-2.2c-.06-1-.07-2-.07-3q0-9.36,0-18.72Zm6.9-8.52h.12c0,2,0,4,0,6,0,1.2.55,1.7,1.68,1.68a74.18,74.18,0,0,0,8.94-.28A7.52,7.52,0,0,0,369.93,74a7.61,7.61,0,0,0-7.45-7.32c-2.66,0-5.31.06-8,0-1.42,0-1.9.56-1.88,1.88C352.66,70.33,352.64,72.19,352.64,74.05Z"/><path class="cls-3" d="M418.13,102.31a11.7,11.7,0,0,1-8.44,5.25c-4.32.54-10.12-2.17-12.24-6a10.16,10.16,0,0,1,.79-11.77c2.85-3.8,7.19-4.46,11.54-4.84a18.07,18.07,0,0,1,7.07.9c.42.13.87.58,1.26.12s0-.88-.13-1.31c-1.27-5-8.57-7.12-12.69-3.36-1.9,1.74-3.19,1.53-5.12.52-3.23-1.67-3.26-1.85-.75-4.5,7.41-7.82,21.54-4.26,24.67,2.82a19.53,19.53,0,0,1,1.59,7.92c0,5.31,0,10.63,0,15.94,0,1.72-.32,2.63-2.43,2.53C419.16,106.35,419.15,106.49,418.13,102.31ZM412.27,91c-2.72,0-5.11.33-7.13,1.94A4,4,0,0,0,403.62,97a3.82,3.82,0,0,0,2.89,3.16,10.12,10.12,0,0,0,11.86-5.84,1.59,1.59,0,0,0-1-2.23A10.13,10.13,0,0,0,412.27,91Z"/><path class="cls-5" d="M445.66,96.16c2.58-6.57,5-12.64,7.34-18.76.77-2,1.85-3.06,4.15-2.66a13.25,13.25,0,0,0,3.38-.09c1.67-.13,2,.43,1.27,1.94-2.71,6-5.33,12.11-8,18.17-3.41,7.82-6.86,15.62-10.18,23.48-.84,2-1.85,3.07-4.14,2.72a14.25,14.25,0,0,0-3.57.08c-1.39.15-1.45-.3-.9-1.41,1.61-3.26,3-6.63,4.75-9.82a9.35,9.35,0,0,0,.2-9.06c-3.76-8-7.26-16.17-10.92-24.24-.61-1.34-.55-1.76,1.09-1.75,6.18,0,6.19,0,8.67,5.63C441,85.47,443.24,90.57,445.66,96.16Z"/><path class="cls-5" d="M298.87,92.61c.3-7.5,2.8-12.69,8.54-15.87,7.09-3.94,15.51-.9,19.58,6.89,1.78,3.41,1.78,3.42-1.7,4.85-5.32,2.19-10.66,4.36-16,6.57-2.21.92-2.29,1.49-.58,3.21a8.74,8.74,0,0,0,12.2.27c.72-.63,1.34-1.88,2.42-1.42a11.54,11.54,0,0,1,4.36,3c.36.42.08,1-.34,1.42-4.21,4.22-10.23,7.43-17.73,4.82C302.8,104,298.73,98.38,298.87,92.61Zm7.21-1.92c4.42-1.82,8.81-3.55,13.15-5.42,1.46-.63.81-1.51-.08-2.21a7.32,7.32,0,0,0-8.17-.93A9,9,0,0,0,306.08,90.69Z"/><path class="cls-5" d="M213.1,91.22a16.08,16.08,0,1,1-16-16A15.79,15.79,0,0,1,213.1,91.22Zm-6.93.08c0-5.72-3.88-9.82-9.23-9.85-4.86,0-9.06,4.45-9.05,9.68a9.5,9.5,0,0,0,9.36,9.79C202,100.88,206.2,96.33,206.17,91.3Z"/><path class="cls-5" d="M248.15,91.38a16,16,0,1,1-32-.34,16,16,0,0,1,32,.34Zm-6.88,0c0-5.82-3.83-10-9.11-9.91-4.93,0-9.19,4.56-9.15,9.66a9.66,9.66,0,0,0,9.39,9.84C237.17,100.91,241.28,96.47,241.27,91.33Z"/><path class="cls-6" d="M295,83.32q0,10.16,0,20.32c0,2.58-.26,2.84-2.88,2.79-.79,0-1.57-.21-2.36-.24-1.37-.06-1.83-.88-1.88-2.09q-.06-1.39-.06-2.79V62.26c0-2.95.27-3.22,3.14-3.15,3.55.09,4,.49,4,4.09,0,6.7,0,13.41,0,20.12Z"/><path class="cls-2" d="M383.22,82.57q0-10.06,0-20.13c0-2.46.19-2.64,2.58-2.66.6,0,1.2.07,1.79,0,1.88-.09,2.65.91,2.68,2.66,0,1,.07,2,.07,3l0,38.27c0,2.78-.15,2.9-3,2.73-.4,0-.8,0-1.2,0-2.33,0-2.92-.55-2.94-2.93,0-4.79,0-9.57,0-14.36Q383.2,85.86,383.22,82.57Z"/><path class="cls-7" d="M262.84,36.19c0-4.57,0-9.14,0-13.7,0-1-.19-2.1,1.33-2.15s1.45,1.1,1.45,2.18c0,5.71,0,11.42,0,17.12,0,.79.56,1.81-.74,2.12a2.34,2.34,0,0,1-2.81-.92c-.95-1.51-1.87-3.05-2.81-4.57-1.81-2.93-3.61-5.86-5.43-8.78a4.5,4.5,0,0,0-2-2.07V40c0,.88.11,1.81-1.18,1.86S249,41.18,249,40.1q0-6.76.07-13.53c0-1.33.08-2.66,0-4,0-.76-.56-1.74.48-2.06a3,3,0,0,1,3.19.37,7.59,7.59,0,0,1,1,1.45l8.61,14Z"/><path class="cls-8" d="M147.86,30.33h2.79c2.66,0,2.91.31,2.53,2.88-.84,5.71-5.13,9.17-11,8.91a10.78,10.78,0,0,1-10.57-9.9c-.32-4.56,1.22-8.27,5.16-10.67a10.69,10.69,0,0,1,11.82,0c.73.44,2,.66,1.28,2s-1.63.92-2.67.3c-5.19-3.09-11-.78-12.58,4.94a8.7,8.7,0,0,0,4.25,9.81A8.25,8.25,0,0,0,149,36.71a5.93,5.93,0,0,0,1.08-1.87c.44-1.27.1-2.05-1.48-1.93s-2.91,0-4.36.11c-1,0-1.53-.3-1.59-1.29s.43-1.42,1.45-1.37c1.26.06,2.52,0,3.78,0Z"/><path class="cls-8" d="M245.76,31a11,11,0,0,1-11,11.23,11.27,11.27,0,0,1-11.17-11.16A11.08,11.08,0,1,1,245.76,31Zm-11,8.51a8.25,8.25,0,0,0,8.37-8.44,8.7,8.7,0,0,0-8.29-8.7c-4.42,0-8.23,4-8.24,8.7A8.23,8.23,0,0,0,234.74,39.51Z"/><path class="cls-8" d="M156.52,31.14c0-2.86,0-5.71,0-8.57,0-1.53.38-2.32,2.15-2.24,2.91.13,5.84.05,8.76,0,.94,0,1.77,0,1.75,1.3S168.29,23,167.38,23c-2.06,0-4.12.06-6.17,0-1.39-.05-1.94.6-2,1.87,0,.14,0,.27,0,.4-.2,4.05.35,4.63,4.37,4.64,1.13,0,2.26,0,3.39,0,.94,0,1.3.47,1.28,1.36s-.47,1.18-1.26,1.18c-1.93,0-3.85.07-5.78,0-1.39-.06-1.93.62-2,1.87,0,.73,0,1.46,0,2.19A2.27,2.27,0,0,0,161.76,39c1.86,0,3.72.09,5.58,0,1.08,0,1.83.17,1.83,1.46s-.71,1.39-1.7,1.38c-3,0-6-.06-9,0-1.49,0-2-.63-2-2C156.55,37,156.52,34.06,156.52,31.14Z"/><path class="cls-7" d="M207.15,32.56c0-2.59,0-5.18,0-7.77,0-1.33-.51-1.95-1.91-1.82a18.57,18.57,0,0,1-2.79,0,1.19,1.19,0,0,1-1.3-1.37c0-.95.5-1.28,1.38-1.28h11.94c.87,0,1.34.32,1.37,1.28,0,1.13-.63,1.34-1.51,1.37-4.53.19-4.51.19-4.49,4.73,0,4,0,8.1,0,12.15,0,1,0,1.94-1.33,2s-1.4-.9-1.39-1.9C207.17,37.47,207.16,35,207.15,32.56Z"/><path class="cls-8" d="M177.4,32.42c0-2.45-.06-4.91,0-7.36.05-1.51-.44-2.24-2-2.1a19.86,19.86,0,0,1-2.78,0c-.77,0-1.2-.38-1.19-1.24s.34-1.37,1.28-1.36h12.14c.84,0,1.4.33,1.38,1.28s-.44,1.22-1.34,1.33c-4.65.56-4.65.59-4.65,5.41V39.7c0,1.15-.14,2.21-1.65,2.13s-1.19-1.11-1.18-2c0-2.45,0-4.9,0-7.36Z"/><path class="cls-8" d="M195.47,31.12c0-3,0-6,0-9,0-1,.13-1.86,1.46-1.83s1.36.84,1.36,1.76c0,6,0,12.07,0,18.11,0,1-.32,1.68-1.46,1.64s-1.37-.8-1.36-1.77C195.48,37.09,195.47,34.1,195.47,31.12Z"/><path class="cls-9" d="M258.81,91.2c0-6.48,5.24-10.85,11.25-9.41,3.85.93,6.61,5.29,6.24,10.13-.3,3.88-1.92,7.07-5.77,8.51a8,8,0,0,1-8.93-2A9.76,9.76,0,0,1,258.81,91.2Z"/><path class="cls-9" d="M352.64,74.05c0-1.86,0-3.72,0-5.57,0-1.32.46-1.92,1.88-1.88,2.66.09,5.31,0,8,0A7.61,7.61,0,0,1,369.93,74a7.52,7.52,0,0,1-6.56,7.48,74.18,74.18,0,0,1-8.94.28c-1.13,0-1.7-.48-1.68-1.68.05-2,0-4,0-6Z"/><path class="cls-9" d="M412.27,91A10.13,10.13,0,0,1,417.41,92a1.59,1.59,0,0,1,1,2.23,10.12,10.12,0,0,1-11.86,5.84A3.82,3.82,0,0,1,403.62,97a4,4,0,0,1,1.52-4.06C407.16,91.28,409.55,90.92,412.27,91Z"/><path class="cls-9" d="M306.08,90.69a9,9,0,0,1,4.9-8.56,7.32,7.32,0,0,1,8.17.93c.89.7,1.54,1.58.08,2.21C314.89,87.14,310.5,88.87,306.08,90.69Z"/><path class="cls-9" d="M206.17,91.3c0,5-4.19,9.58-8.92,9.62a9.5,9.5,0,0,1-9.36-9.79c0-5.23,4.19-9.72,9.05-9.68C202.29,81.48,206.13,85.58,206.17,91.3Z"/><path class="cls-9" d="M241.27,91.33c0,5.14-4.1,9.58-8.87,9.59A9.66,9.66,0,0,1,223,91.08c0-5.1,4.22-9.61,9.15-9.66C237.44,81.36,241.25,85.51,241.27,91.33Z"/><path class="cls-9" d="M234.74,39.51a8.23,8.23,0,0,1-8.16-8.44c0-4.7,3.82-8.72,8.24-8.7a8.7,8.7,0,0,1,8.29,8.7A8.25,8.25,0,0,1,234.74,39.51Z"/><path class="cls-10" d="M42.31,121.64c-1.68-.2-2.34-1.43-2.65-2.83a15.22,15.22,0,0,1-.28-3.45q0-14.11.14-28.25l36.49.1L56.5,107.13Q49.39,114.38,42.31,121.64Z"/><path class="cls-11" d="M42.31,121.64q7.09-7.26,14.19-14.51L76,87.21l2.63-2.38q6.23,5.81,12,12c-3.4,1.9-6.77,3.83-10.18,5.69q-16.6,9-33.22,18.05C45.74,121.45,44.2,122.49,42.31,121.64Z"/><path class="cls-12" d="M78.64,84.83,76,87.21l-36.49-.1a115.64,115.64,0,0,1,0-12.49,33.42,33.42,0,0,1,7.54-.43l21,0c.69.07,1,.64,1.38,1.08a109.41,109.41,0,0,0,9.24,9.16Z"/><path class="cls-13" d="M78.67,84.39a109.41,109.41,0,0,1-9.24-9.16c-.42-.44-.69-1-1.38-1.08C63.87,69,58.91,64.57,54.32,59.81c-2.31-2.4-2.62-4.29-1.08-7.51q13.84,7.47,27.68,14.93c3.27,1.77,6.49,3.63,9.73,5.44Z"/><path class="cls-14" d="M78.67,84.39l12-11.72c5.42,2.91,10.9,5.72,16.24,8.77,3.19,1.83,3.26,4.67.17,6.5-5.35,3.18-10.79,6.21-16.39,8.94q-5.81-6.25-12-12Z"/><path class="cls-15" d="M53.24,52.3c-1.54,3.22-1.23,5.11,1.08,7.51,4.59,4.76,9.55,9.19,13.73,14.34l-21,0a33.42,33.42,0,0,0-7.54.43c-.29-5.88-.12-11.76,0-17.64a49.1,49.1,0,0,1,8.74-.42c.51,0,1.14.18,1.43-.46s-.19-1-.56-1.39c-.86-.88-1.8-1.71-2.6-2.64-1.28-1.5-3.2-2.48-3.8-4.55a4.55,4.55,0,0,1,3.49.81C48.59,49.62,50.9,51,53.24,52.3Z"/><path class="cls-16" d="M42.74,47.52c.6,2.07,2.52,3,3.8,4.55.8.93,1.74,1.76,2.6,2.64.37.38.84.78.56,1.39s-.92.46-1.43.46a49.1,49.1,0,0,0-8.74.42,21.49,21.49,0,0,1,0-6.1C39.91,49.12,40.78,47.79,42.74,47.52Z"/></g></g></svg>