<svg xmlns="http://www.w3.org/2000/svg" viewBox="0 0 445.8 132.1"><defs><style>.cls-1{fill:#010101;}.cls-2{fill:#f9f9f9;}.cls-3{fill:#fdfdfd;}.cls-4{fill:#65fbd3;}.cls-5{fill:#bf3c81;}.cls-6{fill:#5eeccf;}.cls-7{fill:#a5e8a9;}.cls-8{fill:#fcc265;}.cls-9{fill:#52cec7;}.cls-10{fill:#f3f3f3;}.cls-11{fill:#f7f7f7;}.cls-12{fill:#efefef;}.cls-13{fill:#3e9da8;}.cls-14{fill:#040404;}</style></defs><title>Asset 2</title><g id="Layer_2" data-name="Layer 2"><g id="Layer_1-2" data-name="Layer 1"><path class="cls-1" d="M222.88,132.09q-99.36,0-198.72,0c-9.13,0-16.21-3.64-21-11.46A23.16,23.16,0,0,1,0,108.22Q0,79.33,0,50.44C0,41.57,0,32.7,0,23.82.05,10,9.92,0,23.8,0H422.05c13.86,0,23.73,10,23.74,23.86q0,42,0,84c0,14.41-9.79,24.23-24.19,24.23ZM39.48,43.54a3.27,3.27,0,0,0-2.83,3,18.64,18.64,0,0,0,0,5.43c-.1,5.23-.25,10.47,0,15.71a105.57,105.57,0,0,0,0,11.11q-.07,12.58-.13,25.16a14.25,14.25,0,0,0,.25,3.07c.28,1.25.87,2.34,2.36,2.52,1.69.76,3.06-.17,4.42-.91q14.81-8,29.58-16.07c3-1.66,6-3.38,9.06-5.07,5-2.42,9.83-5.13,14.6-7.95,2.75-1.64,2.68-4.17-.16-5.79C91.85,71,87,68.53,82.14,65.94c-2.88-1.62-5.75-3.27-8.65-4.84Q61.18,54.43,48.83,47.8c-2.07-1.18-4.14-2.39-6.23-3.53A4.07,4.07,0,0,0,39.48,43.54ZM155.17,78.8c-.61,4.92-2.87,8.51-7.27,10.63a17.28,17.28,0,0,1-9.46,1.39,16.11,16.11,0,0,1-13.63-11.58,16.72,16.72,0,0,1,5.72-17.76,16.55,16.55,0,0,1,17.89-1.31c1.18.67,2.05,2.51,3.5,1.91,1.24-.51,2-2,3.13-2.94s.7-1.27-.16-2a22.79,22.79,0,0,0-32.15,3.08,22.21,22.21,0,0,0,2.94,31.69,23.52,23.52,0,0,0,25.73,2.69c7.25-3.86,10.91-11.45,10.1-20.52-.13-1.48-.72-1.6-1.9-1.59-4.88.05-9.77,0-14.65,0-4.51,0-4.45,0-4.5,4.49,0,1.44.37,1.87,1.82,1.83C146.54,78.74,150.8,78.8,155.17,78.8Zm95.48-7.58c-5.69-4.48-12.34-4-17.3.81a14.79,14.79,0,0,0-1.5,19.54,13.76,13.76,0,0,0,8.9,5.48,10.71,10.71,0,0,0,9.78-3,30.44,30.44,0,0,1,0,3.73c-.39,2.9-1.6,5.31-4.63,6.21s-6.09.58-8.58-1.9c-.8-.8-.9-2.49-2.13-2.46s-2.28.85-3.42,1.32c-.13.05-.25.11-.38.15-1.15.29-1.32.8-.74,1.9,2.73,5.15,8.21,7.87,14.61,7.12,5.53-.64,9.44-4.13,10.91-9.78a23.17,23.17,0,0,0,.62-5.93q0-10.62,0-21.25c0-4.22,0-4.16-4.13-4.24C251.14,68.94,250.22,69.16,250.65,71.22Zm63.76,4.06V92c0,4.66,0,4.61,4.71,4.63,1.32,0,1.74-.3,1.71-1.68-.09-4.4,0-8.81-.07-13.21,0-1.4.43-1.73,1.74-1.68,2.47.09,4.95.08,7.43,0,7.69-.26,13.08-5.72,13-13.13S337.39,54.14,329.7,54c-4.54,0-9.08,0-13.62,0-1.32,0-1.72.31-1.71,1.68C314.45,62.21,314.41,68.75,314.41,75.28Zm66,3a18.05,18.05,0,0,0-9.69-1.08c-4.42.67-8.31,2.26-9.93,6.89a9.6,9.6,0,0,0,4.51,11.69c4.92,2.85,10.48,2.27,13.81-1.39.45-.5.7-1.26,1.52-1.5.21,3.72.21,3.72,4,3.72a10.23,10.23,0,0,1,1.24,0c1.09.15,1.39-.29,1.38-1.38,0-5.43,0-10.86,0-16.3-.09-5.86-2.83-10.08-7.94-11.82-5.76-2-11.28-1.61-15.9,2.88-2.54,2.46-2.44,2.68.76,4.18.56.26,1.14.49,1.68.79a1.14,1.14,0,0,0,1.72-.31c2.07-2.52,4.85-3,7.85-2.37A6,6,0,0,1,380.4,78.26Zm14.72,31.54c2,0,3.73-.1,5.42,0a2.23,2.23,0,0,0,2.58-1.64c5.61-13,11.3-25.9,16.94-38.86.19-.44.7-.89.2-1.63-1.77,0-3.63.1-5.47,0-1.36-.1-1.92.46-2.38,1.64-1.91,5-3.91,10-5.88,14.93-.34.85-.73,1.68-1.23,2.81-2.69-6.2-5.21-12-7.76-17.88-.28-.64-.32-1.5-1.41-1.47-2.09.06-4.17,0-6.54,0C393.28,76,396.68,84,400.35,91.8a7.17,7.17,0,0,1-.1,7.23C398.37,102.42,396.89,106,395.12,109.8ZM193.66,82.72a14.68,14.68,0,1,0-14.72,14.56A14.46,14.46,0,0,0,193.66,82.72Zm17.42-14.67a14.62,14.62,0,1,0,14.64,14.69A14.45,14.45,0,0,0,211.08,68.05Zm60.67,15.14c.27,5.48,2.72,10.17,8.32,12.68s11.16,1.71,16-2.33c2.91-2.43,2.86-2.49-.33-4.54a7,7,0,0,1-.85-.57c-.94-.78-1.52-.75-2.44.3a8.07,8.07,0,0,1-12.17-.06c-1-1.23-.95-1.77.63-2.4,5.49-2.17,10.93-4.48,16.38-6.76.64-.26,1.56-.34,1.08-1.51-1.65-4-3.94-7.42-8.15-9.1C281.22,65.32,271.74,72.42,271.75,83.19Zm-3.56-8.06V58c0-4.55,0-4.48-4.63-4.55-1.59,0-1.91.45-1.9,2,.06,12.1,0,24.19,0,36.29,0,4.83,0,4.77,4.84,4.78,1.41,0,1.7-.45,1.69-1.77C268.16,88.19,268.19,81.66,268.19,75.13Zm86.8.21V58.44c0-4.44,0-4.36-4.46-4.46-1.59,0-2.06.36-2,2,.07,12,0,23.92,0,35.88,0,4.79,0,4.73,4.81,4.76,1.37,0,1.7-.37,1.69-1.7C355,88.4,355,81.87,355,75.34ZM238.92,33.27c-.48-.74-.73-1.12-1-1.51-2.6-4.2-5.25-8.36-7.76-12.61-.82-1.39-2-1-3.07-1-1.35.09-.75,1.27-.75,1.95-.06,5.28,0,10.57-.06,15.86,0,1.18.2,1.76,1.56,1.68s.95-.94.95-1.6c0-4.55,0-9.11,0-13.67a5.83,5.83,0,0,1,1.66,1.9c2.56,4.15,5.17,8.26,7.66,12.44.72,1.22,1.75,1,2.7.85s.57-1.09.58-1.68c0-5.36,0-10.71,0-16.07,0-.88.22-1.74-1.25-1.75s-1.29.81-1.29,1.72C238.92,24.14,238.92,28.47,238.92,33.27Zm-104.47-6c-1.24,0-2.47,0-3.71,0-.74,0-1.34,0-1.3,1,0,.88.12,1.45,1.22,1.36a16,16,0,0,1,3.09,0c.88.1,2.19-.63,2.57.44s-.37,2.12-1.08,3a6.69,6.69,0,0,1-1.35,1.25A7.71,7.71,0,0,1,123.81,33a7.84,7.84,0,0,1,.08-10.36,7.26,7.26,0,0,1,9.84-1.27c1,.7,1.53.88,2.29-.15.89-1.22-.35-1.46-.87-1.81a10.11,10.11,0,0,0-15.77,8.28,9.78,9.78,0,0,0,9,10.25c5.61.52,9.86-2.54,10.67-7.67.46-2.88.34-3-2.5-3Zm88.94.57a10,10,0,0,0-10.25-10.1A10.14,10.14,0,0,0,213.45,38,9.89,9.89,0,0,0,223.39,27.8Zm-81.26.1c0,2.82,0,5.63,0,8.45,0,1,.28,1.33,1.29,1.31,3,0,5.9,0,8.86,0,.92,0,1.33-.15,1.34-1.21s-.39-1.43-1.43-1.35-2.06,0-3.09,0c-4.68,0-4.63,0-4.5-4.63,0-1.26.52-1.48,1.6-1.44,1.86.06,3.71,0,5.57,0,.85,0,1-.41,1-1.14s0-1.23-.95-1.19-1.65,0-2.47,0c-5,0-4.91,0-4.74-4.87,0-1.08.35-1.43,1.42-1.39,2,.07,4.12,0,6.18,0,.85,0,1.41,0,1.41-1.17s-.44-1.23-1.35-1.22c-2.88.05-5.77.07-8.65,0-1.21,0-1.53.39-1.5,1.54C142.18,22.4,142.13,25.15,142.13,27.9Zm19,1.21c0,2.34,0,4.68,0,7,0,.87-.08,1.56,1.22,1.58s1.34-.69,1.34-1.66c0-3.85,0-7.7,0-11.55s0-3.88,3.94-4a1.87,1.87,0,0,1,.41,0c.93.11,1.15-.35,1.17-1.21s-.34-1.17-1.21-1.16c-3.71,0-7.43,0-11.14,0-.92,0-1.14.38-1.15,1.23s.39,1.2,1.24,1.16,1.93.07,2.88,0c1.15-.12,1.37.39,1.35,1.41C161.06,24.3,161.1,26.71,161.1,29.11Zm27.12-.05c0,2.33,0,4.67,0,7,0,.77-.29,1.63,1.11,1.63s1.43-.55,1.41-1.6q-.08-5.46,0-10.92c0-1.49-.62-3.32.29-4.37s2.6-.26,3.95-.27c.91,0,1.18-.32,1.18-1.2s-.2-1.21-1.14-1.2c-3.71.05-7.41,0-11.12,0-.93,0-1.13.38-1.14,1.22s.36,1.21,1.22,1.17,1.93.05,2.88,0,1.42.27,1.38,1.36C188.16,24.25,188.22,26.66,188.22,29.06ZM180.15,28c0-2.74,0-5.48,0-8.23,0-.95.07-1.7-1.33-1.67s-1.22.73-1.21,1.59q0,8.23,0,16.46c0,.89,0,1.55,1.24,1.54s1.35-.46,1.33-1.46C180.11,33.49,180.15,30.74,180.15,28Z"/><path class="cls-2" d="M155.17,78.8c-4.37,0-8.63-.06-12.89,0-1.45,0-1.84-.39-1.82-1.83,0-4.49,0-4.49,4.5-4.49,4.88,0,9.77,0,14.65,0,1.18,0,1.77.11,1.9,1.59.81,9.07-2.85,16.66-10.1,20.52a23.52,23.52,0,0,1-25.73-2.69,22.21,22.21,0,0,1-2.94-31.69,22.79,22.79,0,0,1,32.15-3.08c.86.73,1.13,1.17.16,2s-1.89,2.43-3.13,2.94c-1.45.6-2.32-1.24-3.5-1.91a16.55,16.55,0,0,0-17.89,1.31,16.72,16.72,0,0,0-5.72,17.76,16.11,16.11,0,0,0,13.63,11.58,17.28,17.28,0,0,0,9.46-1.39C152.3,87.31,154.56,83.72,155.17,78.8Z"/><path class="cls-2" d="M250.65,71.22c-.43-2.06.49-2.28,2-2.26,4.12.08,4.13,0,4.13,4.24q0,10.64,0,21.25a23.17,23.17,0,0,1-.62,5.93c-1.47,5.65-5.38,9.14-10.91,9.78-6.4.75-11.88-2-14.61-7.12-.58-1.1-.41-1.61.74-1.9.13,0,.25-.1.38-.15,1.14-.47,2.27-1.3,3.42-1.32s1.33,1.66,2.13,2.46c2.49,2.48,5.41,2.84,8.58,1.9s4.24-3.31,4.63-6.21a30.44,30.44,0,0,0,0-3.73,10.71,10.71,0,0,1-9.78,3,13.76,13.76,0,0,1-8.9-5.48A14.79,14.79,0,0,1,233.35,72C238.31,67.17,245,66.74,250.65,71.22Zm.45,11.56c0-5.23-3.09-8.9-7.63-8.93s-8.11,3.64-8.16,8.74,3.47,8.88,8.05,8.88C247.76,91.46,251.06,87.76,251.1,82.78Z"/><path class="cls-3" d="M314.41,75.28c0-6.53,0-13.07,0-19.6,0-1.37.39-1.71,1.71-1.68,4.54.08,9.08,0,13.62,0,7.69.1,13.17,5.45,13.24,12.88s-5.32,12.87-13,13.13c-2.48.08-5,.09-7.43,0-1.31,0-1.77.28-1.74,1.68.1,4.4,0,8.81.07,13.21,0,1.38-.39,1.69-1.71,1.68-4.71,0-4.71,0-4.71-4.63Zm6.38-8.17c0,1.79,0,3.58,0,5.36,0,.89.09,1.42,1.19,1.39,2.68-.07,5.37.1,8-.08a6.69,6.69,0,0,0,6.31-6.87,6.9,6.9,0,0,0-6.64-6.62c-2.54-.09-5.09,0-7.63,0-1,0-1.31.31-1.28,1.29C320.84,63.39,320.79,65.25,320.79,67.11Z"/><path class="cls-2" d="M380.4,78.26a6,6,0,0,0-5.07-6c-3-.61-5.78-.15-7.85,2.37a1.14,1.14,0,0,1-1.72.31c-.54-.3-1.12-.53-1.68-.79-3.2-1.5-3.3-1.72-.76-4.18,4.62-4.49,10.14-4.84,15.9-2.88,5.11,1.74,7.85,6,7.94,11.82.08,5.44,0,10.87,0,16.3,0,1.09-.29,1.53-1.38,1.38a10.23,10.23,0,0,0-1.24,0c-3.76,0-3.76,0-4-3.72-.82.24-1.07,1-1.52,1.5-3.33,3.66-8.89,4.24-13.81,1.39a9.6,9.6,0,0,1-4.51-11.69c1.62-4.63,5.51-6.22,9.93-6.89A18.05,18.05,0,0,1,380.4,78.26Zm-8.5,12.88a9.59,9.59,0,0,0,8.53-5.71,1.32,1.32,0,0,0-.6-1.88c-2.58-1.58-8.42-1.46-10.88.3a4,4,0,0,0-1.85,3.88,3.51,3.51,0,0,0,2.76,3A14,14,0,0,0,371.9,91.14Z"/><path class="cls-4" d="M39.1,109.54c-1.49-.18-2.08-1.27-2.36-2.52a14.25,14.25,0,0,1-.25-3.07q0-12.57.13-25.16l32.49.09q-8.69,8.88-17.38,17.74Z"/><path class="cls-2" d="M395.12,109.8c1.77-3.77,3.25-7.38,5.13-10.77a7.17,7.17,0,0,0,.1-7.23C396.68,84,393.28,76,389.59,67.71c2.37,0,4.45,0,6.54,0,1.09,0,1.13.83,1.41,1.47C400.09,75,402.61,80.84,405.3,87c.5-1.13.89-2,1.23-2.81,2-5,4-9.93,5.88-14.93.46-1.18,1-1.74,2.38-1.64,1.84.14,3.7,0,5.47,0,.5.74,0,1.19-.2,1.63-5.64,13-11.33,25.89-16.94,38.86a2.23,2.23,0,0,1-2.58,1.64C398.85,109.7,397.15,109.8,395.12,109.8Z"/><path class="cls-2" d="M193.66,82.72A14.68,14.68,0,1,1,179,68.05,14.43,14.43,0,0,1,193.66,82.72Zm-22.88-.16a8.49,8.49,0,0,0,8.11,8.9c4.42.08,8.25-3.81,8.36-8.5.13-5.17-3.28-9-8-9.11S170.89,77.42,170.78,82.56Z"/><path class="cls-2" d="M211.08,68.05A14.62,14.62,0,1,1,196.35,82.6,14.53,14.53,0,0,1,211.08,68.05Zm8.15,14.67c0-5.29-3.35-8.88-8.22-8.87-4.68,0-8.27,3.89-8.27,9A8.62,8.62,0,0,0,211,91.46,8.49,8.49,0,0,0,219.23,82.72Z"/><path class="cls-2" d="M271.75,83.19c0-10.77,9.47-17.87,18.45-14.29,4.21,1.68,6.5,5.1,8.15,9.1.48,1.17-.44,1.25-1.08,1.51-5.45,2.28-10.89,4.59-16.38,6.76-1.58.63-1.64,1.17-.63,2.4a8.07,8.07,0,0,0,12.17.06c.92-1,1.5-1.08,2.44-.3a7,7,0,0,0,.85.57c3.19,2,3.24,2.11.33,4.54-4.82,4-10.24,4.89-16,2.33S272,88.67,271.75,83.19ZM278.2,82c.17,0,.25,0,.31,0l11-4.5c1.84-.76,1.9-1.12.41-2.38a6,6,0,0,0-2.57-1.26C282.75,72.79,278.25,76.71,278.2,82Z"/><path class="cls-5" d="M39.1,109.54,51.73,96.62q8.69-8.87,17.38-17.74l2.34-2.12Q77,81.93,82.16,87.49c-3,1.69-6,3.41-9.06,5.07q-14.77,8.06-29.58,16.07C42.16,109.37,40.79,110.3,39.1,109.54Z"/><path class="cls-6" d="M71.45,76.76l-2.34,2.12-32.49-.09a105.57,105.57,0,0,1,0-11.11,29.69,29.69,0,0,1,6.72-.39q9.33,0,18.67,0c.62.06.86.56,1.23,1a98.9,98.9,0,0,0,8.23,8.15Z"/><path class="cls-7" d="M71.48,76.37a98.9,98.9,0,0,1-8.23-8.15c-.37-.4-.61-.9-1.23-1-3.72-4.59-8.13-8.53-12.22-12.78-2.06-2.13-2.33-3.81-1-6.68q12.33,6.64,24.66,13.3c2.9,1.57,5.77,3.22,8.66,4.84Z"/><path class="cls-8" d="M71.48,76.37,82.15,65.94C87,68.53,91.85,71,96.6,73.75c2.84,1.62,2.91,4.15.16,5.79-4.77,2.82-9.61,5.53-14.6,7.95Q77,81.93,71.45,76.76Z"/><path class="cls-9" d="M48.83,47.8c-1.36,2.87-1.09,4.55,1,6.68,4.09,4.25,8.5,8.19,12.22,12.78q-9.33,0-18.67,0a29.69,29.69,0,0,0-6.72.39c-.25-5.24-.1-10.48,0-15.71a42.14,42.14,0,0,1,7.78-.37c.45,0,1,.15,1.27-.41s-.17-.9-.5-1.24c-.76-.79-1.6-1.52-2.31-2.36-1.14-1.33-2.85-2.21-3.39-4.05a4.07,4.07,0,0,1,3.12.73C44.69,45.41,46.76,46.62,48.83,47.8Z"/><path class="cls-10" d="M268.19,75.13c0,6.53,0,13.06,0,19.59,0,1.32-.28,1.77-1.69,1.77-4.84,0-4.84.05-4.84-4.78,0-12.1,0-24.19,0-36.29,0-1.51.31-2,1.9-2,4.63.07,4.63,0,4.63,4.55Z"/><path class="cls-11" d="M355,75.34c0,6.53,0,13.06,0,19.59,0,1.33-.32,1.71-1.69,1.7-4.81,0-4.81,0-4.81-4.76,0-12,0-23.92,0-35.88,0-1.65.45-2,2-2,4.46.1,4.46,0,4.46,4.46Z"/><path class="cls-12" d="M238.92,33.27c0-4.8,0-9.13,0-13.45,0-.91-.16-1.72,1.29-1.72s1.25.87,1.25,1.75c0,5.36,0,10.71,0,16.07,0,.59.45,1.56-.58,1.68s-2,.37-2.7-.85c-2.49-4.18-5.1-8.29-7.66-12.44a5.83,5.83,0,0,0-1.66-1.9c0,4.56,0,9.12,0,13.67,0,.66.36,1.53-.95,1.6s-1.57-.5-1.56-1.68c.06-5.29,0-10.58.06-15.86,0-.68-.6-1.86.75-1.95,1.08-.07,2.25-.43,3.07,1,2.51,4.25,5.16,8.41,7.76,12.61C238.19,32.15,238.44,32.53,238.92,33.27Z"/><path class="cls-12" d="M134.45,27.23h2.06c2.84,0,3,.15,2.5,3-.81,5.13-5.06,8.19-10.67,7.67a9.78,9.78,0,0,1-9-10.25,10.11,10.11,0,0,1,15.77-8.28c.52.35,1.76.59.87,1.81-.76,1-1.32.85-2.29.15a7.26,7.26,0,0,0-9.84,1.27A7.84,7.84,0,0,0,123.81,33a7.71,7.71,0,0,0,10.08,1.33,6.69,6.69,0,0,0,1.35-1.25c.71-.87,1.43-2,1.08-3s-1.69-.34-2.57-.44a16,16,0,0,0-3.09,0c-1.1.09-1.18-.48-1.22-1.36,0-1.06.56-1.05,1.3-1C132,27.25,133.21,27.23,134.45,27.23Z"/><path class="cls-12" d="M223.39,27.8A9.89,9.89,0,0,1,213.45,38a10.14,10.14,0,0,1-.31-20.28A10,10,0,0,1,223.39,27.8Zm-2.52.08a7.78,7.78,0,0,0-7.56-7.9A7.66,7.66,0,0,0,206,28a7.39,7.39,0,0,0,7.29,7.6A7.53,7.53,0,0,0,220.87,27.88Z"/><path class="cls-12" d="M142.13,27.9c0-2.75.05-5.5,0-8.24,0-1.15.29-1.57,1.5-1.54,2.88.08,5.77.06,8.65,0,.91,0,1.35.15,1.35,1.22s-.56,1.18-1.41,1.17c-2.06,0-4.13,0-6.18,0-1.07,0-1.38.31-1.42,1.39-.17,4.87-.21,4.87,4.74,4.87.82,0,1.65,0,2.47,0s.94.5.95,1.19-.15,1.16-1,1.14c-1.86,0-3.71,0-5.57,0-1.08,0-1.56.18-1.6,1.44-.13,4.63-.18,4.63,4.5,4.63,1,0,2.06.06,3.09,0s1.44.21,1.43,1.35-.42,1.23-1.34,1.21c-3,0-5.91,0-8.86,0-1,0-1.31-.34-1.29-1.31C142.16,33.53,142.13,30.72,142.13,27.9Z"/><path class="cls-12" d="M161.1,29.11c0-2.4,0-4.81,0-7.21,0-1-.2-1.53-1.35-1.41-1,.1-1.92,0-2.88,0s-1.25-.22-1.24-1.16.23-1.23,1.15-1.23c3.71,0,7.43,0,11.14,0,.87,0,1.23.24,1.21,1.16s-.24,1.32-1.17,1.21a1.87,1.87,0,0,0-.41,0c-3.94.1-3.94.1-3.94,4s0,7.7,0,11.55c0,1,0,1.68-1.34,1.66s-1.22-.71-1.22-1.58C161.11,33.79,161.1,31.45,161.1,29.11Z"/><path class="cls-12" d="M188.22,29.06c0-2.4-.06-4.81,0-7.21,0-1.09-.31-1.45-1.38-1.36s-1.92,0-2.88,0-1.23-.24-1.22-1.17.21-1.23,1.14-1.22c3.71,0,7.41.05,11.12,0,.94,0,1.13.36,1.14,1.2s-.27,1.19-1.18,1.2c-1.35,0-3.16-.63-3.95.27s-.27,2.88-.29,4.37q-.08,5.46,0,10.92c0,1-.11,1.61-1.41,1.6s-1.1-.86-1.11-1.63C188.21,33.73,188.22,31.39,188.22,29.06Z"/><path class="cls-12" d="M180.15,28c0,2.74,0,5.49,0,8.23,0,1-.17,1.45-1.33,1.46s-1.24-.65-1.24-1.54q0-8.23,0-16.46c0-.86-.08-1.56,1.21-1.59s1.34.72,1.33,1.67C180.13,22.52,180.15,25.26,180.15,28Z"/><path class="cls-13" d="M39.48,43.54c.54,1.84,2.25,2.72,3.39,4.05.71.84,1.55,1.57,2.31,2.36.33.34.75.69.5,1.24s-.82.4-1.27.41a42.14,42.14,0,0,0-7.78.37,18.64,18.64,0,0,1,0-5.43A3.27,3.27,0,0,1,39.48,43.54Z"/><path class="cls-14" d="M251.1,82.78c0,5-3.34,8.68-7.74,8.69-4.58,0-8.11-3.88-8.05-8.88s3.49-8.78,8.16-8.74S251.14,77.55,251.1,82.78Z"/><path class="cls-14" d="M320.79,67.11c0-1.86,0-3.72,0-5.57,0-1,.28-1.32,1.28-1.29,2.54.06,5.09,0,7.63,0a6.9,6.9,0,0,1,6.64,6.62A6.69,6.69,0,0,1,330,73.78c-2.67.18-5.36,0-8,.08-1.1,0-1.21-.5-1.19-1.39C320.83,70.69,320.79,68.9,320.79,67.11Z"/><path class="cls-14" d="M371.9,91.14a14,14,0,0,1-2-.41,3.51,3.51,0,0,1-2.76-3A4,4,0,0,1,369,83.85c2.46-1.76,8.3-1.88,10.88-.3a1.32,1.32,0,0,1,.6,1.88A9.59,9.59,0,0,1,371.9,91.14Z"/><path class="cls-14" d="M170.78,82.56c.11-5.14,3.64-8.79,8.45-8.71s8.15,3.94,8,9.11c-.11,4.69-3.94,8.58-8.36,8.5A8.49,8.49,0,0,1,170.78,82.56Z"/><path class="cls-14" d="M219.23,82.72A8.49,8.49,0,0,1,211,91.46a8.62,8.62,0,0,1-8.21-8.66c0-5.06,3.59-8.94,8.27-9C215.88,73.84,219.21,77.43,219.23,82.72Z"/><path class="cls-14" d="M278.2,82c.05-5.3,4.55-9.22,9.18-8.15A6,6,0,0,1,290,75.12c1.49,1.26,1.43,1.62-.41,2.38l-11,4.5C278.45,82,278.37,82,278.2,82Z"/><path class="cls-14" d="M220.87,27.88a7.53,7.53,0,0,1-7.63,7.73A7.39,7.39,0,0,1,206,28a7.66,7.66,0,0,1,7.36-8A7.78,7.78,0,0,1,220.87,27.88Z"/></g></g></svg>