<svg xmlns="http://www.w3.org/2000/svg" viewBox="0 0 135.88 25.58"><defs><style>.cls-1{fill:#00b67a;}.cls-2{fill:#fff;}</style></defs><title>Asset 1</title><g id="Layer_2" data-name="Layer 2"><g id="Front"><path class="cls-1" d="M5.92,0H19.66a5.92,5.92,0,0,1,5.92,5.92V19.66a5.92,5.92,0,0,1-5.92,5.92H5.92A5.92,5.92,0,0,1,0,19.66V5.92A5.92,5.92,0,0,1,5.92,0Z"/><path class="cls-2" d="M12.79,17.24l3.89-1,1.63,5Zm9-6.48H14.9L12.79,4.31l-2.1,6.45H3.84l5.54,4L7.27,21.21l5.55-4,3.41-2.45Z"/><path class="cls-1" d="M33.5,0H47.23a5.92,5.92,0,0,1,5.92,5.92V19.66a5.92,5.92,0,0,1-5.92,5.92H33.5a5.93,5.93,0,0,1-5.93-5.92V5.92A5.93,5.93,0,0,1,33.5,0Z"/><path class="cls-2" d="M40.36,17.24l3.89-1,1.63,5Zm9-6.48H42.47L40.36,4.31l-2.1,6.45H31.41l5.54,4-2.11,6.45,5.55-4,3.41-2.45Z"/><path class="cls-1" d="M61.07,0H74.81a5.92,5.92,0,0,1,5.92,5.92V19.66a5.92,5.92,0,0,1-5.92,5.92H61.07a5.92,5.92,0,0,1-5.92-5.92V5.92A5.92,5.92,0,0,1,61.07,0Z"/><path class="cls-2" d="M67.94,17.24l3.89-1,1.63,5Zm9-6.48H70.05L67.94,4.31l-2.1,6.45H59l5.54,4-2.11,6.45,5.55-4,3.41-2.45Z"/><path class="cls-1" d="M88.65,0h13.73a5.92,5.92,0,0,1,5.92,5.92V19.66a5.92,5.92,0,0,1-5.92,5.92H88.65a5.93,5.93,0,0,1-5.93-5.92V5.92A5.93,5.93,0,0,1,88.65,0Z"/><path class="cls-2" d="M95.51,17.24l3.89-1,1.63,5Zm9-6.48H97.62L95.51,4.31l-2.1,6.45H86.56l5.54,4L90,21.21l5.55-4L99,14.76Z"/><path class="cls-1" d="M116.22,0H130a5.92,5.92,0,0,1,5.92,5.92V19.66A5.92,5.92,0,0,1,130,25.58H116.22a5.92,5.92,0,0,1-5.92-5.92V5.92A5.92,5.92,0,0,1,116.22,0Z"/><path class="cls-2" d="M123.09,17.24l3.89-1,1.63,5Zm9-6.48H125.2l-2.11-6.45L121,10.76h-6.85l5.54,4-2.11,6.45,5.55-4,3.41-2.45Z"/></g></g></svg>